<svg width="27" height="18" viewBox="0 0 27 18" fill="none" xmlns="http://www.w3.org/2000/svg">
<path d="M3 0H24C24.84 0.04 25.54 0.320002 26.1 0.900002C26.66 1.48 26.96 2.16 27 3V15C26.96 15.84 26.68 16.54 26.1 17.1C25.52 17.66 24.84 17.96 24 18H3C2.16 17.96 1.46 17.68 0.900002 17.1C0.340002 16.52 0.04 15.84 0 15V3C0.04 2.16 0.320002 1.46 0.900002 0.900002C1.48 0.340002 2.16 0.04 3 0ZM6 1.5C5.96 2.78 5.54 3.84 4.68 4.68C3.82 5.52 2.78 5.96 1.5 6V12C2.78 12.04 3.84 12.46 4.68 13.32C5.52 14.18 5.96 15.22 6 16.5H21C21.04 15.22 21.46 14.16 22.32 13.32C23.18 12.48 24.22 12.04 25.5 12V6C24.22 5.96 23.16 5.54 22.32 4.68C21.48 3.82 21.04 2.78 21 1.5H6ZM4.5 1.5H3C2.56 1.5 2.20001 1.64 1.92001 1.92C1.64001 2.2 1.5 2.56 1.5 3V4.5C2.34 4.46 3.04001 4.18 3.60001 3.6C4.16001 3.02 4.46 2.34 4.5 1.5ZM1.5 13.5V15C1.5 15.44 1.64001 15.8 1.92001 16.08C2.20001 16.36 2.56 16.5 3 16.5H4.5C4.46 15.66 4.18001 14.96 3.60001 14.4C3.02001 13.84 2.34 13.54 1.5 13.5ZM19.5 9C19.5 10.1 19.24 11.1 18.7 12C18.16 12.9 17.44 13.64 16.5 14.2C15.56 14.74 14.56 15 13.5 15C12.44 15 11.44 14.74 10.5 14.2C9.56 13.64 8.82 12.9 8.3 12C7.78 11.1 7.5 10.1 7.5 9C7.5 7.9 7.76 6.9 8.3 6C8.84 5.1 9.56 4.36 10.5 3.8C11.44 3.26 12.44 3 13.5 3C14.56 3 15.56 3.26 16.5 3.8C17.44 4.36 18.18 5.1 18.7 6C19.22 6.9 19.5 7.9 19.5 9ZM9 9C9 9.82 9.20001 10.56 9.60001 11.24C10 11.92 10.56 12.48 11.24 12.88C11.96 13.28 12.7 13.48 13.48 13.48C14.26 13.48 15.02 13.28 15.72 12.88C16.4 12.48 16.96 11.92 17.36 11.24C17.76 10.56 17.96 9.8 17.96 9C17.96 8.2 17.76 7.44 17.36 6.76C16.96 6.08 16.4 5.52 15.72 5.12C15 4.72 14.26 4.52 13.48 4.52C12.7 4.52 11.94 4.72 11.24 5.12C10.56 5.52 10 6.08 9.60001 6.76C9.20001 7.44 9 8.2 9 9ZM12 6.76C12.04 6.3 12.28 6.04 12.76 6H13.52C13.98 6.04 14.24 6.28 14.28 6.76V10.52H14.66C15.12 10.56 15.38 10.8 15.42 11.28C15.38 11.74 15.14 12 14.66 12.04H12.42C11.96 12 11.7 11.76 11.66 11.28C11.7 10.82 11.94 10.56 12.42 10.52H12.8V7.52C12.34 7.48 12.08 7.24 12.04 6.76H12ZM24 1.52H22.5C22.54 2.36 22.82 3.06 23.4 3.62C23.98 4.18 24.66 4.48 25.5 4.52V3.02C25.5 2.58 25.36 2.22 25.08 1.94C24.8 1.66 24.44 1.52 24 1.52ZM22.5 16.52H24C24.44 16.52 24.8 16.38 25.08 16.1C25.36 15.82 25.5 15.46 25.5 15.02V13.52C24.66 13.56 23.96 13.84 23.4 14.42C22.84 15 22.54 15.68 22.5 16.52Z" fill="white"/>
</svg>
