<svg width="61" height="49" viewBox="0 0 61 49" fill="none" xmlns="http://www.w3.org/2000/svg">
<path d="M1.58283 0H7.67066C8.92881 0.0815308 10.0246 0.489184 10.9175 1.34526C11.7292 2.2421 12.1757 3.302 12.2568 4.60649V35.1805C12.338 36.1181 12.825 36.6481 13.7991 36.7296H59.4578C60.3912 36.8112 60.9188 37.3003 61 38.2787C60.9188 39.2163 60.4318 39.7463 59.4578 39.8278H54.0193C54.5875 40.7246 54.8716 41.7438 54.8716 42.8852C54.7904 44.5973 54.2222 46.0241 53.0452 47.1656C51.8683 48.307 50.4884 48.9185 48.7838 49C47.0792 48.9185 45.6587 48.3478 44.5223 47.1656C43.3859 45.9834 42.7771 44.5973 42.696 42.8852C42.696 41.7438 42.9801 40.7246 43.5482 39.8278H26.6241C27.1923 40.7246 27.4764 41.7438 27.4764 42.8852C27.3952 44.5973 26.827 46.0241 25.65 47.1656C24.473 48.307 23.0932 48.9185 21.3886 49C19.684 48.9185 18.2635 48.3478 17.1271 47.1656C15.9907 45.9834 15.3819 44.5973 15.3007 42.8852C15.3007 41.7438 15.5848 40.7246 16.153 39.8278H13.7585C12.5003 39.7463 11.4045 39.3386 10.5116 38.4825C9.69994 37.5857 9.25349 36.5258 9.17232 35.2213V4.64726C9.09115 3.70966 8.60412 3.1797 7.63006 3.09817H1.54224C0.608771 3.01664 0.081171 2.52746 0 1.54909C0.081171 0.611485 0.568186 0.0815308 1.54224 0H1.58283ZM18.3041 6.11481C18.3041 5.21797 18.5882 4.4842 19.1563 3.91348C19.7245 3.34277 20.4551 3.0574 21.348 3.0574H33.5236C34.4165 3.0574 35.147 3.34277 35.7152 3.91348C36.2834 4.4842 36.5675 5.21797 36.5675 6.11481V27.5166C36.5675 28.4135 36.2834 29.1473 35.7152 29.718C35.147 30.2887 34.4165 30.574 33.5236 30.574H21.348C20.4551 30.574 19.7245 30.2887 19.1563 29.718C18.5882 29.1473 18.3041 28.4135 18.3041 27.5166V6.11481ZM21.348 45.8611C22.2409 45.8611 22.9714 45.5757 23.5396 45.005C24.1078 44.4343 24.3919 43.7005 24.3919 42.8037C24.3919 41.9068 24.1078 41.173 23.5396 40.6023C22.9714 40.0316 22.2409 39.7463 21.348 39.7463C20.4551 39.7463 19.7245 40.0316 19.1563 40.6023C18.5882 41.173 18.3041 41.9068 18.3041 42.8037C18.3041 43.7005 18.5882 44.4343 19.1563 45.005C19.7245 45.5757 20.4551 45.8611 21.348 45.8611ZM21.348 6.11481V27.5166H33.5236V6.11481H21.348ZM42.6554 3.0574H48.7432C49.6361 3.0574 50.3666 3.34277 50.9348 3.91348C51.503 4.4842 51.7871 5.21797 51.7871 6.11481V12.2296C51.7871 13.1265 51.503 13.8602 50.9348 14.431C50.3666 15.0017 49.6361 15.287 48.7432 15.287H42.6554C41.7625 15.287 41.0319 15.0017 40.4637 14.431C39.8955 13.8602 39.6115 13.1265 39.6115 12.2296V6.11481C39.6115 5.21797 39.8955 4.4842 40.4637 3.91348C41.0319 3.34277 41.7625 3.0574 42.6554 3.0574ZM39.6115 21.4018C39.6115 20.505 39.8955 19.7712 40.4637 19.2005C41.0319 18.6298 41.7625 18.3444 42.6554 18.3444H54.831C55.7239 18.3444 56.4544 18.6298 57.0226 19.2005C57.5908 19.7712 57.8749 20.505 57.8749 21.4018V27.5166C57.8749 28.4135 57.5908 29.1473 57.0226 29.718C56.4544 30.2887 55.7239 30.574 54.831 30.574H42.6554C41.7625 30.574 41.0319 30.2887 40.4637 29.718C39.8955 29.1473 39.6115 28.4135 39.6115 27.5166V21.4018ZM48.7432 6.11481H42.6554V12.2296H48.7432V6.11481ZM42.6554 21.4018V27.5166H54.831V21.4018H42.6554ZM51.7871 42.8037C51.7871 41.9068 51.503 41.173 50.9348 40.6023C50.3666 40.0316 49.6361 39.7463 48.7432 39.7463C47.8503 39.7463 47.1198 40.0316 46.5516 40.6023C45.9834 41.173 45.6993 41.9068 45.6993 42.8037C45.6993 43.7005 45.9834 44.4343 46.5516 45.005C47.1198 45.5757 47.8503 45.8611 48.7432 45.8611C49.6361 45.8611 50.3666 45.5757 50.9348 45.005C51.503 44.4343 51.7871 43.7005 51.7871 42.8037Z" fill="white"/>
</svg>
