<svg width="101" height="101" viewBox="0 0 101 101" fill="none" xmlns="http://www.w3.org/2000/svg">
<path d="M6.73334 25.25C11.1942 17.5908 17.4225 11.4467 25.25 6.73333C33.2458 2.2725 41.6625 0 50.5 0C59.3375 0 67.7542 2.2725 75.75 6.73333C83.6617 11.4467 89.8058 17.675 94.2667 25.25C98.6433 32.9092 100.832 41.3258 101 50.5C100.832 59.6742 98.6433 68.0908 94.2667 75.75C89.8058 83.4092 83.5775 89.5533 75.75 94.2667C67.7542 98.7275 59.3375 101 50.5 101C41.6625 101 33.2458 98.7275 25.25 94.2667C17.3383 89.5533 11.1942 83.325 6.73334 75.75C2.35667 68.0908 0.168333 59.6742 0 50.5C0.168333 41.3258 2.35667 32.9092 6.73334 25.25ZM88.7958 28.4483C84.84 21.715 79.4533 16.3283 72.6358 12.2883C65.65 8.3325 58.3275 6.39667 50.5842 6.39667C42.8408 6.39667 35.4342 8.3325 28.5325 12.2883C21.715 16.3283 16.3283 21.715 12.3725 28.4483C8.585 35.1817 6.565 42.5042 6.48084 50.5C6.64917 58.4958 8.585 65.9025 12.3725 72.5517C16.3283 79.285 21.715 84.6717 28.5325 88.7117C35.5183 92.6675 42.8408 94.6033 50.5842 94.6033C58.3275 94.6033 65.7342 92.6675 72.6358 88.7117C79.4533 84.6717 84.84 79.285 88.7958 72.5517C92.5833 65.8183 94.6033 58.4958 94.6875 50.5C94.5192 42.5042 92.5833 35.0975 88.7958 28.4483ZM53.6983 49.5742L65.7342 67.7542C66.66 69.4375 66.4075 70.9525 64.9767 72.1308C63.2933 73.0567 61.7783 72.8042 60.6 71.3733L47.975 52.4358C47.5542 51.9308 47.3858 51.3417 47.3858 50.6683V22.22C47.5542 20.2842 48.5642 19.19 50.5842 19.0217C52.52 19.19 53.6142 20.2 53.7825 22.22V49.6583L53.6983 49.5742Z" fill="white"/>
</svg>
