<svg width="22" height="27" viewBox="0 0 22 27" fill="none" xmlns="http://www.w3.org/2000/svg">
<path d="M3.14286 6.75H6.28571V8.4375H3.14286C2.6819 8.4375 2.30476 8.595 2.01143 8.91C1.71809 9.225 1.57143 9.63 1.57143 10.125V23.625C1.57143 24.12 1.71809 24.525 2.01143 24.84C2.30476 25.155 2.6819 25.3125 3.14286 25.3125H11C11.461 25.3125 11.8381 25.155 12.1314 24.84C12.4248 24.525 12.5714 24.12 12.5714 23.625V21.9375H14.1429V23.625C14.101 24.57 13.8076 25.3575 13.2 25.9875C12.5924 26.6175 11.88 26.955 11 27H3.14286C2.26286 26.955 1.52953 26.64 0.942859 25.9875C0.356192 25.335 0.0419048 24.57 0 23.625V10.125C0.0419048 9.18 0.33524 8.3925 0.942859 7.7625C1.55048 7.1325 2.26286 6.795 3.14286 6.75ZM21.3086 4.32C21.7695 4.815 22 5.4 22 6.12V16.875C21.9581 17.82 21.6648 18.6075 21.0571 19.2375C20.4495 19.8675 19.7371 20.205 18.8571 20.25H11C10.12 20.205 9.38667 19.89 8.8 19.2375C8.21334 18.585 7.89905 17.82 7.85714 16.875V3.375C7.89905 2.43 8.19238 1.6425 8.8 1.0125C9.40762 0.3825 10.12 0.045 11 0H16.301C16.9505 0 17.5162 0.2475 17.9771 0.7425L21.3086 4.32ZM18.8571 18.5625C19.3181 18.5625 19.6952 18.405 19.9886 18.09C20.2819 17.775 20.4286 17.37 20.4286 16.875V6.12C20.4286 5.8725 20.3448 5.67 20.1771 5.535L16.8457 1.9575C16.72 1.7775 16.5314 1.6875 16.301 1.6875H11C10.539 1.6875 10.1619 1.845 9.86857 2.16C9.57524 2.475 9.42857 2.88 9.42857 3.375V16.875C9.42857 17.37 9.57524 17.775 9.86857 18.09C10.1619 18.405 10.539 18.5625 11 18.5625H18.8571Z" fill="#5169FF"/>
</svg>
