<svg width="51" height="51" viewBox="0 0 51 51" fill="none" xmlns="http://www.w3.org/2000/svg">
<path d="M45.6572 4.32286L50.4171 15.0086C50.8057 15.9314 51 16.9029 51 17.9714V43.7143C50.9029 45.7543 50.2229 47.4543 48.8143 48.8143C47.4057 50.1743 45.7543 50.9029 43.7143 51H7.28571C5.24571 50.9029 3.5457 50.2229 2.1857 48.8143C0.825699 47.4057 0.0971429 45.7543 0 43.7143V17.9714C0 16.9029 0.242854 15.9314 0.679997 15.0086L5.34285 4.32286C6.70285 1.60286 8.93716 0.145714 12.0457 0H38.9057C42.0143 0.145714 44.2486 1.60286 45.6086 4.32286H45.6572ZM27.3457 18.2143H3.64286V43.7143C3.64286 44.7829 3.98285 45.6571 4.66285 46.3371C5.34285 47.0171 6.21714 47.3571 7.28571 47.3571H43.7143C44.7829 47.3571 45.6571 47.0171 46.3371 46.3371C47.0171 45.6571 47.3571 44.7829 47.3571 43.7143V18.2143H27.3457ZM23.7028 14.5714V3.64286H12.0943C10.4914 3.74 9.37429 4.42 8.69429 5.82858L4.80856 14.5714H23.7028ZM37.6914 24.9171L23.12 39.4886C22.2943 40.2657 21.4686 40.2657 20.5943 39.4886L13.3086 32.2029C12.5314 31.3771 12.5314 30.5514 13.3086 29.6771C14.1343 28.9 14.96 28.9 15.8343 29.6771L21.8571 35.6029L35.1657 22.3914C35.9914 21.6143 36.8172 21.6143 37.6914 22.3914C38.4686 23.2171 38.4686 24.0429 37.6914 24.9171ZM27.3457 3.64286V14.5714H46.24L42.3543 5.82858C41.6743 4.46858 40.5086 3.74 38.9543 3.64286H27.3457Z" fill="white"/>
</svg>
