<svg aria-hidden="true" style="position: absolute; width: 0; height: 0; overflow: hidden;" version="1.1"
    xmlns="http://www.w3.org/2000/svg"
    xmlns:xlink="http://www.w3.org/1999/xlink">
    <defs>
        <symbol id="icon-banknote" viewBox="0 0 48 32">
            <path d="M5.333 0h37.333c1.493 0.071 2.738 0.569 3.733 1.6s1.529 2.24 1.6 3.733v21.333c-0.071 1.493-0.569 2.738-1.6 3.733s-2.24 1.529-3.733 1.6h-37.333c-1.493-0.071-2.738-0.569-3.733-1.6s-1.529-2.24-1.6-3.733v-21.333c0.071-1.493 0.569-2.738 1.6-3.733s2.24-1.529 3.733-1.6zM10.667 2.667c-0.071 2.276-0.818 4.16-2.347 5.653s-3.378 2.276-5.653 2.347v10.667c2.276 0.071 4.16 0.818 5.653 2.347s2.276 3.378 2.347 5.653h26.667c0.071-2.276 0.818-4.16 2.347-5.653s3.378-2.276 5.653-2.347v-10.667c-2.276-0.071-4.16-0.818-5.653-2.347s-2.276-3.378-2.347-5.653h-26.667zM8 2.667h-2.667c-0.782 0-1.422 0.249-1.92 0.747s-0.747 1.138-0.747 1.92v2.667c1.493-0.071 2.738-0.569 3.733-1.6s1.529-2.24 1.6-3.733zM2.667 24v2.667c0 0.782 0.249 1.422 0.747 1.92s1.138 0.747 1.92 0.747h2.667c-0.071-1.493-0.569-2.738-1.6-3.733s-2.24-1.529-3.733-1.6zM34.667 16c0 1.956-0.462 3.733-1.422 5.333s-2.24 2.916-3.911 3.911c-1.671 0.96-3.449 1.422-5.333 1.422s-3.662-0.462-5.333-1.422c-1.671-0.996-2.987-2.311-3.911-3.911s-1.422-3.378-1.422-5.333c0-1.956 0.462-3.733 1.422-5.333s2.24-2.916 3.911-3.911c1.671-0.96 3.449-1.422 5.333-1.422s3.662 0.462 5.333 1.422c1.671 0.996 2.987 2.311 3.911 3.911s1.422 3.378 1.422 5.333zM16 16c0 1.458 0.356 2.773 1.067 3.982s1.707 2.204 2.916 2.916c1.28 0.711 2.596 1.067 3.982 1.067s2.738-0.356 3.982-1.067c1.209-0.711 2.204-1.707 2.916-2.916s1.067-2.56 1.067-3.982c0-1.422-0.356-2.773-1.067-3.982s-1.707-2.204-2.916-2.916c-1.28-0.711-2.596-1.067-3.982-1.067s-2.738 0.356-3.982 1.067c-1.209 0.711-2.204 1.707-2.916 2.916s-1.067 2.56-1.067 3.982zM21.333 12.018c0.071-0.818 0.498-1.28 1.351-1.351h1.351c0.818 0.071 1.28 0.498 1.351 1.351v6.684h0.676c0.818 0.071 1.28 0.498 1.351 1.351-0.071 0.818-0.498 1.28-1.351 1.351h-3.982c-0.818-0.071-1.28-0.498-1.351-1.351 0.071-0.818 0.498-1.28 1.351-1.351h0.676v-5.333c-0.818-0.071-1.28-0.498-1.351-1.351h-0.071zM42.667 2.702h-2.667c0.071 1.493 0.569 2.738 1.6 3.733s2.24 1.529 3.733 1.6v-2.667c0-0.782-0.249-1.422-0.747-1.92s-1.138-0.747-1.92-0.747zM40 29.369h2.667c0.782 0 1.422-0.249 1.92-0.747s0.747-1.138 0.747-1.92v-2.667c-1.493 0.071-2.738 0.569-3.733 1.6s-1.529 2.24-1.6 3.733z"></path>
        </symbol>
        <symbol id="icon-cart" viewBox="0 0 40 32">
            <path d="M1.034 0h3.976c0.822 0.053 1.537 0.319 2.12 0.879 0.53 0.586 0.822 1.278 0.875 2.13v19.967c0.053 0.612 0.371 0.958 1.007 1.012h29.818c0.61 0.053 0.954 0.373 1.007 1.012-0.053 0.612-0.371 0.958-1.007 1.012h-3.552c0.371 0.586 0.557 1.251 0.557 1.997-0.053 1.118-0.424 2.050-1.193 2.795s-1.67 1.145-2.783 1.198c-1.113-0.053-2.041-0.426-2.783-1.198s-1.14-1.677-1.193-2.795c0-0.745 0.186-1.411 0.557-1.997h-11.052c0.371 0.586 0.557 1.251 0.557 1.997-0.053 1.118-0.424 2.050-1.193 2.795s-1.67 1.145-2.783 1.198c-1.113-0.053-2.041-0.426-2.783-1.198s-1.14-1.677-1.193-2.795c0-0.745 0.186-1.411 0.557-1.997h-1.564c-0.822-0.053-1.537-0.319-2.12-0.879-0.53-0.586-0.822-1.278-0.875-2.13v-19.967c-0.053-0.612-0.371-0.958-1.007-1.012h-3.976c-0.61-0.053-0.954-0.373-1.007-1.012 0.053-0.612 0.371-0.958 1.007-1.012h0.026zM11.954 3.993c0-0.586 0.186-1.065 0.557-1.438s0.848-0.559 1.431-0.559h7.951c0.583 0 1.060 0.186 1.431 0.559s0.557 0.852 0.557 1.438v13.977c0 0.586-0.186 1.065-0.557 1.438s-0.848 0.559-1.431 0.559h-7.951c-0.583 0-1.060-0.186-1.431-0.559s-0.557-0.852-0.557-1.438v-13.977zM13.942 29.95c0.583 0 1.060-0.186 1.431-0.559s0.557-0.852 0.557-1.438c0-0.586-0.186-1.065-0.557-1.438s-0.848-0.559-1.431-0.559c-0.583 0-1.060 0.186-1.431 0.559s-0.557 0.852-0.557 1.438c0 0.586 0.186 1.065 0.557 1.438s0.848 0.559 1.431 0.559zM13.942 3.993v13.977h7.951v-13.977h-7.951zM27.857 1.997h3.976c0.583 0 1.060 0.186 1.431 0.559s0.557 0.852 0.557 1.438v3.993c0 0.586-0.186 1.065-0.557 1.438s-0.848 0.559-1.431 0.559h-3.976c-0.583 0-1.060-0.186-1.431-0.559s-0.557-0.852-0.557-1.438v-3.993c0-0.586 0.185-1.065 0.557-1.438s0.848-0.559 1.431-0.559zM25.869 13.977c0-0.586 0.185-1.065 0.557-1.438s0.848-0.559 1.431-0.559h7.951c0.583 0 1.060 0.186 1.431 0.559s0.557 0.852 0.557 1.438v3.993c0 0.586-0.186 1.065-0.557 1.438s-0.848 0.559-1.431 0.559h-7.951c-0.583 0-1.060-0.186-1.431-0.559s-0.557-0.852-0.557-1.438v-3.993zM31.832 3.993h-3.976v3.993h3.976v-3.993zM27.857 13.977v3.993h7.951v-3.993h-7.951zM33.82 27.953c0-0.586-0.186-1.065-0.557-1.438s-0.848-0.559-1.431-0.559c-0.583 0-1.060 0.186-1.431 0.559s-0.557 0.852-0.557 1.438c0 0.586 0.186 1.065 0.557 1.438s0.848 0.559 1.431 0.559c0.583 0 1.060-0.186 1.431-0.559s0.557-0.852 0.557-1.438z"></path>
        </symbol>
        <symbol id="icon-clock" viewBox="0 0 32 32">
            <path d="M2.133 8c1.413-2.427 3.387-4.373 5.867-5.867 2.533-1.413 5.2-2.133 8-2.133s5.467 0.72 8 2.133c2.507 1.493 4.453 3.467 5.867 5.867 1.387 2.427 2.080 5.093 2.133 8-0.053 2.907-0.747 5.573-2.133 8-1.413 2.427-3.387 4.373-5.867 5.867-2.533 1.413-5.2 2.133-8 2.133s-5.467-0.72-8-2.133c-2.507-1.493-4.453-3.467-5.867-5.867-1.387-2.427-2.080-5.093-2.133-8 0.053-2.907 0.747-5.573 2.133-8zM28.133 9.013c-1.253-2.133-2.96-3.84-5.12-5.12-2.213-1.253-4.533-1.867-6.987-1.867s-4.8 0.613-6.987 1.867c-2.16 1.28-3.867 2.987-5.12 5.12-1.2 2.133-1.84 4.453-1.867 6.987 0.053 2.533 0.667 4.88 1.867 6.987 1.253 2.133 2.96 3.84 5.12 5.12 2.213 1.253 4.533 1.867 6.987 1.867s4.8-0.613 6.987-1.867c2.16-1.28 3.867-2.987 5.12-5.12 1.2-2.133 1.84-4.453 1.867-6.987-0.053-2.533-0.667-4.88-1.867-6.987zM17.013 15.707l3.813 5.76c0.293 0.533 0.213 1.013-0.24 1.387-0.533 0.293-1.013 0.213-1.387-0.24l-4-6c-0.133-0.16-0.187-0.347-0.187-0.56v-9.013c0.053-0.613 0.373-0.96 1.013-1.013 0.613 0.053 0.96 0.373 1.013 1.013v8.693l-0.027-0.027z"></path>
        </symbol>
        <symbol id="icon-copy" viewBox="0 0 26 32">
            <path d="M3.725 8h3.725v2h-3.725c-0.546 0-0.993 0.187-1.341 0.56s-0.521 0.853-0.521 1.44v16c0 0.587 0.174 1.067 0.521 1.44s0.795 0.56 1.341 0.56h9.312c0.546 0 0.993-0.187 1.341-0.56s0.521-0.853 0.521-1.44v-2h1.863v2c-0.050 1.12-0.397 2.053-1.117 2.8s-1.564 1.147-2.607 1.2h-9.312c-1.043-0.053-1.912-0.427-2.607-1.2s-1.068-1.68-1.117-2.8v-16c0.050-1.12 0.397-2.053 1.117-2.8s1.564-1.147 2.607-1.2zM25.255 5.12c0.546 0.587 0.819 1.28 0.819 2.133v12.747c-0.050 1.12-0.397 2.053-1.117 2.8s-1.564 1.147-2.607 1.2h-9.312c-1.043-0.053-1.912-0.427-2.607-1.2s-1.068-1.68-1.117-2.8v-16c0.050-1.12 0.397-2.053 1.117-2.8s1.564-1.147 2.607-1.2h6.283c0.77 0 1.44 0.293 1.986 0.88l3.948 4.24zM22.349 22c0.546 0 0.993-0.187 1.341-0.56s0.521-0.853 0.521-1.44v-12.747c0-0.293-0.099-0.533-0.298-0.693l-3.948-4.24c-0.149-0.213-0.372-0.32-0.646-0.32h-6.283c-0.546 0-0.993 0.187-1.341 0.56s-0.521 0.853-0.521 1.44v16c0 0.587 0.174 1.067 0.521 1.44s0.795 0.56 1.341 0.56h9.312z"></path>
        </symbol>
        <symbol id="icon-envelope" viewBox="0 0 32 32">
            <path d="M28.648 2.712l2.987 6.705c0.244 0.579 0.366 1.189 0.366 1.859v16.152c-0.061 1.28-0.488 2.347-1.371 3.2s-1.92 1.311-3.2 1.371h-22.857c-1.28-0.061-2.347-0.488-3.2-1.371s-1.31-1.92-1.371-3.2v-16.152c0-0.67 0.152-1.28 0.427-1.859l2.926-6.705c0.853-1.707 2.255-2.621 4.206-2.712h16.853c1.95 0.091 3.352 1.006 4.206 2.712h0.030zM17.158 11.429h-14.872v16c0 0.671 0.213 1.219 0.64 1.646s0.975 0.64 1.646 0.64h22.857c0.671 0 1.219-0.213 1.646-0.64s0.64-0.975 0.64-1.646v-16h-12.556zM14.872 9.143v-6.857h-7.284c-1.006 0.061-1.707 0.488-2.133 1.371l-2.438 5.486h11.855zM23.649 15.634l-9.143 9.143c-0.518 0.488-1.036 0.488-1.585 0l-4.571-4.571c-0.488-0.518-0.488-1.036 0-1.585 0.518-0.488 1.036-0.488 1.585 0l3.779 3.718 8.351-8.29c0.518-0.488 1.036-0.488 1.585 0 0.488 0.518 0.488 1.036 0 1.585zM17.158 2.286v6.857h11.855l-2.438-5.486c-0.427-0.853-1.158-1.31-2.133-1.371h-7.284z"></path>
        </symbol>
        <symbol id="icon-loading-reports" viewBox="0 0 33 32">
            <path d="M8.015 13.472l-5.704 9.414c-0.171 0.303-0.26 0.626-0.26 0.97 0 0.557 0.192 1.011 0.574 1.355 0.342 0.385 0.766 0.578 1.286 0.578h5.321c0.643 0.041 0.985 0.385 1.026 1.032-0.041 0.646-0.383 0.99-1.026 1.032h-5.321c-1.115-0.041-2.031-0.426-2.756-1.162-0.766-0.77-1.156-1.719-1.156-2.833 0-0.729 0.192-1.396 0.574-2.001l5.895-9.8-3.591 1.224c-0.602 0.131-1.026-0.11-1.286-0.708-0.171-0.605 0.041-1.032 0.643-1.293l5.834-1.932c0.301-0.083 0.574-0.062 0.834 0.062 0.26 0.172 0.424 0.406 0.513 0.708l1.217 6.059c0.082 0.646-0.171 1.052-0.766 1.224-0.602 0.089-1.005-0.172-1.217-0.77l-0.643-3.156h0.007zM16.414 0c1.71 0.041 3.036 0.798 3.973 2.256l4.999 8.252 0.704-3.48c0.171-0.605 0.574-0.88 1.217-0.839 0.595 0.213 0.855 0.626 0.766 1.224l-1.217 6.127c-0.041 0.303-0.212 0.516-0.513 0.646-0.26 0.172-0.533 0.213-0.834 0.131l-5.834-2.001c-0.554-0.261-0.766-0.688-0.643-1.293 0.26-0.557 0.684-0.77 1.286-0.646l3.269 1.093-4.938-8.122c-0.513-0.818-1.258-1.245-2.243-1.293-0.985 0.041-1.73 0.474-2.243 1.293l-1.99 3.287c-0.383 0.516-0.855 0.626-1.409 0.323-0.513-0.385-0.622-0.86-0.321-1.417l1.99-3.287c0.937-1.458 2.264-2.214 3.973-2.256h0.007zM29.298 16.958l2.948 4.896c0.383 0.605 0.575 1.265 0.575 2.001 0 1.121-0.383 2.063-1.156 2.833-0.725 0.729-1.648 1.121-2.756 1.162h-11.859l2.626 2.324c0.424 0.474 0.451 0.97 0.062 1.485-0.472 0.426-0.964 0.454-1.477 0.062l-4.616-4.126c-0.212-0.213-0.321-0.474-0.321-0.77s0.103-0.557 0.321-0.77l4.616-4.126c0.513-0.385 1.005-0.364 1.477 0.062 0.383 0.516 0.363 1.011-0.062 1.485l-2.626 2.324h11.859c0.513 0 0.964-0.193 1.347-0.578 0.342-0.344 0.513-0.798 0.513-1.355 0-0.344-0.089-0.667-0.26-0.97l-2.948-4.834c-0.301-0.605-0.192-1.073 0.321-1.417 0.554-0.303 1.026-0.193 1.409 0.323l0.007-0.014z"></path>
        </symbol>
        <symbol id="icon-mix-lines" viewBox="0 0 39 32">
            <path d="M29.916 31.634c-0.493-0.519-0.493-1.037 0-1.586l3.761-3.783h-8.169c-1.541-0.061-2.774-0.671-3.699-1.861l-12.145-16.015c-0.247-0.275-0.555-0.427-0.925-0.427h-6.936c-0.709-0.061-1.11-0.427-1.171-1.159 0.062-0.702 0.432-1.098 1.171-1.159h6.936c1.171 0.061 2.065 0.488 2.743 1.373l12.145 16.015c0.493 0.61 1.11 0.915 1.88 0.915h8.169l-3.761-3.783c-0.493-0.519-0.493-1.037 0-1.586 0.524-0.488 1.048-0.488 1.603 0l5.795 5.735c0.493 0.519 0.493 1.037 0 1.586l-5.795 5.735c-0.524 0.488-1.048 0.488-1.603 0zM9.694 23.489l4.254-5.582 1.449 1.861-3.915 5.155c-0.678 0.854-1.603 1.312-2.743 1.373h-6.936c-0.709-0.061-1.11-0.427-1.171-1.159 0.062-0.702 0.432-1.098 1.171-1.159h6.936c0.37 0 0.709-0.152 0.925-0.427v-0.061h0.031zM31.519 0.336l5.795 5.735c0.493 0.519 0.493 1.037 0 1.586l-5.795 5.735c-0.524 0.488-1.048 0.488-1.603 0-0.493-0.519-0.493-1.037 0-1.586l3.761-3.783h-8.169c-0.771 0-1.387 0.305-1.88 0.915l-3.915 5.155-1.449-1.861 3.545-4.637c0.925-1.19 2.158-1.8 3.699-1.861h8.169l-3.761-3.783c-0.493-0.519-0.493-1.037 0-1.586 0.524-0.488 1.048-0.488 1.603 0v-0.030z"></path>
        </symbol>
        <symbol id="icon-people" viewBox="0 0 56 32">
            <path d="M3.174 24.021c-0.084 0.981-0.585 1.536-1.587 1.621-0.961-0.085-1.503-0.597-1.587-1.621v-1.621c0.084-1.792 0.668-3.285 1.879-4.48s2.631-1.835 4.385-1.92h8.603c0.961 0.085 1.504 0.597 1.587 1.621-0.084 0.981-0.585 1.536-1.587 1.621h-8.603c-0.919 0-1.671 0.299-2.255 0.896s-0.877 1.365-0.877 2.304v1.621l0.042-0.043zM16.789 3.2c1.128 2.133 1.128 4.267 0 6.4-1.295 2.048-3.132 3.115-5.471 3.2-2.339-0.085-4.135-1.152-5.388-3.2-1.128-2.133-1.128-4.267 0-6.4 1.253-2.048 3.049-3.115 5.388-3.2 2.339 0.085 4.176 1.152 5.471 3.2zM13.573 8.704c0.585-0.597 0.877-1.365 0.877-2.304s-0.292-1.707-0.877-2.304c-0.585-0.597-1.336-0.896-2.255-0.896-0.835 0-1.587 0.299-2.172 0.896s-0.919 1.365-0.961 2.304c0.084 0.939 0.376 1.707 0.961 2.304s1.295 0.896 2.172 0.896c0.919 0 1.671-0.299 2.255-0.896zM17.081 22.016c1.754-1.792 3.968-2.731 6.64-2.816h9.397c2.589 0.085 4.803 0.981 6.557 2.816 1.838 1.792 2.756 4.053 2.84 6.784-0.084 0.939-0.376 1.707-0.96 2.304s-1.295 0.896-2.172 0.896h-21.926c-0.919 0-1.671-0.299-2.255-0.896s-0.877-1.365-0.877-2.304c0.084-2.731 0.961-4.992 2.756-6.784zM23.722 22.4c-1.838 0.085-3.341 0.683-4.51 1.92s-1.754 2.688-1.754 4.48h21.926c-0.084-1.792-0.668-3.285-1.879-4.48s-2.631-1.835-4.385-1.92h-9.397zM35.165 4.011c1.378 2.645 1.378 5.333 0 8.021-1.587 2.603-3.8 3.925-6.766 4.011-3.007-0.085-5.304-1.408-6.849-4.011-1.378-2.645-1.378-5.333 0-8.021 1.587-2.603 3.842-3.925 6.849-4.011 2.924 0.085 5.179 1.408 6.766 4.011zM32.409 10.411c0.835-1.621 0.835-3.2 0-4.779-0.919-1.536-2.255-2.347-4.009-2.389-1.838 0.085-3.216 0.853-4.093 2.389-0.835 1.621-0.835 3.2 0 4.779 0.919 1.536 2.297 2.347 4.093 2.389 1.754-0.085 3.091-0.853 4.009-2.389zM51.202 3.2c1.128 2.133 1.128 4.267 0 6.4-1.295 2.048-3.132 3.115-5.471 3.2-2.339-0.085-4.135-1.152-5.387-3.2-1.128-2.133-1.128-4.267 0-6.4 1.253-2.048 3.049-3.115 5.387-3.2 2.339 0.085 4.176 1.152 5.471 3.2zM41.513 19.2c-0.961-0.085-1.504-0.597-1.587-1.621 0.084-0.981 0.585-1.536 1.587-1.621h8.603c1.754 0.085 3.216 0.683 4.385 1.92s1.796 2.688 1.879 4.48v1.621c-0.084 0.981-0.585 1.536-1.587 1.621-0.96-0.085-1.503-0.597-1.587-1.621v-1.621c0-0.939-0.292-1.707-0.877-2.304s-1.336-0.896-2.255-0.896h-8.603l0.042 0.043zM47.986 8.704c0.585-0.597 0.877-1.365 0.877-2.304s-0.292-1.707-0.877-2.304c-0.585-0.597-1.336-0.896-2.255-0.896-0.835 0-1.587 0.299-2.172 0.896s-0.919 1.365-0.96 2.304c0.084 0.939 0.376 1.707 0.96 2.304s1.295 0.896 2.172 0.896c0.919 0 1.671-0.299 2.255-0.896z"></path>
        </symbol>
        <symbol id="icon-pintle" viewBox="0 0 20 32">
            <path d="M18.577 18.005c0.378 0 0.697 0.144 0.962 0.436s0.396 0.644 0.396 1.061v5.002c0 0.416-0.13 0.773-0.396 1.061s-0.584 0.436-0.962 0.436h-2.265l-4.135 5.468c-0.112 0.169-0.265 0.297-0.454 0.392s-0.378 0.139-0.566 0.139h-2.351c-0.207 0-0.405-0.045-0.593-0.139s-0.342-0.223-0.454-0.392l-4.135-5.468h-2.265c-0.378 0-0.701-0.144-0.962-0.436-0.265-0.293-0.396-0.645-0.396-1.061v-5.002c0-0.416 0.13-0.768 0.396-1.061s0.584-0.436 0.962-0.436h4.081v-2.092l-1.106 0.218c-0.13 0.020-0.252-0.010-0.355-0.094s-0.166-0.188-0.184-0.312l-0.144-1.001c-0.036-0.124-0.018-0.243 0.058-0.357s0.18-0.183 0.31-0.203l1.416-0.283v-2.469l-1.106 0.218c-0.13 0.020-0.252-0.010-0.355-0.094s-0.166-0.188-0.184-0.312l-0.144-1.001c-0.036-0.124-0.018-0.243 0.058-0.357s0.18-0.183 0.31-0.203l1.416-0.283v-2.469l-1.106 0.218c-0.13 0.020-0.252-0.010-0.355-0.094s-0.166-0.188-0.184-0.312l-0.144-1.001c-0.036-0.124-0.018-0.243 0.058-0.362 0.076-0.114 0.18-0.183 0.31-0.203l1.416-0.283v-3.376c0-0.416 0.13-0.768 0.396-1.061s0.584-0.436 0.962-0.436h6.347c0.378 0 0.697 0.144 0.962 0.436s0.396 0.644 0.396 1.061v1.596l1.106-0.218c0.13-0.020 0.252 0.010 0.355 0.094s0.166 0.188 0.184 0.312l0.139 1.001c0.036 0.124 0.018 0.243-0.058 0.362-0.076 0.114-0.18 0.183-0.31 0.203l-1.416 0.283v2.469l1.106-0.218c0.13-0.020 0.252 0.010 0.355 0.094s0.166 0.188 0.184 0.312l0.139 1.001c0.036 0.124 0.018 0.243-0.058 0.362-0.076 0.114-0.18 0.183-0.31 0.203l-1.416 0.283v2.469l1.106-0.218c0.13-0.020 0.252 0.010 0.355 0.094s0.166 0.188 0.184 0.312l0.139 1.001c0.036 0.124 0.018 0.243-0.058 0.362-0.076 0.114-0.18 0.183-0.31 0.203l-1.416 0.283v3.877h4.081l0.009-0.015zM4.522 24.004v-4.001h-2.719v4.001h2.719zM13.902 26.002h-7.879l3.034 4.001h1.811l3.034-4.001zM6.338 24.004h7.255v-4.001h-7.255v4.001zM7.246 4.501l5.439-1.031v-1.467h-5.439v2.499zM7.246 9.003l5.439-1.031v-2.469l-5.439 1.031v2.469zM7.246 13.504l5.439-1.031v-2.469l-5.439 1.031v2.469zM7.246 15.536v2.469h5.439v-3.5l-5.439 1.031zM18.128 20.008h-2.719v4.001h2.719v-4.001z"></path>
        </symbol>
        <symbol id="icon-privat" viewBox="0 0 32 32">
            <path d="M0 31.954h12.496v-12.496h-12.496v12.496z"></path>
            <path d="M25.365 6.606c0 4.249 0 14.497 0 18.746-1.187 0-1.396 0-2.549 0-1.101-9.271-6.926-15.094-16.198-16.195 0-1.153 0-1.362 0-2.551 4.249 0 14.498 0 18.747 0zM0.011 0v15.553h3.304c8.695 0 13.104 4.408 13.104 13.101v3.304h15.552v-31.958h-31.96z"></path>
        </symbol>
        <symbol id="icon-settings" viewBox="0 0 29 32">
            <path d="M14.533 0c0.802 0 1.577 0.053 2.301 0.186 0.129 0 0.233 0.053 0.31 0.133 0.595 0.293 1.009 0.799 1.215 1.492l0.853 2.984c0 0 0.155 0.24 0.362 0.373 0.517 0.24 1.060 0.56 1.577 0.933 0.155 0.080 0.31 0.133 0.491 0.133l2.896-0.746c0.698-0.16 1.319-0.053 1.888 0.32 0.078 0.053 0.155 0.107 0.233 0.186 0.44 0.533 0.853 1.119 1.215 1.759l0.233 0.506c0.31 0.613 0.595 1.279 0.853 1.945 0.052 0.080 0.078 0.187 0.129 0.32 0 0.719-0.233 1.332-0.724 1.865l-2.069 2.185c0 0-0.181 0.293-0.181 0.506 0.052 0.293 0.052 0.613 0.052 0.933s0 0.639-0.052 0.933c0 0.213 0.052 0.373 0.181 0.506l2.069 2.238c0.491 0.506 0.724 1.092 0.724 1.812-0.052 0.133-0.078 0.24-0.129 0.32-0.233 0.666-0.517 1.306-0.853 1.945l-0.233 0.506h-0.052c-0.31 0.613-0.698 1.199-1.164 1.759-0.078 0.080-0.155 0.133-0.233 0.187-0.569 0.373-1.189 0.506-1.888 0.373l-2.896-0.746c-0.155-0.053-0.31 0-0.491 0.053-0.517 0.373-1.060 0.693-1.577 0.933-0.207 0.133-0.31 0.24-0.362 0.373l-0.853 2.984c-0.207 0.719-0.595 1.226-1.215 1.572-0.078 0.053-0.181 0.053-0.31 0.053-0.724 0.133-1.5 0.186-2.301 0.186s-1.577-0.053-2.301-0.186c-0.129 0-0.233 0-0.31-0.053-0.595-0.32-1.008-0.853-1.215-1.572l-0.853-2.984c0 0-0.155-0.24-0.362-0.373-0.517-0.24-1.060-0.559-1.577-0.933-0.155-0.080-0.31-0.107-0.491-0.053l-2.896 0.746c-0.698 0.133-1.319 0-1.888-0.32l-0.233-0.24c-0.44-0.533-0.827-1.119-1.164-1.759h-0.052l-0.233-0.506c-0.31-0.613-0.595-1.279-0.853-1.945-0.052-0.080-0.052-0.186-0.052-0.32-0.052-0.666 0.181-1.279 0.672-1.812l2.069-2.238c0 0 0.181-0.293 0.181-0.506-0.052-0.293-0.052-0.613-0.052-0.933v-0.426c0-0.16 0-0.32 0.052-0.506 0-0.213-0.052-0.373-0.181-0.506l-2.069-2.185c-0.491-0.533-0.724-1.172-0.724-1.865 0.052-0.133 0.078-0.24 0.129-0.32 0.233-0.666 0.517-1.306 0.853-1.945l0.233-0.506h0.052c0.31-0.613 0.698-1.199 1.164-1.759 0.078-0.080 0.155-0.133 0.233-0.186 0.569-0.373 1.189-0.48 1.888-0.32l2.896 0.746c0.155 0 0.31-0.053 0.491-0.133 0.517-0.373 1.060-0.693 1.577-0.933 0.207-0.133 0.31-0.24 0.362-0.373l0.853-2.984c0.207-0.719 0.595-1.199 1.215-1.492 0.078-0.080 0.181-0.133 0.31-0.133 0.724-0.133 1.5-0.186 2.301-0.186h-0.026zM12.541 2.371l-0.776 2.931c-0.233 0.799-0.698 1.359-1.396 1.679-0.44 0.213-0.879 0.453-1.267 0.746-0.595 0.426-1.293 0.56-2.069 0.426l-2.974-0.746c0 0-0.155-0.053-0.233 0-0.31 0.426-0.621 0.879-0.905 1.386l-0.233 0.426c-0.233 0.453-0.465 0.933-0.672 1.439 0 0.080 0.052 0.16 0.129 0.24l2.069 2.238c0.517 0.586 0.776 1.279 0.724 2.052-0.052 0.24-0.052 0.506-0.052 0.746s0 0.533 0.052 0.799c0.052 0.746-0.207 1.412-0.724 1.998l-2.069 2.238c0 0-0.129 0.133-0.181 0.24 0.207 0.506 0.44 0.986 0.724 1.439l0.233 0.426c0.284 0.506 0.595 0.959 0.905 1.386 0.078 0.053 0.155 0.053 0.233 0l2.896-0.746c0.802-0.133 1.5 0 2.069 0.426 0.44 0.293 0.879 0.533 1.345 0.746 0.646 0.32 1.112 0.906 1.396 1.679l0.776 2.931c0 0 0.103 0.16 0.181 0.24 0.595 0.080 1.215 0.133 1.81 0.133s1.215-0.053 1.81-0.133c0.078-0.080 0.129-0.16 0.181-0.24l0.776-2.931c0.233-0.799 0.698-1.359 1.396-1.679 0.44-0.213 0.879-0.453 1.345-0.746 0.595-0.426 1.267-0.56 1.991-0.426l2.974 0.746c0 0 0.155 0.053 0.233 0 0.31-0.426 0.621-0.879 0.905-1.386l0.233-0.426c0.233-0.453 0.465-0.933 0.672-1.439 0-0.133-0.052-0.213-0.129-0.24l-2.069-2.238c-0.517-0.586-0.75-1.252-0.672-1.998v-1.572c-0.078-0.799 0.129-1.466 0.672-2.052l2.069-2.238c0 0 0.129-0.133 0.181-0.24-0.207-0.506-0.44-0.986-0.724-1.439l-0.233-0.426c-0.284-0.506-0.595-0.959-0.905-1.386-0.078-0.053-0.155-0.053-0.233 0l-2.896 0.746c-0.802 0.133-1.5 0-2.069-0.426-0.44-0.293-0.879-0.533-1.345-0.746-0.646-0.32-1.112-0.879-1.396-1.625l-0.776-2.984c0 0-0.103-0.16-0.181-0.24-0.595-0.080-1.215-0.133-1.81-0.133s-1.215 0.053-1.81 0.133c-0.078 0.080-0.129 0.16-0.181 0.24v0.027zM19.885 15.987c-0.078 2.078-0.983 3.677-2.663 4.743-1.784 1.012-3.569 1.012-5.327 0-1.707-1.092-2.586-2.664-2.663-4.743 0.078-2.078 0.983-3.677 2.663-4.743 1.784-1.012 3.569-1.012 5.327 0 1.707 1.092 2.586 2.664 2.663 4.743zM11.145 15.987c0.052 1.332 0.595 2.345 1.707 2.984 1.138 0.666 2.276 0.666 3.388 0 1.086-0.666 1.655-1.652 1.707-2.984-0.052-1.332-0.595-2.345-1.707-2.984-1.138-0.666-2.276-0.666-3.388 0-1.086 0.666-1.655 1.652-1.707 2.984z"></path>
        </symbol>
        <symbol id="icon-twoperson" viewBox="0 0 40 32">
            <path d="M11.155 19.013h5.792c3.137 0.080 5.792 1.173 7.911 3.253 2.092 2.133 3.191 4.747 3.272 7.867 0 0.533-0.188 0.987-0.563 1.307-0.322 0.373-0.778 0.56-1.314 0.56h-24.376c-0.536 0-0.992-0.187-1.314-0.56-0.375-0.32-0.563-0.773-0.563-1.307 0.080-3.12 1.18-5.76 3.272-7.867 2.145-2.080 4.773-3.173 7.911-3.253h-0.027zM16.948 21.013h-5.792c-2.547 0.080-4.693 0.96-6.409 2.613-1.77 1.707-2.682 3.84-2.762 6.373h24.134c-0.080-2.533-1.019-4.667-2.762-6.373-1.716-1.653-3.861-2.533-6.409-2.613zM14.052 16c-1.475 0-2.816-0.347-4.022-1.067s-2.199-1.68-2.95-2.933c-0.724-1.253-1.073-2.587-1.073-4s0.349-2.747 1.073-4c0.751-1.253 1.743-2.24 2.95-2.933s2.548-1.067 4.022-1.067 2.816 0.347 4.022 1.067c1.207 0.72 2.199 1.68 2.95 2.933 0.724 1.253 1.073 2.587 1.073 4s-0.349 2.747-1.073 4c-0.751 1.253-1.743 2.24-2.95 2.933s-2.548 1.067-4.022 1.067zM8.018 8c0 1.093 0.268 2.080 0.804 2.987s1.287 1.653 2.199 2.187c0.965 0.533 1.958 0.8 3.003 0.8s2.065-0.267 3.003-0.8c0.912-0.533 1.663-1.28 2.199-2.187s0.804-1.92 0.804-2.987-0.268-2.080-0.804-2.987c-0.536-0.907-1.287-1.653-2.199-2.187-0.965-0.533-1.957-0.8-3.003-0.8s-2.065 0.267-3.003 0.8c-0.912 0.533-1.663 1.28-2.199 2.187s-0.804 1.92-0.804 2.987zM27.111 16c-2.011-0.053-3.674-0.72-4.961-2.053 0.429-0.533 0.778-1.147 1.073-1.813 0.965 1.2 2.252 1.84 3.888 1.867 1.421-0.053 2.628-0.533 3.593-1.44 0.912-0.96 1.394-2.133 1.448-3.573-0.054-1.413-0.536-2.613-1.448-3.573-0.965-0.907-2.145-1.387-3.593-1.44-1.341 0.053-2.467 0.48-3.406 1.307-0.215-0.72-0.456-1.36-0.751-1.947 1.18-0.88 2.547-1.333 4.156-1.387 2.011 0.053 3.674 0.72 4.961 2.053 1.341 1.28 2.038 2.933 2.065 4.933-0.054 2-0.724 3.653-2.065 4.933-1.287 1.333-2.95 2.027-4.961 2.053v0.080zM38.239 32h-8.608c0.322-0.533 0.509-1.173 0.509-1.867v-0.133h8.045c-0.080-2.24-0.885-4.133-2.387-5.68-1.555-1.493-3.459-2.267-5.712-2.32h-2.762c-0.59-0.72-1.234-1.36-1.958-1.947 0.295-0.053 0.563-0.053 0.805-0.053h3.888c2.843 0.080 5.229 1.067 7.16 2.933 1.877 1.92 2.869 4.293 2.95 7.12 0 0.533-0.188 1.013-0.563 1.387s-0.831 0.56-1.394 0.56h0.027z"></path>
        </symbol>
        <symbol id="icon-discord" viewBox="0 0 32 32">
            <path d="M27.089 5.827c-2.040-0.936-4.227-1.625-6.513-2.020-0.041-0.008-0.083 0.012-0.105 0.049-0.281 0.5-0.593 1.153-0.811 1.665-2.46-0.368-4.907-0.368-7.316 0-0.217-0.524-0.541-1.165-0.823-1.665-0.023-0.037-0.064-0.056-0.105-0.049-2.285 0.393-4.472 1.083-6.513 2.020-0.017 0.007-0.033 0.020-0.043 0.036-4.148 6.197-5.285 12.243-4.728 18.213 0.003 0.029 0.019 0.057 0.041 0.075 2.737 2.011 5.388 3.231 7.991 4.039 0.041 0.013 0.085-0.003 0.112-0.037 0.616-0.84 1.164-1.727 1.635-2.659 0.028-0.055 0.001-0.12-0.056-0.141-0.871-0.331-1.699-0.733-2.496-1.189-0.063-0.037-0.068-0.127-0.011-0.171 0.168-0.125 0.336-0.256 0.496-0.388 0.029-0.024 0.069-0.029 0.104-0.013 5.237 2.391 10.907 2.391 16.081 0 0.035-0.016 0.075-0.012 0.105 0.013 0.16 0.132 0.328 0.264 0.497 0.389 0.059 0.043 0.055 0.133-0.009 0.171-0.797 0.465-1.625 0.86-2.497 1.188-0.057 0.021-0.081 0.088-0.055 0.143 0.48 0.931 1.029 1.817 1.633 2.657 0.025 0.036 0.071 0.051 0.112 0.039 2.615-0.809 5.267-2.029 8.003-4.039 0.024-0.017 0.039-0.044 0.041-0.073 0.667-6.903-1.117-12.899-4.731-18.213-0.007-0.019-0.023-0.032-0.040-0.039zM10.693 20.441c-1.577 0-2.876-1.448-2.876-3.225s1.273-3.225 2.876-3.225c1.615 0 2.901 1.46 2.876 3.225 0 1.779-1.275 3.225-2.876 3.225zM21.327 20.441c-1.576 0-2.876-1.448-2.876-3.225s1.273-3.225 2.876-3.225c1.615 0 2.901 1.46 2.876 3.225 0 1.779-1.261 3.225-2.876 3.225z"></path>
        </symbol>
        <symbol id="icon-facebook" viewBox="0 0 32 32">
            <path d="M32 16.097c0 7.985-5.859 14.605-13.507 15.807v-11.151h3.719l0.708-4.613h-4.427v-2.993c0-1.263 0.619-2.492 2.6-2.492h2.012v-3.928c0 0-1.827-0.312-3.572-0.312-3.645 0-6.027 2.209-6.027 6.208v3.516h-4.052v4.613h4.052v11.151c-7.647-1.203-13.507-7.821-13.507-15.805 0-8.836 7.164-16 16-16s16 7.163 16 16z"></path>
        </symbol>
        <symbol id="icon-moon" viewBox="0 0 32 32">
            <path d="M20.644 0.943c0.092 0.578-0.092 1.004-0.581 1.278-1.897 1.095-3.458 2.586-4.651 4.502-1.163 1.886-1.714 4.046-1.714 6.418 0.092 3.559 1.316 6.509 3.672 8.852s5.355 3.62 8.905 3.711c0.765 0 1.469-0.061 2.142-0.213 0.581-0.061 0.979 0.152 1.224 0.639s0.153 0.913-0.214 1.369c-2.968 2.89-6.671 4.411-11.108 4.502-2.999-0.061-5.723-0.791-8.109-2.221-2.448-1.369-4.345-3.285-5.753-5.719-1.438-2.373-2.173-5.049-2.234-8.061 0.061-2.981 0.765-5.688 2.142-8.061 1.438-2.433 3.366-4.319 5.814-5.719 2.387-1.43 5.080-2.16 8.018-2.221 0.49 0 0.918 0 1.377 0.061 0.581 0.061 0.918 0.335 1.071 0.852v0.030zM15.901 2.525c-3.305 0.608-5.998 2.16-8.109 4.624-2.142 2.433-3.244 5.384-3.305 8.852 0.092 3.894 1.438 7.118 4.009 9.703s5.845 3.894 9.762 3.985c2.448-0.061 4.682-0.639 6.732-1.795-3.917-0.365-7.161-1.947-9.67-4.715-2.54-2.707-3.856-6.053-3.948-10.038 0-2.099 0.398-4.046 1.224-5.84 0.765-1.856 1.867-3.437 3.305-4.776z"></path>
        </symbol>
        <symbol id="icon-sun" viewBox="0 0 32 32">
            <path d="M23.191 0.845l1.252 6.739 6.738 1.252c0.32 0.080 0.586 0.293 0.746 0.613 0.133 0.293 0.080 0.613-0.133 0.932l-3.862 5.62 3.862 5.62c0.213 0.32 0.24 0.666 0.133 1.012-0.16 0.293-0.426 0.479-0.746 0.559l-6.739 1.252-1.252 6.738c-0.080 0.32-0.266 0.586-0.559 0.746-0.32 0.133-0.666 0.080-1.012-0.133l-5.62-3.862-5.62 3.862c-0.32 0.213-0.666 0.24-1.012 0.133-0.293-0.16-0.479-0.426-0.559-0.746l-1.252-6.739-6.739-1.252c-0.32-0.080-0.586-0.266-0.746-0.559-0.133-0.32-0.080-0.666 0.133-1.012l3.862-5.62-3.862-5.62c-0.213-0.32-0.24-0.666-0.133-1.012 0.16-0.293 0.426-0.479 0.746-0.559l6.739-1.252 1.252-6.739c0.080-0.32 0.293-0.586 0.613-0.746 0.293-0.133 0.613-0.080 0.932 0.133l5.62 3.862 5.62-3.862c0.32-0.213 0.666-0.24 1.012-0.133 0.293 0.16 0.479 0.426 0.559 0.746l0.027 0.027zM16.586 6.145c-0.373 0.213-0.746 0.213-1.119 0l-4.927-3.436-1.065 5.939c-0.133 0.426-0.4 0.666-0.799 0.746l-5.939 1.119 3.436 4.927c0.213 0.373 0.213 0.746 0 1.119l-3.436 4.927 5.939 1.119c0.426 0.080 0.666 0.346 0.746 0.799l1.119 5.86 4.927-3.383c0.373-0.24 0.746-0.24 1.119 0l4.927 3.383 1.119-5.86c0.080-0.453 0.32-0.719 0.746-0.799l5.939-1.119-3.436-4.927c-0.213-0.373-0.213-0.746 0-1.119l3.436-4.927-5.939-1.065c-0.426-0.133-0.666-0.4-0.746-0.799l-1.119-5.939-4.927 3.436zM16.027 23.99c-1.465 0-2.797-0.346-3.995-1.065s-2.184-1.678-2.93-2.93c-0.719-1.252-1.065-2.584-1.065-3.995s0.346-2.743 1.065-3.995c0.746-1.252 1.731-2.237 2.93-2.93s2.53-1.065 3.995-1.065 2.797 0.346 3.995 1.065c1.199 0.719 2.184 1.678 2.93 2.93 0.719 1.252 1.065 2.584 1.065 3.995s-0.346 2.743-1.065 3.995c-0.746 1.252-1.731 2.237-2.93 2.93s-2.53 1.065-3.995 1.065zM10.034 16c0 1.092 0.266 2.078 0.799 2.983s1.278 1.651 2.184 2.184c0.959 0.533 1.944 0.799 2.983 0.799s2.051-0.266 2.983-0.799c0.906-0.533 1.651-1.278 2.184-2.184s0.799-1.918 0.799-2.983-0.266-2.078-0.799-2.983c-0.533-0.906-1.278-1.651-2.184-2.184-0.959-0.533-1.944-0.799-2.983-0.799s-2.051 0.266-2.983 0.799c-0.906 0.533-1.651 1.278-2.184 2.184s-0.799 1.918-0.799 2.983z"></path>
        </symbol>
        <symbol id="icon-telegram" viewBox="0 0 32 32">
            <path d="M16 0c-8.836 0-16 7.164-16 16s7.164 16 16 16 16-7.164 16-16-7.164-16-16-16zM23.416 10.881c-0.24 2.529-1.283 8.669-1.812 11.503-0.224 1.2-0.667 1.601-1.093 1.64-0.929 0.085-1.635-0.615-2.535-1.204-1.408-0.923-2.204-1.497-3.571-2.399-1.58-1.041-0.556-1.613 0.344-2.548 0.236-0.245 4.329-3.969 4.409-4.307 0.009-0.043 0.020-0.2-0.075-0.283s-0.232-0.055-0.331-0.032c-0.141 0.032-2.391 1.519-6.749 4.46-0.639 0.439-1.217 0.652-1.736 0.641-0.571-0.012-1.669-0.323-2.487-0.589-1.001-0.325-1.799-0.499-1.729-1.051 0.036-0.288 0.432-0.583 1.189-0.884 4.664-2.032 7.775-3.372 9.331-4.020 4.444-1.848 5.367-2.169 5.969-2.18 0.755-0.011 0.936 0.612 0.875 1.252z"></path>
        </symbol>
        <symbol id="icon-twitter" viewBox="0 0 32 32">
            <path d="M25.2 1.537h4.909l-10.723 12.252 12.613 16.675h-9.873l-7.739-10.111-8.845 10.111h-4.917l11.467-13.108-12.092-15.819h10.124l6.988 9.241 8.087-9.241zM23.476 27.529h2.719l-17.552-23.211h-2.92l17.752 23.211z"></path>
        </symbol>
        <symbol id="icon-banknote" viewBox="0 0 48 32">
            <path d="M5.333 0h37.333c1.493 0.071 2.738 0.569 3.733 1.6s1.529 2.24 1.6 3.733v21.333c-0.071 1.493-0.569 2.738-1.6 3.733s-2.24 1.529-3.733 1.6h-37.333c-1.493-0.071-2.738-0.569-3.733-1.6s-1.529-2.24-1.6-3.733v-21.333c0.071-1.493 0.569-2.738 1.6-3.733s2.24-1.529 3.733-1.6zM10.667 2.667c-0.071 2.276-0.818 4.16-2.347 5.653s-3.378 2.276-5.653 2.347v10.667c2.276 0.071 4.16 0.818 5.653 2.347s2.276 3.378 2.347 5.653h26.667c0.071-2.276 0.818-4.16 2.347-5.653s3.378-2.276 5.653-2.347v-10.667c-2.276-0.071-4.16-0.818-5.653-2.347s-2.276-3.378-2.347-5.653h-26.667zM8 2.667h-2.667c-0.782 0-1.422 0.249-1.92 0.747s-0.747 1.138-0.747 1.92v2.667c1.493-0.071 2.738-0.569 3.733-1.6s1.529-2.24 1.6-3.733zM2.667 24v2.667c0 0.782 0.249 1.422 0.747 1.92s1.138 0.747 1.92 0.747h2.667c-0.071-1.493-0.569-2.738-1.6-3.733s-2.24-1.529-3.733-1.6zM34.667 16c0 1.956-0.462 3.733-1.422 5.333s-2.24 2.916-3.911 3.911c-1.671 0.96-3.449 1.422-5.333 1.422s-3.662-0.462-5.333-1.422c-1.671-0.996-2.987-2.311-3.911-3.911s-1.422-3.378-1.422-5.333c0-1.956 0.462-3.733 1.422-5.333s2.24-2.916 3.911-3.911c1.671-0.96 3.449-1.422 5.333-1.422s3.662 0.462 5.333 1.422c1.671 0.996 2.987 2.311 3.911 3.911s1.422 3.378 1.422 5.333zM16 16c0 1.458 0.356 2.773 1.067 3.982s1.707 2.204 2.916 2.916c1.28 0.711 2.596 1.067 3.982 1.067s2.738-0.356 3.982-1.067c1.209-0.711 2.204-1.707 2.916-2.916s1.067-2.56 1.067-3.982c0-1.422-0.356-2.773-1.067-3.982s-1.707-2.204-2.916-2.916c-1.28-0.711-2.596-1.067-3.982-1.067s-2.738 0.356-3.982 1.067c-1.209 0.711-2.204 1.707-2.916 2.916s-1.067 2.56-1.067 3.982zM21.333 12.018c0.071-0.818 0.498-1.28 1.351-1.351h1.351c0.818 0.071 1.28 0.498 1.351 1.351v6.684h0.676c0.818 0.071 1.28 0.498 1.351 1.351-0.071 0.818-0.498 1.28-1.351 1.351h-3.982c-0.818-0.071-1.28-0.498-1.351-1.351 0.071-0.818 0.498-1.28 1.351-1.351h0.676v-5.333c-0.818-0.071-1.28-0.498-1.351-1.351h-0.071zM42.667 2.702h-2.667c0.071 1.493 0.569 2.738 1.6 3.733s2.24 1.529 3.733 1.6v-2.667c0-0.782-0.249-1.422-0.747-1.92s-1.138-0.747-1.92-0.747zM40 29.369h2.667c0.782 0 1.422-0.249 1.92-0.747s0.747-1.138 0.747-1.92v-2.667c-1.493 0.071-2.738 0.569-3.733 1.6s-1.529 2.24-1.6 3.733z"></path>
        </symbol>
        <symbol id="icon-cart" viewBox="0 0 40 32">
            <path d="M1.034 0h3.976c0.822 0.053 1.537 0.319 2.12 0.879 0.53 0.586 0.822 1.278 0.875 2.13v19.967c0.053 0.612 0.371 0.958 1.007 1.012h29.818c0.61 0.053 0.954 0.373 1.007 1.012-0.053 0.612-0.371 0.958-1.007 1.012h-3.552c0.371 0.586 0.557 1.251 0.557 1.997-0.053 1.118-0.424 2.050-1.193 2.795s-1.67 1.145-2.783 1.198c-1.113-0.053-2.041-0.426-2.783-1.198s-1.14-1.677-1.193-2.795c0-0.745 0.186-1.411 0.557-1.997h-11.052c0.371 0.586 0.557 1.251 0.557 1.997-0.053 1.118-0.424 2.050-1.193 2.795s-1.67 1.145-2.783 1.198c-1.113-0.053-2.041-0.426-2.783-1.198s-1.14-1.677-1.193-2.795c0-0.745 0.186-1.411 0.557-1.997h-1.564c-0.822-0.053-1.537-0.319-2.12-0.879-0.53-0.586-0.822-1.278-0.875-2.13v-19.967c-0.053-0.612-0.371-0.958-1.007-1.012h-3.976c-0.61-0.053-0.954-0.373-1.007-1.012 0.053-0.612 0.371-0.958 1.007-1.012h0.026zM11.954 3.993c0-0.586 0.186-1.065 0.557-1.438s0.848-0.559 1.431-0.559h7.951c0.583 0 1.060 0.186 1.431 0.559s0.557 0.852 0.557 1.438v13.977c0 0.586-0.186 1.065-0.557 1.438s-0.848 0.559-1.431 0.559h-7.951c-0.583 0-1.060-0.186-1.431-0.559s-0.557-0.852-0.557-1.438v-13.977zM13.942 29.95c0.583 0 1.060-0.186 1.431-0.559s0.557-0.852 0.557-1.438c0-0.586-0.186-1.065-0.557-1.438s-0.848-0.559-1.431-0.559c-0.583 0-1.060 0.186-1.431 0.559s-0.557 0.852-0.557 1.438c0 0.586 0.186 1.065 0.557 1.438s0.848 0.559 1.431 0.559zM13.942 3.993v13.977h7.951v-13.977h-7.951zM27.857 1.997h3.976c0.583 0 1.060 0.186 1.431 0.559s0.557 0.852 0.557 1.438v3.993c0 0.586-0.186 1.065-0.557 1.438s-0.848 0.559-1.431 0.559h-3.976c-0.583 0-1.060-0.186-1.431-0.559s-0.557-0.852-0.557-1.438v-3.993c0-0.586 0.185-1.065 0.557-1.438s0.848-0.559 1.431-0.559zM25.869 13.977c0-0.586 0.185-1.065 0.557-1.438s0.848-0.559 1.431-0.559h7.951c0.583 0 1.060 0.186 1.431 0.559s0.557 0.852 0.557 1.438v3.993c0 0.586-0.186 1.065-0.557 1.438s-0.848 0.559-1.431 0.559h-7.951c-0.583 0-1.060-0.186-1.431-0.559s-0.557-0.852-0.557-1.438v-3.993zM31.832 3.993h-3.976v3.993h3.976v-3.993zM27.857 13.977v3.993h7.951v-3.993h-7.951zM33.82 27.953c0-0.586-0.186-1.065-0.557-1.438s-0.848-0.559-1.431-0.559c-0.583 0-1.060 0.186-1.431 0.559s-0.557 0.852-0.557 1.438c0 0.586 0.186 1.065 0.557 1.438s0.848 0.559 1.431 0.559c0.583 0 1.060-0.186 1.431-0.559s0.557-0.852 0.557-1.438z"></path>
        </symbol>
        <symbol id="icon-clock" viewBox="0 0 32 32">
            <path d="M2.133 8c1.413-2.427 3.387-4.373 5.867-5.867 2.533-1.413 5.2-2.133 8-2.133s5.467 0.72 8 2.133c2.507 1.493 4.453 3.467 5.867 5.867 1.387 2.427 2.080 5.093 2.133 8-0.053 2.907-0.747 5.573-2.133 8-1.413 2.427-3.387 4.373-5.867 5.867-2.533 1.413-5.2 2.133-8 2.133s-5.467-0.72-8-2.133c-2.507-1.493-4.453-3.467-5.867-5.867-1.387-2.427-2.080-5.093-2.133-8 0.053-2.907 0.747-5.573 2.133-8zM28.133 9.013c-1.253-2.133-2.96-3.84-5.12-5.12-2.213-1.253-4.533-1.867-6.987-1.867s-4.8 0.613-6.987 1.867c-2.16 1.28-3.867 2.987-5.12 5.12-1.2 2.133-1.84 4.453-1.867 6.987 0.053 2.533 0.667 4.88 1.867 6.987 1.253 2.133 2.96 3.84 5.12 5.12 2.213 1.253 4.533 1.867 6.987 1.867s4.8-0.613 6.987-1.867c2.16-1.28 3.867-2.987 5.12-5.12 1.2-2.133 1.84-4.453 1.867-6.987-0.053-2.533-0.667-4.88-1.867-6.987zM17.013 15.707l3.813 5.76c0.293 0.533 0.213 1.013-0.24 1.387-0.533 0.293-1.013 0.213-1.387-0.24l-4-6c-0.133-0.16-0.187-0.347-0.187-0.56v-9.013c0.053-0.613 0.373-0.96 1.013-1.013 0.613 0.053 0.96 0.373 1.013 1.013v8.693l-0.027-0.027z"></path>
        </symbol>
        <symbol id="icon-copy" viewBox="0 0 26 32">
            <path d="M3.725 8h3.725v2h-3.725c-0.546 0-0.993 0.187-1.341 0.56s-0.521 0.853-0.521 1.44v16c0 0.587 0.174 1.067 0.521 1.44s0.795 0.56 1.341 0.56h9.312c0.546 0 0.993-0.187 1.341-0.56s0.521-0.853 0.521-1.44v-2h1.863v2c-0.050 1.12-0.397 2.053-1.117 2.8s-1.564 1.147-2.607 1.2h-9.312c-1.043-0.053-1.912-0.427-2.607-1.2s-1.068-1.68-1.117-2.8v-16c0.050-1.12 0.397-2.053 1.117-2.8s1.564-1.147 2.607-1.2zM25.255 5.12c0.546 0.587 0.819 1.28 0.819 2.133v12.747c-0.050 1.12-0.397 2.053-1.117 2.8s-1.564 1.147-2.607 1.2h-9.312c-1.043-0.053-1.912-0.427-2.607-1.2s-1.068-1.68-1.117-2.8v-16c0.050-1.12 0.397-2.053 1.117-2.8s1.564-1.147 2.607-1.2h6.283c0.77 0 1.44 0.293 1.986 0.88l3.948 4.24zM22.349 22c0.546 0 0.993-0.187 1.341-0.56s0.521-0.853 0.521-1.44v-12.747c0-0.293-0.099-0.533-0.298-0.693l-3.948-4.24c-0.149-0.213-0.372-0.32-0.646-0.32h-6.283c-0.546 0-0.993 0.187-1.341 0.56s-0.521 0.853-0.521 1.44v16c0 0.587 0.174 1.067 0.521 1.44s0.795 0.56 1.341 0.56h9.312z"></path>
        </symbol>
        <symbol id="icon-envelope" viewBox="0 0 32 32">
            <path d="M28.648 2.712l2.987 6.705c0.244 0.579 0.366 1.189 0.366 1.859v16.152c-0.061 1.28-0.488 2.347-1.371 3.2s-1.92 1.311-3.2 1.371h-22.857c-1.28-0.061-2.347-0.488-3.2-1.371s-1.31-1.92-1.371-3.2v-16.152c0-0.67 0.152-1.28 0.427-1.859l2.926-6.705c0.853-1.707 2.255-2.621 4.206-2.712h16.853c1.95 0.091 3.352 1.006 4.206 2.712h0.030zM17.158 11.429h-14.872v16c0 0.671 0.213 1.219 0.64 1.646s0.975 0.64 1.646 0.64h22.857c0.671 0 1.219-0.213 1.646-0.64s0.64-0.975 0.64-1.646v-16h-12.556zM14.872 9.143v-6.857h-7.284c-1.006 0.061-1.707 0.488-2.133 1.371l-2.438 5.486h11.855zM23.649 15.634l-9.143 9.143c-0.518 0.488-1.036 0.488-1.585 0l-4.571-4.571c-0.488-0.518-0.488-1.036 0-1.585 0.518-0.488 1.036-0.488 1.585 0l3.779 3.718 8.351-8.29c0.518-0.488 1.036-0.488 1.585 0 0.488 0.518 0.488 1.036 0 1.585zM17.158 2.286v6.857h11.855l-2.438-5.486c-0.427-0.853-1.158-1.31-2.133-1.371h-7.284z"></path>
        </symbol>
        <symbol id="icon-loading-reports" viewBox="0 0 33 32">
            <path d="M8.015 13.472l-5.704 9.414c-0.171 0.303-0.26 0.626-0.26 0.97 0 0.557 0.192 1.011 0.574 1.355 0.342 0.385 0.766 0.578 1.286 0.578h5.321c0.643 0.041 0.985 0.385 1.026 1.032-0.041 0.646-0.383 0.99-1.026 1.032h-5.321c-1.115-0.041-2.031-0.426-2.756-1.162-0.766-0.77-1.156-1.719-1.156-2.833 0-0.729 0.192-1.396 0.574-2.001l5.895-9.8-3.591 1.224c-0.602 0.131-1.026-0.11-1.286-0.708-0.171-0.605 0.041-1.032 0.643-1.293l5.834-1.932c0.301-0.083 0.574-0.062 0.834 0.062 0.26 0.172 0.424 0.406 0.513 0.708l1.217 6.059c0.082 0.646-0.171 1.052-0.766 1.224-0.602 0.089-1.005-0.172-1.217-0.77l-0.643-3.156h0.007zM16.414 0c1.71 0.041 3.036 0.798 3.973 2.256l4.999 8.252 0.704-3.48c0.171-0.605 0.574-0.88 1.217-0.839 0.595 0.213 0.855 0.626 0.766 1.224l-1.217 6.127c-0.041 0.303-0.212 0.516-0.513 0.646-0.26 0.172-0.533 0.213-0.834 0.131l-5.834-2.001c-0.554-0.261-0.766-0.688-0.643-1.293 0.26-0.557 0.684-0.77 1.286-0.646l3.269 1.093-4.938-8.122c-0.513-0.818-1.258-1.245-2.243-1.293-0.985 0.041-1.73 0.474-2.243 1.293l-1.99 3.287c-0.383 0.516-0.855 0.626-1.409 0.323-0.513-0.385-0.622-0.86-0.321-1.417l1.99-3.287c0.937-1.458 2.264-2.214 3.973-2.256h0.007zM29.298 16.958l2.948 4.896c0.383 0.605 0.575 1.265 0.575 2.001 0 1.121-0.383 2.063-1.156 2.833-0.725 0.729-1.648 1.121-2.756 1.162h-11.859l2.626 2.324c0.424 0.474 0.451 0.97 0.062 1.485-0.472 0.426-0.964 0.454-1.477 0.062l-4.616-4.126c-0.212-0.213-0.321-0.474-0.321-0.77s0.103-0.557 0.321-0.77l4.616-4.126c0.513-0.385 1.005-0.364 1.477 0.062 0.383 0.516 0.363 1.011-0.062 1.485l-2.626 2.324h11.859c0.513 0 0.964-0.193 1.347-0.578 0.342-0.344 0.513-0.798 0.513-1.355 0-0.344-0.089-0.667-0.26-0.97l-2.948-4.834c-0.301-0.605-0.192-1.073 0.321-1.417 0.554-0.303 1.026-0.193 1.409 0.323l0.007-0.014z"></path>
        </symbol>
        <symbol id="icon-mix-lines" viewBox="0 0 39 32">
            <path d="M29.916 31.634c-0.493-0.519-0.493-1.037 0-1.586l3.761-3.783h-8.169c-1.541-0.061-2.774-0.671-3.699-1.861l-12.145-16.015c-0.247-0.275-0.555-0.427-0.925-0.427h-6.936c-0.709-0.061-1.11-0.427-1.171-1.159 0.062-0.702 0.432-1.098 1.171-1.159h6.936c1.171 0.061 2.065 0.488 2.743 1.373l12.145 16.015c0.493 0.61 1.11 0.915 1.88 0.915h8.169l-3.761-3.783c-0.493-0.519-0.493-1.037 0-1.586 0.524-0.488 1.048-0.488 1.603 0l5.795 5.735c0.493 0.519 0.493 1.037 0 1.586l-5.795 5.735c-0.524 0.488-1.048 0.488-1.603 0zM9.694 23.489l4.254-5.582 1.449 1.861-3.915 5.155c-0.678 0.854-1.603 1.312-2.743 1.373h-6.936c-0.709-0.061-1.11-0.427-1.171-1.159 0.062-0.702 0.432-1.098 1.171-1.159h6.936c0.37 0 0.709-0.152 0.925-0.427v-0.061h0.031zM31.519 0.336l5.795 5.735c0.493 0.519 0.493 1.037 0 1.586l-5.795 5.735c-0.524 0.488-1.048 0.488-1.603 0-0.493-0.519-0.493-1.037 0-1.586l3.761-3.783h-8.169c-0.771 0-1.387 0.305-1.88 0.915l-3.915 5.155-1.449-1.861 3.545-4.637c0.925-1.19 2.158-1.8 3.699-1.861h8.169l-3.761-3.783c-0.493-0.519-0.493-1.037 0-1.586 0.524-0.488 1.048-0.488 1.603 0v-0.030z"></path>
        </symbol>
        <symbol id="icon-people" viewBox="0 0 56 32">
            <path d="M3.174 24.021c-0.084 0.981-0.585 1.536-1.587 1.621-0.961-0.085-1.503-0.597-1.587-1.621v-1.621c0.084-1.792 0.668-3.285 1.879-4.48s2.631-1.835 4.385-1.92h8.603c0.961 0.085 1.504 0.597 1.587 1.621-0.084 0.981-0.585 1.536-1.587 1.621h-8.603c-0.919 0-1.671 0.299-2.255 0.896s-0.877 1.365-0.877 2.304v1.621l0.042-0.043zM16.789 3.2c1.128 2.133 1.128 4.267 0 6.4-1.295 2.048-3.132 3.115-5.471 3.2-2.339-0.085-4.135-1.152-5.388-3.2-1.128-2.133-1.128-4.267 0-6.4 1.253-2.048 3.049-3.115 5.388-3.2 2.339 0.085 4.176 1.152 5.471 3.2zM13.573 8.704c0.585-0.597 0.877-1.365 0.877-2.304s-0.292-1.707-0.877-2.304c-0.585-0.597-1.336-0.896-2.255-0.896-0.835 0-1.587 0.299-2.172 0.896s-0.919 1.365-0.961 2.304c0.084 0.939 0.376 1.707 0.961 2.304s1.295 0.896 2.172 0.896c0.919 0 1.671-0.299 2.255-0.896zM17.081 22.016c1.754-1.792 3.968-2.731 6.64-2.816h9.397c2.589 0.085 4.803 0.981 6.557 2.816 1.838 1.792 2.756 4.053 2.84 6.784-0.084 0.939-0.376 1.707-0.96 2.304s-1.295 0.896-2.172 0.896h-21.926c-0.919 0-1.671-0.299-2.255-0.896s-0.877-1.365-0.877-2.304c0.084-2.731 0.961-4.992 2.756-6.784zM23.722 22.4c-1.838 0.085-3.341 0.683-4.51 1.92s-1.754 2.688-1.754 4.48h21.926c-0.084-1.792-0.668-3.285-1.879-4.48s-2.631-1.835-4.385-1.92h-9.397zM35.165 4.011c1.378 2.645 1.378 5.333 0 8.021-1.587 2.603-3.8 3.925-6.766 4.011-3.007-0.085-5.304-1.408-6.849-4.011-1.378-2.645-1.378-5.333 0-8.021 1.587-2.603 3.842-3.925 6.849-4.011 2.924 0.085 5.179 1.408 6.766 4.011zM32.409 10.411c0.835-1.621 0.835-3.2 0-4.779-0.919-1.536-2.255-2.347-4.009-2.389-1.838 0.085-3.216 0.853-4.093 2.389-0.835 1.621-0.835 3.2 0 4.779 0.919 1.536 2.297 2.347 4.093 2.389 1.754-0.085 3.091-0.853 4.009-2.389zM51.202 3.2c1.128 2.133 1.128 4.267 0 6.4-1.295 2.048-3.132 3.115-5.471 3.2-2.339-0.085-4.135-1.152-5.387-3.2-1.128-2.133-1.128-4.267 0-6.4 1.253-2.048 3.049-3.115 5.387-3.2 2.339 0.085 4.176 1.152 5.471 3.2zM41.513 19.2c-0.961-0.085-1.504-0.597-1.587-1.621 0.084-0.981 0.585-1.536 1.587-1.621h8.603c1.754 0.085 3.216 0.683 4.385 1.92s1.796 2.688 1.879 4.48v1.621c-0.084 0.981-0.585 1.536-1.587 1.621-0.96-0.085-1.503-0.597-1.587-1.621v-1.621c0-0.939-0.292-1.707-0.877-2.304s-1.336-0.896-2.255-0.896h-8.603l0.042 0.043zM47.986 8.704c0.585-0.597 0.877-1.365 0.877-2.304s-0.292-1.707-0.877-2.304c-0.585-0.597-1.336-0.896-2.255-0.896-0.835 0-1.587 0.299-2.172 0.896s-0.919 1.365-0.96 2.304c0.084 0.939 0.376 1.707 0.96 2.304s1.295 0.896 2.172 0.896c0.919 0 1.671-0.299 2.255-0.896z"></path>
        </symbol>
        <symbol id="icon-pintle" viewBox="0 0 20 32">
            <path d="M18.577 18.005c0.378 0 0.697 0.144 0.962 0.436s0.396 0.644 0.396 1.061v5.002c0 0.416-0.13 0.773-0.396 1.061s-0.584 0.436-0.962 0.436h-2.265l-4.135 5.468c-0.112 0.169-0.265 0.297-0.454 0.392s-0.378 0.139-0.566 0.139h-2.351c-0.207 0-0.405-0.045-0.593-0.139s-0.342-0.223-0.454-0.392l-4.135-5.468h-2.265c-0.378 0-0.701-0.144-0.962-0.436-0.265-0.293-0.396-0.645-0.396-1.061v-5.002c0-0.416 0.13-0.768 0.396-1.061s0.584-0.436 0.962-0.436h4.081v-2.092l-1.106 0.218c-0.13 0.020-0.252-0.010-0.355-0.094s-0.166-0.188-0.184-0.312l-0.144-1.001c-0.036-0.124-0.018-0.243 0.058-0.357s0.18-0.183 0.31-0.203l1.416-0.283v-2.469l-1.106 0.218c-0.13 0.020-0.252-0.010-0.355-0.094s-0.166-0.188-0.184-0.312l-0.144-1.001c-0.036-0.124-0.018-0.243 0.058-0.357s0.18-0.183 0.31-0.203l1.416-0.283v-2.469l-1.106 0.218c-0.13 0.020-0.252-0.010-0.355-0.094s-0.166-0.188-0.184-0.312l-0.144-1.001c-0.036-0.124-0.018-0.243 0.058-0.362 0.076-0.114 0.18-0.183 0.31-0.203l1.416-0.283v-3.376c0-0.416 0.13-0.768 0.396-1.061s0.584-0.436 0.962-0.436h6.347c0.378 0 0.697 0.144 0.962 0.436s0.396 0.644 0.396 1.061v1.596l1.106-0.218c0.13-0.020 0.252 0.010 0.355 0.094s0.166 0.188 0.184 0.312l0.139 1.001c0.036 0.124 0.018 0.243-0.058 0.362-0.076 0.114-0.18 0.183-0.31 0.203l-1.416 0.283v2.469l1.106-0.218c0.13-0.020 0.252 0.010 0.355 0.094s0.166 0.188 0.184 0.312l0.139 1.001c0.036 0.124 0.018 0.243-0.058 0.362-0.076 0.114-0.18 0.183-0.31 0.203l-1.416 0.283v2.469l1.106-0.218c0.13-0.020 0.252 0.010 0.355 0.094s0.166 0.188 0.184 0.312l0.139 1.001c0.036 0.124 0.018 0.243-0.058 0.362-0.076 0.114-0.18 0.183-0.31 0.203l-1.416 0.283v3.877h4.081l0.009-0.015zM4.522 24.004v-4.001h-2.719v4.001h2.719zM13.902 26.002h-7.879l3.034 4.001h1.811l3.034-4.001zM6.338 24.004h7.255v-4.001h-7.255v4.001zM7.246 4.501l5.439-1.031v-1.467h-5.439v2.499zM7.246 9.003l5.439-1.031v-2.469l-5.439 1.031v2.469zM7.246 13.504l5.439-1.031v-2.469l-5.439 1.031v2.469zM7.246 15.536v2.469h5.439v-3.5l-5.439 1.031zM18.128 20.008h-2.719v4.001h2.719v-4.001z"></path>
        </symbol>
        <symbol id="icon-privat" viewBox="0 0 32 32">
            <path d="M0 31.954h12.496v-12.496h-12.496v12.496z"></path>
            <path d="M25.365 6.606c0 4.249 0 14.497 0 18.746-1.187 0-1.396 0-2.549 0-1.101-9.271-6.926-15.094-16.198-16.195 0-1.153 0-1.362 0-2.551 4.249 0 14.498 0 18.747 0zM0.011 0v15.553h3.304c8.695 0 13.104 4.408 13.104 13.101v3.304h15.552v-31.958h-31.96z"></path>
        </symbol>
        <symbol id="icon-settings" viewBox="0 0 29 32">
            <path d="M14.533 0c0.802 0 1.577 0.053 2.301 0.186 0.129 0 0.233 0.053 0.31 0.133 0.595 0.293 1.009 0.799 1.215 1.492l0.853 2.984c0 0 0.155 0.24 0.362 0.373 0.517 0.24 1.060 0.56 1.577 0.933 0.155 0.080 0.31 0.133 0.491 0.133l2.896-0.746c0.698-0.16 1.319-0.053 1.888 0.32 0.078 0.053 0.155 0.107 0.233 0.186 0.44 0.533 0.853 1.119 1.215 1.759l0.233 0.506c0.31 0.613 0.595 1.279 0.853 1.945 0.052 0.080 0.078 0.187 0.129 0.32 0 0.719-0.233 1.332-0.724 1.865l-2.069 2.185c0 0-0.181 0.293-0.181 0.506 0.052 0.293 0.052 0.613 0.052 0.933s0 0.639-0.052 0.933c0 0.213 0.052 0.373 0.181 0.506l2.069 2.238c0.491 0.506 0.724 1.092 0.724 1.812-0.052 0.133-0.078 0.24-0.129 0.32-0.233 0.666-0.517 1.306-0.853 1.945l-0.233 0.506h-0.052c-0.31 0.613-0.698 1.199-1.164 1.759-0.078 0.080-0.155 0.133-0.233 0.187-0.569 0.373-1.189 0.506-1.888 0.373l-2.896-0.746c-0.155-0.053-0.31 0-0.491 0.053-0.517 0.373-1.060 0.693-1.577 0.933-0.207 0.133-0.31 0.24-0.362 0.373l-0.853 2.984c-0.207 0.719-0.595 1.226-1.215 1.572-0.078 0.053-0.181 0.053-0.31 0.053-0.724 0.133-1.5 0.186-2.301 0.186s-1.577-0.053-2.301-0.186c-0.129 0-0.233 0-0.31-0.053-0.595-0.32-1.008-0.853-1.215-1.572l-0.853-2.984c0 0-0.155-0.24-0.362-0.373-0.517-0.24-1.060-0.559-1.577-0.933-0.155-0.080-0.31-0.107-0.491-0.053l-2.896 0.746c-0.698 0.133-1.319 0-1.888-0.32l-0.233-0.24c-0.44-0.533-0.827-1.119-1.164-1.759h-0.052l-0.233-0.506c-0.31-0.613-0.595-1.279-0.853-1.945-0.052-0.080-0.052-0.186-0.052-0.32-0.052-0.666 0.181-1.279 0.672-1.812l2.069-2.238c0 0 0.181-0.293 0.181-0.506-0.052-0.293-0.052-0.613-0.052-0.933v-0.426c0-0.16 0-0.32 0.052-0.506 0-0.213-0.052-0.373-0.181-0.506l-2.069-2.185c-0.491-0.533-0.724-1.172-0.724-1.865 0.052-0.133 0.078-0.24 0.129-0.32 0.233-0.666 0.517-1.306 0.853-1.945l0.233-0.506h0.052c0.31-0.613 0.698-1.199 1.164-1.759 0.078-0.080 0.155-0.133 0.233-0.186 0.569-0.373 1.189-0.48 1.888-0.32l2.896 0.746c0.155 0 0.31-0.053 0.491-0.133 0.517-0.373 1.060-0.693 1.577-0.933 0.207-0.133 0.31-0.24 0.362-0.373l0.853-2.984c0.207-0.719 0.595-1.199 1.215-1.492 0.078-0.080 0.181-0.133 0.31-0.133 0.724-0.133 1.5-0.186 2.301-0.186h-0.026zM12.541 2.371l-0.776 2.931c-0.233 0.799-0.698 1.359-1.396 1.679-0.44 0.213-0.879 0.453-1.267 0.746-0.595 0.426-1.293 0.56-2.069 0.426l-2.974-0.746c0 0-0.155-0.053-0.233 0-0.31 0.426-0.621 0.879-0.905 1.386l-0.233 0.426c-0.233 0.453-0.465 0.933-0.672 1.439 0 0.080 0.052 0.16 0.129 0.24l2.069 2.238c0.517 0.586 0.776 1.279 0.724 2.052-0.052 0.24-0.052 0.506-0.052 0.746s0 0.533 0.052 0.799c0.052 0.746-0.207 1.412-0.724 1.998l-2.069 2.238c0 0-0.129 0.133-0.181 0.24 0.207 0.506 0.44 0.986 0.724 1.439l0.233 0.426c0.284 0.506 0.595 0.959 0.905 1.386 0.078 0.053 0.155 0.053 0.233 0l2.896-0.746c0.802-0.133 1.5 0 2.069 0.426 0.44 0.293 0.879 0.533 1.345 0.746 0.646 0.32 1.112 0.906 1.396 1.679l0.776 2.931c0 0 0.103 0.16 0.181 0.24 0.595 0.080 1.215 0.133 1.81 0.133s1.215-0.053 1.81-0.133c0.078-0.080 0.129-0.16 0.181-0.24l0.776-2.931c0.233-0.799 0.698-1.359 1.396-1.679 0.44-0.213 0.879-0.453 1.345-0.746 0.595-0.426 1.267-0.56 1.991-0.426l2.974 0.746c0 0 0.155 0.053 0.233 0 0.31-0.426 0.621-0.879 0.905-1.386l0.233-0.426c0.233-0.453 0.465-0.933 0.672-1.439 0-0.133-0.052-0.213-0.129-0.24l-2.069-2.238c-0.517-0.586-0.75-1.252-0.672-1.998v-1.572c-0.078-0.799 0.129-1.466 0.672-2.052l2.069-2.238c0 0 0.129-0.133 0.181-0.24-0.207-0.506-0.44-0.986-0.724-1.439l-0.233-0.426c-0.284-0.506-0.595-0.959-0.905-1.386-0.078-0.053-0.155-0.053-0.233 0l-2.896 0.746c-0.802 0.133-1.5 0-2.069-0.426-0.44-0.293-0.879-0.533-1.345-0.746-0.646-0.32-1.112-0.879-1.396-1.625l-0.776-2.984c0 0-0.103-0.16-0.181-0.24-0.595-0.080-1.215-0.133-1.81-0.133s-1.215 0.053-1.81 0.133c-0.078 0.080-0.129 0.16-0.181 0.24v0.027zM19.885 15.987c-0.078 2.078-0.983 3.677-2.663 4.743-1.784 1.012-3.569 1.012-5.327 0-1.707-1.092-2.586-2.664-2.663-4.743 0.078-2.078 0.983-3.677 2.663-4.743 1.784-1.012 3.569-1.012 5.327 0 1.707 1.092 2.586 2.664 2.663 4.743zM11.145 15.987c0.052 1.332 0.595 2.345 1.707 2.984 1.138 0.666 2.276 0.666 3.388 0 1.086-0.666 1.655-1.652 1.707-2.984-0.052-1.332-0.595-2.345-1.707-2.984-1.138-0.666-2.276-0.666-3.388 0-1.086 0.666-1.655 1.652-1.707 2.984z"></path>
        </symbol>
        <symbol id="icon-twoperson" viewBox="0 0 40 32">
            <path d="M11.155 19.013h5.792c3.137 0.080 5.792 1.173 7.911 3.253 2.092 2.133 3.191 4.747 3.272 7.867 0 0.533-0.188 0.987-0.563 1.307-0.322 0.373-0.778 0.56-1.314 0.56h-24.376c-0.536 0-0.992-0.187-1.314-0.56-0.375-0.32-0.563-0.773-0.563-1.307 0.080-3.12 1.18-5.76 3.272-7.867 2.145-2.080 4.773-3.173 7.911-3.253h-0.027zM16.948 21.013h-5.792c-2.547 0.080-4.693 0.96-6.409 2.613-1.77 1.707-2.682 3.84-2.762 6.373h24.134c-0.080-2.533-1.019-4.667-2.762-6.373-1.716-1.653-3.861-2.533-6.409-2.613zM14.052 16c-1.475 0-2.816-0.347-4.022-1.067s-2.199-1.68-2.95-2.933c-0.724-1.253-1.073-2.587-1.073-4s0.349-2.747 1.073-4c0.751-1.253 1.743-2.24 2.95-2.933s2.548-1.067 4.022-1.067 2.816 0.347 4.022 1.067c1.207 0.72 2.199 1.68 2.95 2.933 0.724 1.253 1.073 2.587 1.073 4s-0.349 2.747-1.073 4c-0.751 1.253-1.743 2.24-2.95 2.933s-2.548 1.067-4.022 1.067zM8.018 8c0 1.093 0.268 2.080 0.804 2.987s1.287 1.653 2.199 2.187c0.965 0.533 1.958 0.8 3.003 0.8s2.065-0.267 3.003-0.8c0.912-0.533 1.663-1.28 2.199-2.187s0.804-1.92 0.804-2.987-0.268-2.080-0.804-2.987c-0.536-0.907-1.287-1.653-2.199-2.187-0.965-0.533-1.957-0.8-3.003-0.8s-2.065 0.267-3.003 0.8c-0.912 0.533-1.663 1.28-2.199 2.187s-0.804 1.92-0.804 2.987zM27.111 16c-2.011-0.053-3.674-0.72-4.961-2.053 0.429-0.533 0.778-1.147 1.073-1.813 0.965 1.2 2.252 1.84 3.888 1.867 1.421-0.053 2.628-0.533 3.593-1.44 0.912-0.96 1.394-2.133 1.448-3.573-0.054-1.413-0.536-2.613-1.448-3.573-0.965-0.907-2.145-1.387-3.593-1.44-1.341 0.053-2.467 0.48-3.406 1.307-0.215-0.72-0.456-1.36-0.751-1.947 1.18-0.88 2.547-1.333 4.156-1.387 2.011 0.053 3.674 0.72 4.961 2.053 1.341 1.28 2.038 2.933 2.065 4.933-0.054 2-0.724 3.653-2.065 4.933-1.287 1.333-2.95 2.027-4.961 2.053v0.080zM38.239 32h-8.608c0.322-0.533 0.509-1.173 0.509-1.867v-0.133h8.045c-0.080-2.24-0.885-4.133-2.387-5.68-1.555-1.493-3.459-2.267-5.712-2.32h-2.762c-0.59-0.72-1.234-1.36-1.958-1.947 0.295-0.053 0.563-0.053 0.805-0.053h3.888c2.843 0.080 5.229 1.067 7.16 2.933 1.877 1.92 2.869 4.293 2.95 7.12 0 0.533-0.188 1.013-0.563 1.387s-0.831 0.56-1.394 0.56h0.027z"></path>
        </symbol>
        <symbol id="icon-arrow-settings" viewBox="0 0 48 32">
            <path fill="red" d="M.948 27.245 24 4.193l3.688 3.688L4.636 30.933.948 27.245z" style="fill:var(--color1, #9ba9ff)"/>
            <path fill="red" d="m24 4.193 23.052 23.052-3.688 3.688L20.312 7.881 24 4.193z" style="fill:var(--color1, #9ba9ff)"/>
        </symbol>
        <symbol id="icon-modal" viewBox="0 0 33 32">
            <path fill="#5169ff" style="fill: var(--color1, #5169ff)" d="M16.444 0l15.931 15.931-15.931 15.931-15.931-15.931 15.931-15.931z"></path>
        </symbol>
    </defs>
</svg>
