<svg aria-hidden="true" style="position: absolute; width: 0; height: 0; overflow: hidden;" version="1.1"
    xmlns="http://www.w3.org/2000/svg"
    xmlns:xlink="http://www.w3.org/1999/xlink">
    <defs>
        <symbol id="icon-banknote" viewBox="0 0 48 32">
            <path d="M5.333 0h37.333c1.493 0.071 2.738 0.569 3.733 1.6s1.529 2.24 1.6 3.733v21.333c-0.071 1.493-0.569 2.738-1.6 3.733s-2.24 1.529-3.733 1.6h-37.333c-1.493-0.071-2.738-0.569-3.733-1.6s-1.529-2.24-1.6-3.733v-21.333c0.071-1.493 0.569-2.738 1.6-3.733s2.24-1.529 3.733-1.6zM10.667 2.667c-0.071 2.276-0.818 4.16-2.347 5.653s-3.378 2.276-5.653 2.347v10.667c2.276 0.071 4.16 0.818 5.653 2.347s2.276 3.378 2.347 5.653h26.667c0.071-2.276 0.818-4.16 2.347-5.653s3.378-2.276 5.653-2.347v-10.667c-2.276-0.071-4.16-0.818-5.653-2.347s-2.276-3.378-2.347-5.653h-26.667zM8 2.667h-2.667c-0.782 0-1.422 0.249-1.92 0.747s-0.747 1.138-0.747 1.92v2.667c1.493-0.071 2.738-0.569 3.733-1.6s1.529-2.24 1.6-3.733zM2.667 24v2.667c0 0.782 0.249 1.422 0.747 1.92s1.138 0.747 1.92 0.747h2.667c-0.071-1.493-0.569-2.738-1.6-3.733s-2.24-1.529-3.733-1.6zM34.667 16c0 1.956-0.462 3.733-1.422 5.333s-2.24 2.916-3.911 3.911c-1.671 0.96-3.449 1.422-5.333 1.422s-3.662-0.462-5.333-1.422c-1.671-0.996-2.987-2.311-3.911-3.911s-1.422-3.378-1.422-5.333c0-1.956 0.462-3.733 1.422-5.333s2.24-2.916 3.911-3.911c1.671-0.96 3.449-1.422 5.333-1.422s3.662 0.462 5.333 1.422c1.671 0.996 2.987 2.311 3.911 3.911s1.422 3.378 1.422 5.333zM16 16c0 1.458 0.356 2.773 1.067 3.982s1.707 2.204 2.916 2.916c1.28 0.711 2.596 1.067 3.982 1.067s2.738-0.356 3.982-1.067c1.209-0.711 2.204-1.707 2.916-2.916s1.067-2.56 1.067-3.982c0-1.422-0.356-2.773-1.067-3.982s-1.707-2.204-2.916-2.916c-1.28-0.711-2.596-1.067-3.982-1.067s-2.738 0.356-3.982 1.067c-1.209 0.711-2.204 1.707-2.916 2.916s-1.067 2.56-1.067 3.982zM21.333 12.018c0.071-0.818 0.498-1.28 1.351-1.351h1.351c0.818 0.071 1.28 0.498 1.351 1.351v6.684h0.676c0.818 0.071 1.28 0.498 1.351 1.351-0.071 0.818-0.498 1.28-1.351 1.351h-3.982c-0.818-0.071-1.28-0.498-1.351-1.351 0.071-0.818 0.498-1.28 1.351-1.351h0.676v-5.333c-0.818-0.071-1.28-0.498-1.351-1.351h-0.071zM42.667 2.702h-2.667c0.071 1.493 0.569 2.738 1.6 3.733s2.24 1.529 3.733 1.6v-2.667c0-0.782-0.249-1.422-0.747-1.92s-1.138-0.747-1.92-0.747zM40 29.369h2.667c0.782 0 1.422-0.249 1.92-0.747s0.747-1.138 0.747-1.92v-2.667c-1.493 0.071-2.738 0.569-3.733 1.6s-1.529 2.24-1.6 3.733z"></path>
        </symbol>
        <symbol id="icon-cart" viewBox="0 0 40 32">
            <path d="M1.034 0h3.976c0.822 0.053 1.537 0.319 2.12 0.879 0.53 0.586 0.822 1.278 0.875 2.13v19.967c0.053 0.612 0.371 0.958 1.007 1.012h29.818c0.61 0.053 0.954 0.373 1.007 1.012-0.053 0.612-0.371 0.958-1.007 1.012h-3.552c0.371 0.586 0.557 1.251 0.557 1.997-0.053 1.118-0.424 2.050-1.193 2.795s-1.67 1.145-2.783 1.198c-1.113-0.053-2.041-0.426-2.783-1.198s-1.14-1.677-1.193-2.795c0-0.745 0.186-1.411 0.557-1.997h-11.052c0.371 0.586 0.557 1.251 0.557 1.997-0.053 1.118-0.424 2.050-1.193 2.795s-1.67 1.145-2.783 1.198c-1.113-0.053-2.041-0.426-2.783-1.198s-1.14-1.677-1.193-2.795c0-0.745 0.186-1.411 0.557-1.997h-1.564c-0.822-0.053-1.537-0.319-2.12-0.879-0.53-0.586-0.822-1.278-0.875-2.13v-19.967c-0.053-0.612-0.371-0.958-1.007-1.012h-3.976c-0.61-0.053-0.954-0.373-1.007-1.012 0.053-0.612 0.371-0.958 1.007-1.012h0.026zM11.954 3.993c0-0.586 0.186-1.065 0.557-1.438s0.848-0.559 1.431-0.559h7.951c0.583 0 1.060 0.186 1.431 0.559s0.557 0.852 0.557 1.438v13.977c0 0.586-0.186 1.065-0.557 1.438s-0.848 0.559-1.431 0.559h-7.951c-0.583 0-1.060-0.186-1.431-0.559s-0.557-0.852-0.557-1.438v-13.977zM13.942 29.95c0.583 0 1.060-0.186 1.431-0.559s0.557-0.852 0.557-1.438c0-0.586-0.186-1.065-0.557-1.438s-0.848-0.559-1.431-0.559c-0.583 0-1.060 0.186-1.431 0.559s-0.557 0.852-0.557 1.438c0 0.586 0.186 1.065 0.557 1.438s0.848 0.559 1.431 0.559zM13.942 3.993v13.977h7.951v-13.977h-7.951zM27.857 1.997h3.976c0.583 0 1.060 0.186 1.431 0.559s0.557 0.852 0.557 1.438v3.993c0 0.586-0.186 1.065-0.557 1.438s-0.848 0.559-1.431 0.559h-3.976c-0.583 0-1.060-0.186-1.431-0.559s-0.557-0.852-0.557-1.438v-3.993c0-0.586 0.185-1.065 0.557-1.438s0.848-0.559 1.431-0.559zM25.869 13.977c0-0.586 0.185-1.065 0.557-1.438s0.848-0.559 1.431-0.559h7.951c0.583 0 1.060 0.186 1.431 0.559s0.557 0.852 0.557 1.438v3.993c0 0.586-0.186 1.065-0.557 1.438s-0.848 0.559-1.431 0.559h-7.951c-0.583 0-1.060-0.186-1.431-0.559s-0.557-0.852-0.557-1.438v-3.993zM31.832 3.993h-3.976v3.993h3.976v-3.993zM27.857 13.977v3.993h7.951v-3.993h-7.951zM33.82 27.953c0-0.586-0.186-1.065-0.557-1.438s-0.848-0.559-1.431-0.559c-0.583 0-1.060 0.186-1.431 0.559s-0.557 0.852-0.557 1.438c0 0.586 0.186 1.065 0.557 1.438s0.848 0.559 1.431 0.559c0.583 0 1.060-0.186 1.431-0.559s0.557-0.852 0.557-1.438z"></path>
        </symbol>
        <symbol id="icon-clock" viewBox="0 0 32 32">
            <path d="M2.133 8c1.413-2.427 3.387-4.373 5.867-5.867 2.533-1.413 5.2-2.133 8-2.133s5.467 0.72 8 2.133c2.507 1.493 4.453 3.467 5.867 5.867 1.387 2.427 2.080 5.093 2.133 8-0.053 2.907-0.747 5.573-2.133 8-1.413 2.427-3.387 4.373-5.867 5.867-2.533 1.413-5.2 2.133-8 2.133s-5.467-0.72-8-2.133c-2.507-1.493-4.453-3.467-5.867-5.867-1.387-2.427-2.080-5.093-2.133-8 0.053-2.907 0.747-5.573 2.133-8zM28.133 9.013c-1.253-2.133-2.96-3.84-5.12-5.12-2.213-1.253-4.533-1.867-6.987-1.867s-4.8 0.613-6.987 1.867c-2.16 1.28-3.867 2.987-5.12 5.12-1.2 2.133-1.84 4.453-1.867 6.987 0.053 2.533 0.667 4.88 1.867 6.987 1.253 2.133 2.96 3.84 5.12 5.12 2.213 1.253 4.533 1.867 6.987 1.867s4.8-0.613 6.987-1.867c2.16-1.28 3.867-2.987 5.12-5.12 1.2-2.133 1.84-4.453 1.867-6.987-0.053-2.533-0.667-4.88-1.867-6.987zM17.013 15.707l3.813 5.76c0.293 0.533 0.213 1.013-0.24 1.387-0.533 0.293-1.013 0.213-1.387-0.24l-4-6c-0.133-0.16-0.187-0.347-0.187-0.56v-9.013c0.053-0.613 0.373-0.96 1.013-1.013 0.613 0.053 0.96 0.373 1.013 1.013v8.693l-0.027-0.027z"></path>
        </symbol>
        <symbol id="icon-copy" viewBox="0 0 26 32">
            <path d="M3.725 8h3.725v2h-3.725c-0.546 0-0.993 0.187-1.341 0.56s-0.521 0.853-0.521 1.44v16c0 0.587 0.174 1.067 0.521 1.44s0.795 0.56 1.341 0.56h9.312c0.546 0 0.993-0.187 1.341-0.56s0.521-0.853 0.521-1.44v-2h1.863v2c-0.050 1.12-0.397 2.053-1.117 2.8s-1.564 1.147-2.607 1.2h-9.312c-1.043-0.053-1.912-0.427-2.607-1.2s-1.068-1.68-1.117-2.8v-16c0.050-1.12 0.397-2.053 1.117-2.8s1.564-1.147 2.607-1.2zM25.255 5.12c0.546 0.587 0.819 1.28 0.819 2.133v12.747c-0.050 1.12-0.397 2.053-1.117 2.8s-1.564 1.147-2.607 1.2h-9.312c-1.043-0.053-1.912-0.427-2.607-1.2s-1.068-1.68-1.117-2.8v-16c0.050-1.12 0.397-2.053 1.117-2.8s1.564-1.147 2.607-1.2h6.283c0.77 0 1.44 0.293 1.986 0.88l3.948 4.24zM22.349 22c0.546 0 0.993-0.187 1.341-0.56s0.521-0.853 0.521-1.44v-12.747c0-0.293-0.099-0.533-0.298-0.693l-3.948-4.24c-0.149-0.213-0.372-0.32-0.646-0.32h-6.283c-0.546 0-0.993 0.187-1.341 0.56s-0.521 0.853-0.521 1.44v16c0 0.587 0.174 1.067 0.521 1.44s0.795 0.56 1.341 0.56h9.312z"></path>
        </symbol>
        <symbol id="icon-envelope" viewBox="0 0 32 32">
            <path d="M28.648 2.712l2.987 6.705c0.244 0.579 0.366 1.189 0.366 1.859v16.152c-0.061 1.28-0.488 2.347-1.371 3.2s-1.92 1.311-3.2 1.371h-22.857c-1.28-0.061-2.347-0.488-3.2-1.371s-1.31-1.92-1.371-3.2v-16.152c0-0.67 0.152-1.28 0.427-1.859l2.926-6.705c0.853-1.707 2.255-2.621 4.206-2.712h16.853c1.95 0.091 3.352 1.006 4.206 2.712h0.030zM17.158 11.429h-14.872v16c0 0.671 0.213 1.219 0.64 1.646s0.975 0.64 1.646 0.64h22.857c0.671 0 1.219-0.213 1.646-0.64s0.64-0.975 0.64-1.646v-16h-12.556zM14.872 9.143v-6.857h-7.284c-1.006 0.061-1.707 0.488-2.133 1.371l-2.438 5.486h11.855zM23.649 15.634l-9.143 9.143c-0.518 0.488-1.036 0.488-1.585 0l-4.571-4.571c-0.488-0.518-0.488-1.036 0-1.585 0.518-0.488 1.036-0.488 1.585 0l3.779 3.718 8.351-8.29c0.518-0.488 1.036-0.488 1.585 0 0.488 0.518 0.488 1.036 0 1.585zM17.158 2.286v6.857h11.855l-2.438-5.486c-0.427-0.853-1.158-1.31-2.133-1.371h-7.284z"></path>
        </symbol>
        <symbol id="icon-loading-reports" viewBox="0 0 33 32">
            <path d="M8.015 13.472l-5.704 9.414c-0.171 0.303-0.26 0.626-0.26 0.97 0 0.557 0.192 1.011 0.574 1.355 0.342 0.385 0.766 0.578 1.286 0.578h5.321c0.643 0.041 0.985 0.385 1.026 1.032-0.041 0.646-0.383 0.99-1.026 1.032h-5.321c-1.115-0.041-2.031-0.426-2.756-1.162-0.766-0.77-1.156-1.719-1.156-2.833 0-0.729 0.192-1.396 0.574-2.001l5.895-9.8-3.591 1.224c-0.602 0.131-1.026-0.11-1.286-0.708-0.171-0.605 0.041-1.032 0.643-1.293l5.834-1.932c0.301-0.083 0.574-0.062 0.834 0.062 0.26 0.172 0.424 0.406 0.513 0.708l1.217 6.059c0.082 0.646-0.171 1.052-0.766 1.224-0.602 0.089-1.005-0.172-1.217-0.77l-0.643-3.156h0.007zM16.414 0c1.71 0.041 3.036 0.798 3.973 2.256l4.999 8.252 0.704-3.48c0.171-0.605 0.574-0.88 1.217-0.839 0.595 0.213 0.855 0.626 0.766 1.224l-1.217 6.127c-0.041 0.303-0.212 0.516-0.513 0.646-0.26 0.172-0.533 0.213-0.834 0.131l-5.834-2.001c-0.554-0.261-0.766-0.688-0.643-1.293 0.26-0.557 0.684-0.77 1.286-0.646l3.269 1.093-4.938-8.122c-0.513-0.818-1.258-1.245-2.243-1.293-0.985 0.041-1.73 0.474-2.243 1.293l-1.99 3.287c-0.383 0.516-0.855 0.626-1.409 0.323-0.513-0.385-0.622-0.86-0.321-1.417l1.99-3.287c0.937-1.458 2.264-2.214 3.973-2.256h0.007zM29.298 16.958l2.948 4.896c0.383 0.605 0.575 1.265 0.575 2.001 0 1.121-0.383 2.063-1.156 2.833-0.725 0.729-1.648 1.121-2.756 1.162h-11.859l2.626 2.324c0.424 0.474 0.451 0.97 0.062 1.485-0.472 0.426-0.964 0.454-1.477 0.062l-4.616-4.126c-0.212-0.213-0.321-0.474-0.321-0.77s0.103-0.557 0.321-0.77l4.616-4.126c0.513-0.385 1.005-0.364 1.477 0.062 0.383 0.516 0.363 1.011-0.062 1.485l-2.626 2.324h11.859c0.513 0 0.964-0.193 1.347-0.578 0.342-0.344 0.513-0.798 0.513-1.355 0-0.344-0.089-0.667-0.26-0.97l-2.948-4.834c-0.301-0.605-0.192-1.073 0.321-1.417 0.554-0.303 1.026-0.193 1.409 0.323l0.007-0.014z"></path>
        </symbol>
        <symbol id="icon-mix-lines" viewBox="0 0 39 32">
            <path d="M29.916 31.634c-0.493-0.519-0.493-1.037 0-1.586l3.761-3.783h-8.169c-1.541-0.061-2.774-0.671-3.699-1.861l-12.145-16.015c-0.247-0.275-0.555-0.427-0.925-0.427h-6.936c-0.709-0.061-1.11-0.427-1.171-1.159 0.062-0.702 0.432-1.098 1.171-1.159h6.936c1.171 0.061 2.065 0.488 2.743 1.373l12.145 16.015c0.493 0.61 1.11 0.915 1.88 0.915h8.169l-3.761-3.783c-0.493-0.519-0.493-1.037 0-1.586 0.524-0.488 1.048-0.488 1.603 0l5.795 5.735c0.493 0.519 0.493 1.037 0 1.586l-5.795 5.735c-0.524 0.488-1.048 0.488-1.603 0zM9.694 23.489l4.254-5.582 1.449 1.861-3.915 5.155c-0.678 0.854-1.603 1.312-2.743 1.373h-6.936c-0.709-0.061-1.11-0.427-1.171-1.159 0.062-0.702 0.432-1.098 1.171-1.159h6.936c0.37 0 0.709-0.152 0.925-0.427v-0.061h0.031zM31.519 0.336l5.795 5.735c0.493 0.519 0.493 1.037 0 1.586l-5.795 5.735c-0.524 0.488-1.048 0.488-1.603 0-0.493-0.519-0.493-1.037 0-1.586l3.761-3.783h-8.169c-0.771 0-1.387 0.305-1.88 0.915l-3.915 5.155-1.449-1.861 3.545-4.637c0.925-1.19 2.158-1.8 3.699-1.861h8.169l-3.761-3.783c-0.493-0.519-0.493-1.037 0-1.586 0.524-0.488 1.048-0.488 1.603 0v-0.030z"></path>
        </symbol>
        <symbol id="icon-people" viewBox="0 0 56 32">
            <path d="M3.174 24.021c-0.084 0.981-0.585 1.536-1.587 1.621-0.961-0.085-1.503-0.597-1.587-1.621v-1.621c0.084-1.792 0.668-3.285 1.879-4.48s2.631-1.835 4.385-1.92h8.603c0.961 0.085 1.504 0.597 1.587 1.621-0.084 0.981-0.585 1.536-1.587 1.621h-8.603c-0.919 0-1.671 0.299-2.255 0.896s-0.877 1.365-0.877 2.304v1.621l0.042-0.043zM16.789 3.2c1.128 2.133 1.128 4.267 0 6.4-1.295 2.048-3.132 3.115-5.471 3.2-2.339-0.085-4.135-1.152-5.388-3.2-1.128-2.133-1.128-4.267 0-6.4 1.253-2.048 3.049-3.115 5.388-3.2 2.339 0.085 4.176 1.152 5.471 3.2zM13.573 8.704c0.585-0.597 0.877-1.365 0.877-2.304s-0.292-1.707-0.877-2.304c-0.585-0.597-1.336-0.896-2.255-0.896-0.835 0-1.587 0.299-2.172 0.896s-0.919 1.365-0.961 2.304c0.084 0.939 0.376 1.707 0.961 2.304s1.295 0.896 2.172 0.896c0.919 0 1.671-0.299 2.255-0.896zM17.081 22.016c1.754-1.792 3.968-2.731 6.64-2.816h9.397c2.589 0.085 4.803 0.981 6.557 2.816 1.838 1.792 2.756 4.053 2.84 6.784-0.084 0.939-0.376 1.707-0.96 2.304s-1.295 0.896-2.172 0.896h-21.926c-0.919 0-1.671-0.299-2.255-0.896s-0.877-1.365-0.877-2.304c0.084-2.731 0.961-4.992 2.756-6.784zM23.722 22.4c-1.838 0.085-3.341 0.683-4.51 1.92s-1.754 2.688-1.754 4.48h21.926c-0.084-1.792-0.668-3.285-1.879-4.48s-2.631-1.835-4.385-1.92h-9.397zM35.165 4.011c1.378 2.645 1.378 5.333 0 8.021-1.587 2.603-3.8 3.925-6.766 4.011-3.007-0.085-5.304-1.408-6.849-4.011-1.378-2.645-1.378-5.333 0-8.021 1.587-2.603 3.842-3.925 6.849-4.011 2.924 0.085 5.179 1.408 6.766 4.011zM32.409 10.411c0.835-1.621 0.835-3.2 0-4.779-0.919-1.536-2.255-2.347-4.009-2.389-1.838 0.085-3.216 0.853-4.093 2.389-0.835 1.621-0.835 3.2 0 4.779 0.919 1.536 2.297 2.347 4.093 2.389 1.754-0.085 3.091-0.853 4.009-2.389zM51.202 3.2c1.128 2.133 1.128 4.267 0 6.4-1.295 2.048-3.132 3.115-5.471 3.2-2.339-0.085-4.135-1.152-5.387-3.2-1.128-2.133-1.128-4.267 0-6.4 1.253-2.048 3.049-3.115 5.387-3.2 2.339 0.085 4.176 1.152 5.471 3.2zM41.513 19.2c-0.961-0.085-1.504-0.597-1.587-1.621 0.084-0.981 0.585-1.536 1.587-1.621h8.603c1.754 0.085 3.216 0.683 4.385 1.92s1.796 2.688 1.879 4.48v1.621c-0.084 0.981-0.585 1.536-1.587 1.621-0.96-0.085-1.503-0.597-1.587-1.621v-1.621c0-0.939-0.292-1.707-0.877-2.304s-1.336-0.896-2.255-0.896h-8.603l0.042 0.043zM47.986 8.704c0.585-0.597 0.877-1.365 0.877-2.304s-0.292-1.707-0.877-2.304c-0.585-0.597-1.336-0.896-2.255-0.896-0.835 0-1.587 0.299-2.172 0.896s-0.919 1.365-0.96 2.304c0.084 0.939 0.376 1.707 0.96 2.304s1.295 0.896 2.172 0.896c0.919 0 1.671-0.299 2.255-0.896z"></path>
        </symbol>
        <symbol id="icon-pintle" viewBox="0 0 20 32">
            <path d="M18.577 18.005c0.378 0 0.697 0.144 0.962 0.436s0.396 0.644 0.396 1.061v5.002c0 0.416-0.13 0.773-0.396 1.061s-0.584 0.436-0.962 0.436h-2.265l-4.135 5.468c-0.112 0.169-0.265 0.297-0.454 0.392s-0.378 0.139-0.566 0.139h-2.351c-0.207 0-0.405-0.045-0.593-0.139s-0.342-0.223-0.454-0.392l-4.135-5.468h-2.265c-0.378 0-0.701-0.144-0.962-0.436-0.265-0.293-0.396-0.645-0.396-1.061v-5.002c0-0.416 0.13-0.768 0.396-1.061s0.584-0.436 0.962-0.436h4.081v-2.092l-1.106 0.218c-0.13 0.020-0.252-0.010-0.355-0.094s-0.166-0.188-0.184-0.312l-0.144-1.001c-0.036-0.124-0.018-0.243 0.058-0.357s0.18-0.183 0.31-0.203l1.416-0.283v-2.469l-1.106 0.218c-0.13 0.020-0.252-0.010-0.355-0.094s-0.166-0.188-0.184-0.312l-0.144-1.001c-0.036-0.124-0.018-0.243 0.058-0.357s0.18-0.183 0.31-0.203l1.416-0.283v-2.469l-1.106 0.218c-0.13 0.020-0.252-0.010-0.355-0.094s-0.166-0.188-0.184-0.312l-0.144-1.001c-0.036-0.124-0.018-0.243 0.058-0.362 0.076-0.114 0.18-0.183 0.31-0.203l1.416-0.283v-3.376c0-0.416 0.13-0.768 0.396-1.061s0.584-0.436 0.962-0.436h6.347c0.378 0 0.697 0.144 0.962 0.436s0.396 0.644 0.396 1.061v1.596l1.106-0.218c0.13-0.020 0.252 0.010 0.355 0.094s0.166 0.188 0.184 0.312l0.139 1.001c0.036 0.124 0.018 0.243-0.058 0.362-0.076 0.114-0.18 0.183-0.31 0.203l-1.416 0.283v2.469l1.106-0.218c0.13-0.020 0.252 0.010 0.355 0.094s0.166 0.188 0.184 0.312l0.139 1.001c0.036 0.124 0.018 0.243-0.058 0.362-0.076 0.114-0.18 0.183-0.31 0.203l-1.416 0.283v2.469l1.106-0.218c0.13-0.020 0.252 0.010 0.355 0.094s0.166 0.188 0.184 0.312l0.139 1.001c0.036 0.124 0.018 0.243-0.058 0.362-0.076 0.114-0.18 0.183-0.31 0.203l-1.416 0.283v3.877h4.081l0.009-0.015zM4.522 24.004v-4.001h-2.719v4.001h2.719zM13.902 26.002h-7.879l3.034 4.001h1.811l3.034-4.001zM6.338 24.004h7.255v-4.001h-7.255v4.001zM7.246 4.501l5.439-1.031v-1.467h-5.439v2.499zM7.246 9.003l5.439-1.031v-2.469l-5.439 1.031v2.469zM7.246 13.504l5.439-1.031v-2.469l-5.439 1.031v2.469zM7.246 15.536v2.469h5.439v-3.5l-5.439 1.031zM18.128 20.008h-2.719v4.001h2.719v-4.001z"></path>
        </symbol>
        <symbol id="icon-privat" viewBox="0 0 32 32">
            <path d="M0 31.954h12.496v-12.496h-12.496v12.496z"></path>
            <path d="M25.365 6.606c0 4.249 0 14.497 0 18.746-1.187 0-1.396 0-2.549 0-1.101-9.271-6.926-15.094-16.198-16.195 0-1.153 0-1.362 0-2.551 4.249 0 14.498 0 18.747 0zM0.011 0v15.553h3.304c8.695 0 13.104 4.408 13.104 13.101v3.304h15.552v-31.958h-31.96z"></path>
        </symbol>
        <symbol id="icon-settings" viewBox="0 0 29 32">
            <path d="M14.533 0c0.802 0 1.577 0.053 2.301 0.186 0.129 0 0.233 0.053 0.31 0.133 0.595 0.293 1.009 0.799 1.215 1.492l0.853 2.984c0 0 0.155 0.24 0.362 0.373 0.517 0.24 1.060 0.56 1.577 0.933 0.155 0.080 0.31 0.133 0.491 0.133l2.896-0.746c0.698-0.16 1.319-0.053 1.888 0.32 0.078 0.053 0.155 0.107 0.233 0.186 0.44 0.533 0.853 1.119 1.215 1.759l0.233 0.506c0.31 0.613 0.595 1.279 0.853 1.945 0.052 0.080 0.078 0.187 0.129 0.32 0 0.719-0.233 1.332-0.724 1.865l-2.069 2.185c0 0-0.181 0.293-0.181 0.506 0.052 0.293 0.052 0.613 0.052 0.933s0 0.639-0.052 0.933c0 0.213 0.052 0.373 0.181 0.506l2.069 2.238c0.491 0.506 0.724 1.092 0.724 1.812-0.052 0.133-0.078 0.24-0.129 0.32-0.233 0.666-0.517 1.306-0.853 1.945l-0.233 0.506h-0.052c-0.31 0.613-0.698 1.199-1.164 1.759-0.078 0.080-0.155 0.133-0.233 0.187-0.569 0.373-1.189 0.506-1.888 0.373l-2.896-0.746c-0.155-0.053-0.31 0-0.491 0.053-0.517 0.373-1.060 0.693-1.577 0.933-0.207 0.133-0.31 0.24-0.362 0.373l-0.853 2.984c-0.207 0.719-0.595 1.226-1.215 1.572-0.078 0.053-0.181 0.053-0.31 0.053-0.724 0.133-1.5 0.186-2.301 0.186s-1.577-0.053-2.301-0.186c-0.129 0-0.233 0-0.31-0.053-0.595-0.32-1.008-0.853-1.215-1.572l-0.853-2.984c0 0-0.155-0.24-0.362-0.373-0.517-0.24-1.060-0.559-1.577-0.933-0.155-0.080-0.31-0.107-0.491-0.053l-2.896 0.746c-0.698 0.133-1.319 0-1.888-0.32l-0.233-0.24c-0.44-0.533-0.827-1.119-1.164-1.759h-0.052l-0.233-0.506c-0.31-0.613-0.595-1.279-0.853-1.945-0.052-0.080-0.052-0.186-0.052-0.32-0.052-0.666 0.181-1.279 0.672-1.812l2.069-2.238c0 0 0.181-0.293 0.181-0.506-0.052-0.293-0.052-0.613-0.052-0.933v-0.426c0-0.16 0-0.32 0.052-0.506 0-0.213-0.052-0.373-0.181-0.506l-2.069-2.185c-0.491-0.533-0.724-1.172-0.724-1.865 0.052-0.133 0.078-0.24 0.129-0.32 0.233-0.666 0.517-1.306 0.853-1.945l0.233-0.506h0.052c0.31-0.613 0.698-1.199 1.164-1.759 0.078-0.080 0.155-0.133 0.233-0.186 0.569-0.373 1.189-0.48 1.888-0.32l2.896 0.746c0.155 0 0.31-0.053 0.491-0.133 0.517-0.373 1.060-0.693 1.577-0.933 0.207-0.133 0.31-0.24 0.362-0.373l0.853-2.984c0.207-0.719 0.595-1.199 1.215-1.492 0.078-0.080 0.181-0.133 0.31-0.133 0.724-0.133 1.5-0.186 2.301-0.186h-0.026zM12.541 2.371l-0.776 2.931c-0.233 0.799-0.698 1.359-1.396 1.679-0.44 0.213-0.879 0.453-1.267 0.746-0.595 0.426-1.293 0.56-2.069 0.426l-2.974-0.746c0 0-0.155-0.053-0.233 0-0.31 0.426-0.621 0.879-0.905 1.386l-0.233 0.426c-0.233 0.453-0.465 0.933-0.672 1.439 0 0.080 0.052 0.16 0.129 0.24l2.069 2.238c0.517 0.586 0.776 1.279 0.724 2.052-0.052 0.24-0.052 0.506-0.052 0.746s0 0.533 0.052 0.799c0.052 0.746-0.207 1.412-0.724 1.998l-2.069 2.238c0 0-0.129 0.133-0.181 0.24 0.207 0.506 0.44 0.986 0.724 1.439l0.233 0.426c0.284 0.506 0.595 0.959 0.905 1.386 0.078 0.053 0.155 0.053 0.233 0l2.896-0.746c0.802-0.133 1.5 0 2.069 0.426 0.44 0.293 0.879 0.533 1.345 0.746 0.646 0.32 1.112 0.906 1.396 1.679l0.776 2.931c0 0 0.103 0.16 0.181 0.24 0.595 0.080 1.215 0.133 1.81 0.133s1.215-0.053 1.81-0.133c0.078-0.080 0.129-0.16 0.181-0.24l0.776-2.931c0.233-0.799 0.698-1.359 1.396-1.679 0.44-0.213 0.879-0.453 1.345-0.746 0.595-0.426 1.267-0.56 1.991-0.426l2.974 0.746c0 0 0.155 0.053 0.233 0 0.31-0.426 0.621-0.879 0.905-1.386l0.233-0.426c0.233-0.453 0.465-0.933 0.672-1.439 0-0.133-0.052-0.213-0.129-0.24l-2.069-2.238c-0.517-0.586-0.75-1.252-0.672-1.998v-1.572c-0.078-0.799 0.129-1.466 0.672-2.052l2.069-2.238c0 0 0.129-0.133 0.181-0.24-0.207-0.506-0.44-0.986-0.724-1.439l-0.233-0.426c-0.284-0.506-0.595-0.959-0.905-1.386-0.078-0.053-0.155-0.053-0.233 0l-2.896 0.746c-0.802 0.133-1.5 0-2.069-0.426-0.44-0.293-0.879-0.533-1.345-0.746-0.646-0.32-1.112-0.879-1.396-1.625l-0.776-2.984c0 0-0.103-0.16-0.181-0.24-0.595-0.080-1.215-0.133-1.81-0.133s-1.215 0.053-1.81 0.133c-0.078 0.080-0.129 0.16-0.181 0.24v0.027zM19.885 15.987c-0.078 2.078-0.983 3.677-2.663 4.743-1.784 1.012-3.569 1.012-5.327 0-1.707-1.092-2.586-2.664-2.663-4.743 0.078-2.078 0.983-3.677 2.663-4.743 1.784-1.012 3.569-1.012 5.327 0 1.707 1.092 2.586 2.664 2.663 4.743zM11.145 15.987c0.052 1.332 0.595 2.345 1.707 2.984 1.138 0.666 2.276 0.666 3.388 0 1.086-0.666 1.655-1.652 1.707-2.984-0.052-1.332-0.595-2.345-1.707-2.984-1.138-0.666-2.276-0.666-3.388 0-1.086 0.666-1.655 1.652-1.707 2.984z"></path>
        </symbol>
        <symbol id="icon-twoperson" viewBox="0 0 40 32">
            <path d="M11.155 19.013h5.792c3.137 0.080 5.792 1.173 7.911 3.253 2.092 2.133 3.191 4.747 3.272 7.867 0 0.533-0.188 0.987-0.563 1.307-0.322 0.373-0.778 0.56-1.314 0.56h-24.376c-0.536 0-0.992-0.187-1.314-0.56-0.375-0.32-0.563-0.773-0.563-1.307 0.080-3.12 1.18-5.76 3.272-7.867 2.145-2.080 4.773-3.173 7.911-3.253h-0.027zM16.948 21.013h-5.792c-2.547 0.080-4.693 0.96-6.409 2.613-1.77 1.707-2.682 3.84-2.762 6.373h24.134c-0.080-2.533-1.019-4.667-2.762-6.373-1.716-1.653-3.861-2.533-6.409-2.613zM14.052 16c-1.475 0-2.816-0.347-4.022-1.067s-2.199-1.68-2.95-2.933c-0.724-1.253-1.073-2.587-1.073-4s0.349-2.747 1.073-4c0.751-1.253 1.743-2.24 2.95-2.933s2.548-1.067 4.022-1.067 2.816 0.347 4.022 1.067c1.207 0.72 2.199 1.68 2.95 2.933 0.724 1.253 1.073 2.587 1.073 4s-0.349 2.747-1.073 4c-0.751 1.253-1.743 2.24-2.95 2.933s-2.548 1.067-4.022 1.067zM8.018 8c0 1.093 0.268 2.080 0.804 2.987s1.287 1.653 2.199 2.187c0.965 0.533 1.958 0.8 3.003 0.8s2.065-0.267 3.003-0.8c0.912-0.533 1.663-1.28 2.199-2.187s0.804-1.92 0.804-2.987-0.268-2.080-0.804-2.987c-0.536-0.907-1.287-1.653-2.199-2.187-0.965-0.533-1.957-0.8-3.003-0.8s-2.065 0.267-3.003 0.8c-0.912 0.533-1.663 1.28-2.199 2.187s-0.804 1.92-0.804 2.987zM27.111 16c-2.011-0.053-3.674-0.72-4.961-2.053 0.429-0.533 0.778-1.147 1.073-1.813 0.965 1.2 2.252 1.84 3.888 1.867 1.421-0.053 2.628-0.533 3.593-1.44 0.912-0.96 1.394-2.133 1.448-3.573-0.054-1.413-0.536-2.613-1.448-3.573-0.965-0.907-2.145-1.387-3.593-1.44-1.341 0.053-2.467 0.48-3.406 1.307-0.215-0.72-0.456-1.36-0.751-1.947 1.18-0.88 2.547-1.333 4.156-1.387 2.011 0.053 3.674 0.72 4.961 2.053 1.341 1.28 2.038 2.933 2.065 4.933-0.054 2-0.724 3.653-2.065 4.933-1.287 1.333-2.95 2.027-4.961 2.053v0.080zM38.239 32h-8.608c0.322-0.533 0.509-1.173 0.509-1.867v-0.133h8.045c-0.080-2.24-0.885-4.133-2.387-5.68-1.555-1.493-3.459-2.267-5.712-2.32h-2.762c-0.59-0.72-1.234-1.36-1.958-1.947 0.295-0.053 0.563-0.053 0.805-0.053h3.888c2.843 0.080 5.229 1.067 7.16 2.933 1.877 1.92 2.869 4.293 2.95 7.12 0 0.533-0.188 1.013-0.563 1.387s-0.831 0.56-1.394 0.56h0.027z"></path>
        </symbol>
        <symbol id="icon-discord" viewBox="0 0 32 32">
            <path d="M27.089 5.827c-2.040-0.936-4.227-1.625-6.513-2.020-0.041-0.008-0.083 0.012-0.105 0.049-0.281 0.5-0.593 1.153-0.811 1.665-2.46-0.368-4.907-0.368-7.316 0-0.217-0.524-0.541-1.165-0.823-1.665-0.023-0.037-0.064-0.056-0.105-0.049-2.285 0.393-4.472 1.083-6.513 2.020-0.017 0.007-0.033 0.020-0.043 0.036-4.148 6.197-5.285 12.243-4.728 18.213 0.003 0.029 0.019 0.057 0.041 0.075 2.737 2.011 5.388 3.231 7.991 4.039 0.041 0.013 0.085-0.003 0.112-0.037 0.616-0.84 1.164-1.727 1.635-2.659 0.028-0.055 0.001-0.12-0.056-0.141-0.871-0.331-1.699-0.733-2.496-1.189-0.063-0.037-0.068-0.127-0.011-0.171 0.168-0.125 0.336-0.256 0.496-0.388 0.029-0.024 0.069-0.029 0.104-0.013 5.237 2.391 10.907 2.391 16.081 0 0.035-0.016 0.075-0.012 0.105 0.013 0.16 0.132 0.328 0.264 0.497 0.389 0.059 0.043 0.055 0.133-0.009 0.171-0.797 0.465-1.625 0.86-2.497 1.188-0.057 0.021-0.081 0.088-0.055 0.143 0.48 0.931 1.029 1.817 1.633 2.657 0.025 0.036 0.071 0.051 0.112 0.039 2.615-0.809 5.267-2.029 8.003-4.039 0.024-0.017 0.039-0.044 0.041-0.073 0.667-6.903-1.117-12.899-4.731-18.213-0.007-0.019-0.023-0.032-0.040-0.039zM10.693 20.441c-1.577 0-2.876-1.448-2.876-3.225s1.273-3.225 2.876-3.225c1.615 0 2.901 1.46 2.876 3.225 0 1.779-1.275 3.225-2.876 3.225zM21.327 20.441c-1.576 0-2.876-1.448-2.876-3.225s1.273-3.225 2.876-3.225c1.615 0 2.901 1.46 2.876 3.225 0 1.779-1.261 3.225-2.876 3.225z"></path>
        </symbol>
        <symbol id="icon-facebook" viewBox="0 0 32 32">
            <path d="M32 16.097c0 7.985-5.859 14.605-13.507 15.807v-11.151h3.719l0.708-4.613h-4.427v-2.993c0-1.263 0.619-2.492 2.6-2.492h2.012v-3.928c0 0-1.827-0.312-3.572-0.312-3.645 0-6.027 2.209-6.027 6.208v3.516h-4.052v4.613h4.052v11.151c-7.647-1.203-13.507-7.821-13.507-15.805 0-8.836 7.164-16 16-16s16 7.163 16 16z"></path>
        </symbol>
        <symbol id="icon-moon" viewBox="0 0 32 32">
            <path d="M20.644 0.943c0.092 0.578-0.092 1.004-0.581 1.278-1.897 1.095-3.458 2.586-4.651 4.502-1.163 1.886-1.714 4.046-1.714 6.418 0.092 3.559 1.316 6.509 3.672 8.852s5.355 3.62 8.905 3.711c0.765 0 1.469-0.061 2.142-0.213 0.581-0.061 0.979 0.152 1.224 0.639s0.153 0.913-0.214 1.369c-2.968 2.89-6.671 4.411-11.108 4.502-2.999-0.061-5.723-0.791-8.109-2.221-2.448-1.369-4.345-3.285-5.753-5.719-1.438-2.373-2.173-5.049-2.234-8.061 0.061-2.981 0.765-5.688 2.142-8.061 1.438-2.433 3.366-4.319 5.814-5.719 2.387-1.43 5.080-2.16 8.018-2.221 0.49 0 0.918 0 1.377 0.061 0.581 0.061 0.918 0.335 1.071 0.852v0.030zM15.901 2.525c-3.305 0.608-5.998 2.16-8.109 4.624-2.142 2.433-3.244 5.384-3.305 8.852 0.092 3.894 1.438 7.118 4.009 9.703s5.845 3.894 9.762 3.985c2.448-0.061 4.682-0.639 6.732-1.795-3.917-0.365-7.161-1.947-9.67-4.715-2.54-2.707-3.856-6.053-3.948-10.038 0-2.099 0.398-4.046 1.224-5.84 0.765-1.856 1.867-3.437 3.305-4.776z"></path>
        </symbol>
        <symbol id="icon-sun" viewBox="0 0 32 32">
            <path d="M23.191 0.845l1.252 6.739 6.738 1.252c0.32 0.080 0.586 0.293 0.746 0.613 0.133 0.293 0.080 0.613-0.133 0.932l-3.862 5.62 3.862 5.62c0.213 0.32 0.24 0.666 0.133 1.012-0.16 0.293-0.426 0.479-0.746 0.559l-6.739 1.252-1.252 6.738c-0.080 0.32-0.266 0.586-0.559 0.746-0.32 0.133-0.666 0.080-1.012-0.133l-5.62-3.862-5.62 3.862c-0.32 0.213-0.666 0.24-1.012 0.133-0.293-0.16-0.479-0.426-0.559-0.746l-1.252-6.739-6.739-1.252c-0.32-0.080-0.586-0.266-0.746-0.559-0.133-0.32-0.080-0.666 0.133-1.012l3.862-5.62-3.862-5.62c-0.213-0.32-0.24-0.666-0.133-1.012 0.16-0.293 0.426-0.479 0.746-0.559l6.739-1.252 1.252-6.739c0.080-0.32 0.293-0.586 0.613-0.746 0.293-0.133 0.613-0.080 0.932 0.133l5.62 3.862 5.62-3.862c0.32-0.213 0.666-0.24 1.012-0.133 0.293 0.16 0.479 0.426 0.559 0.746l0.027 0.027zM16.586 6.145c-0.373 0.213-0.746 0.213-1.119 0l-4.927-3.436-1.065 5.939c-0.133 0.426-0.4 0.666-0.799 0.746l-5.939 1.119 3.436 4.927c0.213 0.373 0.213 0.746 0 1.119l-3.436 4.927 5.939 1.119c0.426 0.080 0.666 0.346 0.746 0.799l1.119 5.86 4.927-3.383c0.373-0.24 0.746-0.24 1.119 0l4.927 3.383 1.119-5.86c0.080-0.453 0.32-0.719 0.746-0.799l5.939-1.119-3.436-4.927c-0.213-0.373-0.213-0.746 0-1.119l3.436-4.927-5.939-1.065c-0.426-0.133-0.666-0.4-0.746-0.799l-1.119-5.939-4.927 3.436zM16.027 23.99c-1.465 0-2.797-0.346-3.995-1.065s-2.184-1.678-2.93-2.93c-0.719-1.252-1.065-2.584-1.065-3.995s0.346-2.743 1.065-3.995c0.746-1.252 1.731-2.237 2.93-2.93s2.53-1.065 3.995-1.065 2.797 0.346 3.995 1.065c1.199 0.719 2.184 1.678 2.93 2.93 0.719 1.252 1.065 2.584 1.065 3.995s-0.346 2.743-1.065 3.995c-0.746 1.252-1.731 2.237-2.93 2.93s-2.53 1.065-3.995 1.065zM10.034 16c0 1.092 0.266 2.078 0.799 2.983s1.278 1.651 2.184 2.184c0.959 0.533 1.944 0.799 2.983 0.799s2.051-0.266 2.983-0.799c0.906-0.533 1.651-1.278 2.184-2.184s0.799-1.918 0.799-2.983-0.266-2.078-0.799-2.983c-0.533-0.906-1.278-1.651-2.184-2.184-0.959-0.533-1.944-0.799-2.983-0.799s-2.051 0.266-2.983 0.799c-0.906 0.533-1.651 1.278-2.184 2.184s-0.799 1.918-0.799 2.983z"></path>
        </symbol>
        <symbol id="icon-telegram" viewBox="0 0 32 32">
            <path d="M16 0c-8.836 0-16 7.164-16 16s7.164 16 16 16 16-7.164 16-16-7.164-16-16-16zM23.416 10.881c-0.24 2.529-1.283 8.669-1.812 11.503-0.224 1.2-0.667 1.601-1.093 1.64-0.929 0.085-1.635-0.615-2.535-1.204-1.408-0.923-2.204-1.497-3.571-2.399-1.58-1.041-0.556-1.613 0.344-2.548 0.236-0.245 4.329-3.969 4.409-4.307 0.009-0.043 0.020-0.2-0.075-0.283s-0.232-0.055-0.331-0.032c-0.141 0.032-2.391 1.519-6.749 4.46-0.639 0.439-1.217 0.652-1.736 0.641-0.571-0.012-1.669-0.323-2.487-0.589-1.001-0.325-1.799-0.499-1.729-1.051 0.036-0.288 0.432-0.583 1.189-0.884 4.664-2.032 7.775-3.372 9.331-4.020 4.444-1.848 5.367-2.169 5.969-2.18 0.755-0.011 0.936 0.612 0.875 1.252z"></path>
        </symbol>
        <symbol id="icon-twitter" viewBox="0 0 32 32">
            <path d="M25.2 1.537h4.909l-10.723 12.252 12.613 16.675h-9.873l-7.739-10.111-8.845 10.111h-4.917l11.467-13.108-12.092-15.819h10.124l6.988 9.241 8.087-9.241zM23.476 27.529h2.719l-17.552-23.211h-2.92l17.752 23.211z"></path>
        </symbol>
        <symbol id="icon-arrow-settings" viewBox="0 0 48 32">
            <path fill="red" d="M.948 27.245 24 4.193l3.688 3.688L4.636 30.933.948 27.245z" style="fill:var(--color1, #9ba9ff)" />
            <path fill="red" d="m24 4.193 23.052 23.052-3.688 3.688L20.312 7.881 24 4.193z" style="fill:var(--color1, #9ba9ff)" />
        </symbol>
        <symbol id="icon-logo" viewBox="0 0 68 32">
            <path fill="#fef102" d="M60.928 13.434H1.398a1.408 1.408 0 0 0-1.293.86c-.07.169-.106.349-.105.531v14.274a1.385 1.385 0 0 0 .862 1.284c.17.07.352.106.536.107h59.53a1.408 1.408 0 0 0 .989-.409 1.378 1.378 0 0 0 .408-.982V14.825a1.363 1.363 0 0 0-.408-.982 1.404 1.404 0 0 0-.99-.409z" style="fill:var(--color1, #fef102)" />
            <path fill="#fff" d="M11.621 11.926V3.659H8.396l-.04.991c-.024.682-.07 1.363-.14 2.042a15.162 15.162 0 0 1-.28 1.745 7.38 7.38 0 0 1-.421 1.408 3.344 3.344 0 0 1-.641.991l-4.988-.555c.441 0 .801-.146 1.082-.436.294-.304.528-.72.701-1.249.173-.542.3-1.176.381-1.903.093-.74.16-1.553.2-2.438L4.41.032h11.858v11.895h-4.647zM1.485 16.625v-6.344H18.11v6.344h-4.327v-2.716H5.811v2.716H1.484zm18.213-2.716V.032h6.75c1.309 0 2.437.211 3.385.634.961.423 1.703 1.031 2.223 1.824.521.78.781 1.705.781 2.776s-.26 1.996-.781 2.776c-.521.78-1.262 1.388-2.223 1.824-.948.423-2.076.634-3.385.634h-4.126l2.103-2.002v5.412h-4.727zm4.727-4.897-2.103-2.121h3.826c.654 0 1.135-.146 1.442-.436.32-.291.481-.687.481-1.189s-.16-.899-.481-1.189c-.307-.291-.788-.436-1.442-.436h-3.826l2.103-2.121v7.494zm10.655 1.269c.828.211 1.475.284 1.943.218.468-.079.881-.364 1.242-.852l.681-.952.401-.436L43.413.032h4.567L42.351 10.48c-.614 1.137-1.355 2.022-2.223 2.657a5.6 5.6 0 0 1-2.844 1.071c-1.042.092-2.143-.092-3.305-.555l1.102-3.37zm4.206 1.645L32.756.031h4.988l4.106 8.664-2.564 3.231zm18.289 1.983L54.09 7.406l3.766-2.181 5.048 8.683h-5.328zm-8.734 0V.032h4.727v13.877h-4.727zm3.365-5.016V5.206h5.308v3.687h-5.308zm6.11-1.427-4.347-.436L57.995.032h4.928l-4.607 7.434z" style="fill:var(--color2, #fff)" />
            <path fill="#5169ff" d="M57.141 31.972c5.716 0 10.35-4.61 10.35-10.295s-4.634-10.296-10.35-10.296c-5.715 0-10.349 4.61-10.349 10.296s4.634 10.295 10.349 10.295z" style="fill:var(--color3, #5169ff)" />
            <path fill="#333" d="m1.225 28.07 4.952-11.102h3.125L14.27 28.07h-3.301l-3.878-9.564h1.25L4.463 28.07H1.226zm2.708-2.157.817-2.316h5.48l.817 2.316H3.932zm11.621 2.157V16.968h5.128c1.026 0 1.907.164 2.644.492.748.328 1.325.804 1.731 1.427.406.613.609 1.342.609 2.189 0 .835-.203 1.559-.609 2.173s-.983 1.089-1.731 1.427c-.737.328-1.618.492-2.644.492h-3.365l1.41-1.364v4.266h-3.173zm3.173-3.934-1.41-1.443h3.173c.662 0 1.154-.143 1.474-.428.331-.285.497-.682.497-1.189 0-.518-.166-.92-.497-1.205-.32-.285-.812-.428-1.474-.428h-3.173L18.727 18v6.138zm8.376 3.934V16.968h2.612l4.631 7.549h-1.378l4.535-7.549h2.612l.032 11.102h-2.932l-.016-6.709h.497l-3.381 5.614h-1.41l-3.477-5.614h.593v6.709h-2.916zm15.429 0V16.968h3.125V28.07h-3.125z" style="fill:var(--color4, #333)" />
            <path fill="#fff" d="M58.938 28.636v-4.343l1.133.958h-3.317c-1.333 0-2.486-.211-3.462-.632-.962-.435-1.703-1.054-2.225-1.856s-.783-1.76-.783-2.875c0-1.142.268-2.121.803-2.936.55-.829 1.325-1.468 2.328-1.917s2.184-.673 3.544-.673h6.758v14.274h-4.779zm-8.592 0 3.626-5.2h4.841l-3.379 5.2h-5.089zm8.592-5.852v-5.873l1.133 1.162h-3.029c-.618 0-1.085.143-1.401.428-.303.285-.453.721-.453 1.305 0 .598.158 1.054.474 1.366.316.299.776.449 1.38.449h3.029l-1.133 1.162z" style="fill:var(--color2, #fff)" />
        </symbol>
        <symbol id="icon-close-modal" viewBox="0 0 57 57">
            <svg xmlns="http://www.w3.org/2000/svg" width="57" height="57" fill="none">
                <g fill="#333" clip-path="url(#a)">
                    <path d="m-2.61-10.66 69.644 69.643-7.732 7.732L-10.34-2.928z" />
                    <path d="m64.399-.344-65.01 65.01-7.732-7.731 65.01-65.01z" />
                </g>
                <defs>
                    <clipPath id="a">
                        <path fill="#fff" d="M0 0h56.376v56.322H0z" />
                    </clipPath>
                </defs>
            </svg>
        </symbol>
        <symbol id="icon-viber" viewBox="0 0 30 30">
            <svg xmlns="http://www.w3.org/2000/svg" width="29" height="31" fill="none">
                <g clip-path="url(#a)">
                    <path fill="#665CA7" d="M25.083 3.166c-.74-.662-3.695-2.844-10.344-2.883 0 0-7.817-.467-11.628 3.04C.972 5.464.234 8.542.156 12.4.078 16.257-.04 23.464 6.922 25.45v3s-.039 1.208.74 1.442c.971.311 1.516-.624 2.449-1.598a43.529 43.529 0 0 0 1.711-1.948c4.744.39 8.4-.506 8.827-.662.973-.312 6.378-1.013 7.272-8.22.934-7.48-.389-12.195-2.838-14.299Zm.816 13.714c-.739 6.039-5.133 6.428-5.95 6.662-.35.117-3.538.896-7.583.663 0 0-2.994 3.623-3.966 4.597a.596.596 0 0 1-.428.195c-.155-.04-.194-.234-.194-.507 0-.39.039-4.987.039-4.987-5.872-1.636-5.522-7.792-5.484-11.025.078-3.234.662-5.844 2.45-7.636 3.228-2.922 9.878-2.494 9.878-2.494 5.6.04 8.283 1.714 8.905 2.299 2.022 1.792 3.072 6.039 2.333 12.233Z" />
                    <path stroke="#665CA7" stroke-linecap="round" stroke-linejoin="round" d="M17.46 12.244c-.077-1.48-.816-2.26-2.255-2.338M19.405 12.868c.04-1.364-.389-2.533-1.205-3.429-.856-.935-2.023-1.441-3.5-1.558" />
                    <path stroke="#665CA7" stroke-linecap="round" stroke-linejoin="round" d="M21.35 13.647c0-2.377-.74-4.247-2.14-5.61-1.4-1.364-3.15-2.065-5.25-2.065" />
                    <path fill="#665CA7" d="M15.283 17.27s.544.04.816-.311l.545-.701c.272-.351.894-.585 1.555-.234.35.195.972.584 1.361.896a41.28 41.28 0 0 1 1.284 1.013c.427.35.505.857.233 1.402-.272.507-.661.974-1.167 1.403-.389.35-.777.506-1.166.584h-.156a2.27 2.27 0 0 1-.506-.078c-.583-.155-1.555-.584-3.227-1.48a20.038 20.038 0 0 1-2.683-1.792c-.39-.312-.817-.663-1.206-1.091l-.155-.156a14.555 14.555 0 0 1-1.09-1.208 20.086 20.086 0 0 1-1.788-2.688c-.894-1.636-1.322-2.61-1.478-3.234-.039-.155-.078-.311-.078-.506v-.156c.04-.39.234-.779.584-1.169a6.572 6.572 0 0 1 1.4-1.168c.544-.273 1.05-.195 1.4.233 0 0 .7.857 1.01 1.286.273.39.662 1.013.895 1.364.35.623.117 1.285-.194 1.558l-.7.545c-.35.273-.311.819-.311.819s.972 3.857 4.822 4.87Z" />
                </g>
                <defs>
                    <clipPath id="a">
                        <path fill="#fff" d="M.135.264h28v30h-28z" />
                    </clipPath>
                </defs>
            </svg>
        </symbol>
        <symbol id="icon-watsapp" viewBox="0 0 30 30">
            <svg fill="none">
                <path fill="#fff" d="m8.107 25.16.437.26a11.93 11.93 0 0 0 6.08 1.664h.004c6.584 0 11.943-5.357 11.945-11.942a11.87 11.87 0 0 0-3.495-8.448 11.867 11.867 0 0 0-8.445-3.502c-6.59 0-11.948 5.356-11.95 11.94-.001 2.257.63 4.454 1.826 6.356l.284.451-1.207 4.407 4.521-1.186Zm-7.971 4.6 2.039-7.446a14.339 14.339 0 0 1-1.919-7.182C.26 7.21 6.706.766 14.63.766a14.281 14.281 0 0 1 10.166 4.213A14.28 14.28 0 0 1 29 15.144c-.003 7.92-6.451 14.367-14.371 14.367-.001 0 0 0 0 0h-.006c-2.406-.001-4.77-.604-6.868-1.75L.135 29.76Z" />
                <path fill="#20B038" d="M.752 15.14c-.001 2.444.637 4.83 1.852 6.934L.635 29.26l7.355-1.929a13.871 13.871 0 0 0 6.63 1.688h.006c7.647 0 13.87-6.222 13.874-13.87a13.784 13.784 0 0 0-4.06-9.812 13.787 13.787 0 0 0-9.815-4.067C6.978 1.27.755 7.49.752 15.14Zm13.874 13.88Z" />
                <path fill="20B038" d="M.256 15.135c0 2.532.66 5.004 1.918 7.183L.135 29.762l7.619-1.997a14.362 14.362 0 0 0 6.868 1.749h.006c7.92 0 14.368-6.446 14.372-14.367a14.28 14.28 0 0 0-4.206-10.165A14.282 14.282 0 0 0 14.628.77C6.706.769.259 7.213.256 15.135m4.537 6.807-.285-.451a11.909 11.909 0 0 1-1.826-6.355c.003-6.584 5.361-11.94 11.95-11.94 3.19 0 6.19 1.244 8.445 3.501a11.868 11.868 0 0 1 3.496 8.448c-.003 6.585-5.361 11.942-11.945 11.942h-.005a11.932 11.932 0 0 1-6.08-1.665l-.436-.258-4.522 1.185 1.208-4.407Zm9.835 7.572Z" />
                <path fill="#fff" fill-rule="evenodd" d="M11.036 9.129c-.27-.598-.552-.61-.808-.62-.21-.01-.45-.009-.688-.009-.24 0-.629.09-.958.45-.33.359-1.257 1.227-1.257 2.994 0 1.767 1.287 3.474 1.466 3.714.18.24 2.485 3.98 6.134 5.42 3.034 1.196 3.651.959 4.31.899.658-.06 2.124-.869 2.424-1.707.299-.839.299-1.558.209-1.708-.09-.15-.33-.24-.688-.419-.36-.18-2.125-1.048-2.454-1.168-.33-.12-.569-.18-.808.18-.24.36-.927 1.168-1.137 1.407-.21.24-.419.27-.778.09-.36-.18-1.516-.558-2.888-1.782-1.067-.951-1.788-2.127-1.998-2.486-.209-.36-.022-.554.158-.733.161-.16.36-.42.539-.629.18-.21.239-.36.358-.599.12-.24.06-.45-.03-.629-.09-.18-.787-1.955-1.106-2.665Z" clip-rule="evenodd" />
            </svg>
        </symbol>
        <symbol id="icon-modal" viewBox="0 0 33 32">
            <path fill="#5169ff" style="fill: var(--color1, #5169ff)" d="M16.444 0l15.931 15.931-15.931 15.931-15.931-15.931 15.931-15.931z"></path>
        </symbol>
        <symbol id="t-shirt" viewBox="0 0 41 32">
            <path fill="#fff" style="fill: var(--color1, #fff)" d="M13.561 0h14.049c1.801 0 3.437 0.56 4.894 1.687l5.093 4.061 2.77 2.187c0.426 0.373 0.687 0.834 0.77 1.374 0.041 0.54-0.11 1.020-0.454 1.44l-4.578 5.441c-0.385 0.413-0.859 0.667-1.416 0.747-0.557 0.040-1.052-0.107-1.485-0.44l-2.323-1.874v13.876c-0.041 1-0.385 1.834-1.031 2.501-0.687 0.627-1.547 0.96-2.577 1h-13.403c-1.031-0.040-1.89-0.373-2.577-1-0.646-0.667-0.99-1.5-1.031-2.501v-13.876l-2.323 1.874c-0.433 0.333-0.921 0.48-1.485 0.44-0.557-0.080-1.031-0.333-1.416-0.747l-4.578-5.441c-0.344-0.413-0.495-0.894-0.454-1.44 0.082-0.54 0.344-1 0.77-1.374l2.77-2.187 5.093-4.061c1.457-1.127 3.093-1.687 4.894-1.687h0.027zM10.014 3.254l-5.093 4.061-2.832 2.187 4.578 5.441 2.832-2.254 1.162-0.94c0.344-0.253 0.708-0.293 1.093-0.127 0.385 0.207 0.577 0.52 0.577 0.94v15.943c0.082 0.913 0.598 1.413 1.546 1.5h13.403c0.942-0.087 1.457-0.587 1.547-1.5v-15.943c0-0.413 0.192-0.727 0.577-0.94 0.385-0.167 0.749-0.127 1.093 0.127l1.223 0.94 2.77 2.254 4.578-5.441-2.77-2.187-5.155-4.061c-1.031-0.833-2.213-1.254-3.547-1.254h-0.454c-0.041 0.040-0.062 0.107-0.062 0.187-0.433 1.414-1.224 2.56-2.385 3.441s-2.536 1.334-4.124 1.374c-1.588-0.040-2.962-0.5-4.124-1.374s-1.952-2.020-2.385-3.441c0-0.080-0.021-0.147-0.062-0.187h-0.454c-1.333 0-2.516 0.413-3.547 1.254h0.014zM16.2 2c0.344 0.874 0.9 1.607 1.677 2.187 0.77 0.54 1.677 0.814 2.708 0.814s1.931-0.273 2.708-0.814c0.77-0.587 1.334-1.314 1.677-2.187h-8.77z"></path>
        </symbol>
        <symbol id="hryvna" viewBox="0 0 38 32">
            <path fill="#fff" style="fill: var(--color1, #fff)" d="M13.037 0.593h11.852c7.2 0 13.037 5.837 13.037 13.037v4.741c0 7.2-5.837 13.037-13.037 13.037h-11.852c-7.2 0-13.037-5.837-13.037-13.037v-4.741c0-7.2 5.837-13.037 13.037-13.037z"></path>
            <path fill="#333" style="fill: var(--color2, #333)" d="M19.058 25.766c-1.536 0-2.816-0.228-3.84-0.683-1.024-0.474-1.792-1.138-2.304-1.991-0.512-0.872-0.768-1.906-0.768-3.1 0-0.265 0.009-0.521 0.028-0.768 0.038-0.265 0.095-0.521 0.171-0.768h-1.394v-2.105h2.475c0.171-0.209 0.36-0.398 0.569-0.569 0.209-0.19 0.427-0.37 0.654-0.54 0.247-0.171 0.503-0.332 0.768-0.484 0.265-0.171 0.54-0.322 0.825-0.455h-5.291v-2.105h9.5c0.247-0.228 0.427-0.484 0.54-0.768 0.133-0.303 0.199-0.645 0.199-1.024 0-0.417-0.104-0.768-0.313-1.052-0.19-0.284-0.474-0.503-0.853-0.654s-0.853-0.228-1.422-0.228c-0.512 0-1.024 0.047-1.536 0.142-0.493 0.095-1.015 0.228-1.564 0.398s-1.138 0.389-1.764 0.654l-1.28-3.356c0.986-0.436 2.010-0.777 3.072-1.024 1.081-0.265 2.219-0.398 3.413-0.398 1.327 0 2.465 0.218 3.413 0.654 0.967 0.417 1.716 1.043 2.247 1.877s0.796 1.858 0.796 3.072c0 0.303-0.019 0.597-0.057 0.882s-0.095 0.559-0.171 0.825h1.451v2.105h-2.645c-0.209 0.228-0.446 0.446-0.711 0.654-0.247 0.19-0.512 0.37-0.796 0.54-0.265 0.152-0.55 0.303-0.853 0.455-0.284 0.133-0.578 0.265-0.882 0.398h5.888v2.105h-9.728c-0.19 0.209-0.332 0.446-0.427 0.711-0.076 0.247-0.114 0.521-0.114 0.825 0 0.455 0.104 0.853 0.313 1.195 0.228 0.322 0.559 0.578 0.996 0.768 0.455 0.171 1.005 0.256 1.65 0.256 1.024 0 2.029-0.114 3.015-0.341 0.986-0.247 1.972-0.569 2.958-0.967v3.584c-0.815 0.398-1.754 0.711-2.816 0.939s-2.2 0.341-3.413 0.341z"></path>
        </symbol>
        <symbol id="icon-close" viewBox="0 0 29 32">
            <path fill="none" stroke="#929292" style="stroke: var(--color1, #929292)" stroke-linejoin="miter" stroke-linecap="round" stroke-miterlimit="4" stroke-width="3.2" d="M2.763 3.2l23.256 23.256"></path>
            <path fill="none" stroke="#929292" style="stroke: var(--color1, #929292)" stroke-linejoin="miter" stroke-linecap="round" stroke-miterlimit="4" stroke-width="3.2" d="M26.025 4.465l-23.256 23.256"></path>
        </symbol>
        <symbol id="basket" viewBox="0 0 32 32">
            <path fill="#fff" style="fill: var(--color1, #fff)" d="M25.812 9.877v-3.584c0-2.305-1.839-4.182-4.144-4.182h-11.299c-1.109 0.001-2.172 0.442-2.956 1.226s-1.225 1.847-1.227 2.956v3.583h-4.366c-0.483 0-0.945 0.192-1.287 0.533s-0.533 0.804-0.533 1.287v3.956c-0 0.239 0.047 0.476 0.138 0.696s0.225 0.421 0.394 0.59c0.169 0.169 0.37 0.303 0.59 0.394s0.457 0.138 0.696 0.138h0.542l1.988 10.923c0.076 0.419 0.297 0.798 0.625 1.071s0.74 0.422 1.165 0.422h19.756c0.879 0 1.632-0.629 1.79-1.494l1.987-10.922h0.506c0.239 0 0.476-0.047 0.696-0.138s0.421-0.225 0.59-0.394c0.169-0.169 0.303-0.37 0.394-0.59s0.138-0.458 0.138-0.696v-3.956c0-0.483-0.192-0.945-0.533-1.287s-0.804-0.533-1.287-0.533l-4.367 0.001zM9.557 6.293c0-0.44 0.372-0.811 0.811-0.811h11.301c0.439 0 0.773 0.371 0.773 0.811v3.583h-12.885v-3.583zM12.074 23.385c0.001 0.166-0.031 0.33-0.094 0.484s-0.155 0.293-0.272 0.411c-0.117 0.118-0.256 0.211-0.409 0.275s-0.317 0.097-0.483 0.097c-0.166-0-0.33-0.033-0.483-0.097s-0.292-0.157-0.409-0.275c-0.117-0.118-0.21-0.257-0.272-0.411s-0.095-0.318-0.094-0.484v-6.95c-0.006-0.169 0.023-0.337 0.084-0.494s0.153-0.301 0.27-0.422c0.117-0.121 0.258-0.218 0.413-0.284s0.323-0.1 0.491-0.1c0.169 0 0.336 0.034 0.491 0.1s0.296 0.162 0.413 0.284c0.117 0.121 0.209 0.265 0.27 0.422s0.089 0.326 0.084 0.494v6.95zM17.279 23.385c0 0.699-0.56 1.266-1.259 1.266-0.166-0-0.33-0.033-0.483-0.097s-0.292-0.157-0.409-0.275c-0.117-0.118-0.21-0.257-0.273-0.411s-0.095-0.318-0.094-0.484v-6.95c0-0.699 0.56-1.265 1.259-1.265s1.259 0.567 1.259 1.265v6.95zM22.485 23.385c0 0.699-0.56 1.266-1.258 1.266-0.166-0-0.33-0.033-0.483-0.097s-0.292-0.157-0.409-0.275c-0.117-0.118-0.21-0.257-0.272-0.411s-0.095-0.318-0.094-0.484v-6.95c0-0.699 0.56-1.265 1.259-1.265 0.698 0 1.258 0.567 1.258 1.265v6.95z"></path>
        </symbol>
        <symbol id="icon-two-person" viewBox="0 0 32 32">
            <path d="M9.097 18.397h4.551c2.465.063 4.551.921 6.216 2.554 1.644 1.675 2.507 3.726 2.571 6.176 0 .419-.147.775-.442 1.026-.253.293-.611.44-1.032.44H1.808c-.421 0-.78-.147-1.032-.44-.295-.251-.443-.607-.443-1.026.063-2.449.927-4.522 2.571-6.176 1.686-1.633 3.751-2.491 6.216-2.554h-.021zm4.552 1.57H9.098c-2.002.063-3.687.754-5.036 2.052-1.391 1.34-2.107 3.015-2.17 5.004h18.963c-.063-1.989-.801-3.664-2.17-5.004-1.349-1.298-3.034-1.989-5.036-2.052zm-2.276-3.936c-1.159 0-2.212-.272-3.161-.837s-1.728-1.319-2.318-2.303c-.569-.984-.843-2.031-.843-3.14s.274-2.156.843-3.14c.59-.984 1.37-1.759 2.318-2.303s2.002-.837 3.161-.837c1.159 0 2.212.272 3.161.837s1.728 1.319 2.318 2.303c.569.984.843 2.031.843 3.14s-.274 2.156-.843 3.14c-.59.984-1.37 1.759-2.318 2.303s-2.002.837-3.161.837zm-4.741-6.28c0 .858.211 1.633.632 2.345s1.011 1.298 1.728 1.717c.759.419 1.538.628 2.36.628s1.622-.209 2.36-.628c.716-.419 1.306-1.005 1.728-1.717s.632-1.507.632-2.345c0-.837-.211-1.633-.632-2.345s-1.011-1.298-1.728-1.717c-.758-.419-1.538-.628-2.36-.628s-1.623.209-2.36.628c-.716.419-1.306 1.005-1.728 1.717s-.632 1.507-.632 2.345zm15.002 6.28c-1.58-.042-2.887-.565-3.898-1.612.337-.419.611-.9.843-1.424.759.942 1.77 1.444 3.055 1.465 1.117-.042 2.065-.419 2.823-1.13.716-.754 1.096-1.675 1.138-2.805-.042-1.11-.421-2.052-1.138-2.805-.759-.712-1.686-1.089-2.823-1.13-1.054.042-1.939.377-2.676 1.026a9.266 9.266 0 0 0-.59-1.528c.927-.691 2.002-1.047 3.266-1.089 1.58.042 2.887.565 3.898 1.612 1.054 1.005 1.601 2.303 1.622 3.873-.042 1.57-.569 2.868-1.622 3.873-1.011 1.047-2.318 1.591-3.898 1.612v.063zm8.745 12.561h-6.764c.253-.419.4-.921.4-1.465v-.105h6.321c-.063-1.759-.695-3.245-1.875-4.459-1.222-1.172-2.718-1.779-4.488-1.821h-2.17a10.579 10.579 0 0 0-1.538-1.528c.232-.042.442-.042.632-.042h3.055c2.233.063 4.109.837 5.626 2.303 1.475 1.507 2.255 3.37 2.318 5.59 0 .419-.147.796-.442 1.089s-.653.44-1.096.44h.021z"/>
        </symbol>
        <symbol id="icon-bolt" viewBox="0 0 32 32">
            <path d="M24.87 17.985c.377 0 .695.14.96.425s.395.628.395 1.033v4.872c0 .406-.13.753-.395 1.033s-.583.425-.96.425h-2.261l-4.127 5.325c-.112.164-.265.29-.453.381s-.377.135-.565.135h-2.346c-.206 0-.404-.043-.592-.135s-.341-.217-.453-.381l-4.127-5.325H7.685c-.377 0-.7-.14-.96-.425a1.458 1.458 0 0 1-.395-1.033v-4.872c0-.406.13-.748.395-1.033s.583-.425.96-.425h4.073v-2.037l-1.103.212c-.13.019-.251-.01-.354-.092s-.166-.183-.184-.304l-.144-.975c-.036-.121-.018-.237.058-.348s.179-.179.309-.198l1.413-.275v-2.404l-1.103.212c-.13.019-.251-.01-.354-.092s-.166-.184-.184-.304l-.144-.975c-.036-.121-.018-.237.058-.348s.179-.179.309-.198l1.413-.275V7.18l-1.103.212c-.13.019-.251-.01-.354-.092s-.166-.183-.184-.304l-.144-.975a.401.401 0 0 1 .058-.352.441.441 0 0 1 .309-.198l1.413-.275V1.908c0-.406.13-.748.395-1.033s.583-.425.96-.425h6.334c.377 0 .695.14.96.425s.395.628.395 1.033v1.555l1.103-.212c.13-.019.251.01.354.092s.166.183.184.304l.139.975a.401.401 0 0 1-.058.352.441.441 0 0 1-.309.198l-1.413.275v2.404l1.103-.212c.13-.019.251.01.354.092s.166.183.184.304l.139.975a.401.401 0 0 1-.058.352.441.441 0 0 1-.309.198l-1.413.275v2.404l1.103-.212c.13-.019.251.01.354.092s.166.183.184.304l.139.975a.401.401 0 0 1-.058.352.441.441 0 0 1-.309.198l-1.413.275v3.776h4.073l.009-.015zm-14.026 5.842v-3.896H8.13v3.896h2.714zm9.361 1.946h-7.863l3.028 3.896h1.808l3.028-3.896zm-7.549-1.946h7.239v-3.896h-7.239v3.896zm.906-18.994 5.427-1.004V2.4h-5.427v2.433zm0 4.384 5.427-1.004V5.809l-5.427 1.004v2.404zm0 4.384 5.427-1.004v-2.404l-5.427 1.004v2.404zm0 1.979v2.404h5.427v-3.409l-5.427 1.004zm10.86 4.355h-2.714v3.896h2.714v-3.896z"/>
        </symbol>
        <symbol id="icon-clock-home" viewBox="0 0 32 32">
            <path fill="var(--color1, #fff)" d="M2.108 8.088C3.505 5.69 5.455 3.766 7.906 2.29 10.41.893 13.045.182 15.813.182s5.403.712 7.907 2.108c2.477 1.476 4.401 3.426 5.798 5.798 1.37 2.398 2.056 5.034 2.108 7.907-.053 2.873-.738 5.508-2.108 7.907-1.397 2.398-3.347 4.322-5.798 5.798-2.504 1.397-5.139 2.108-7.907 2.108s-5.403-.712-7.907-2.108c-2.477-1.476-4.401-3.426-5.798-5.798C.738 21.504.052 18.868 0 15.995c.053-2.873.738-5.508 2.108-7.907zM27.805 9.09c-1.239-2.108-2.925-3.795-5.06-5.06-2.187-1.239-4.48-1.845-6.905-1.845s-4.744.606-6.905 1.845C6.8 5.295 5.114 6.982 3.875 9.09a14.152 14.152 0 0 0-1.845 6.905c.053 2.504.659 4.823 1.845 6.905 1.239 2.108 2.925 3.795 5.06 5.06 2.188 1.239 4.48 1.845 6.905 1.845s4.744-.606 6.905-1.845c2.135-1.265 3.822-2.952 5.06-5.06a14.152 14.152 0 0 0 1.845-6.905c-.053-2.504-.659-4.823-1.845-6.905zm-10.99 6.615 3.769 5.693c.29.527.211 1.002-.237 1.37-.527.29-1.002.211-1.37-.237l-3.953-5.93a.826.826 0 0 1-.184-.553V7.14c.053-.606.369-.949 1.001-1.001.606.053.949.369 1.002 1.001v8.592l-.026-.026z"/>
        </symbol>
        <symbol id="icon-wagon" viewBox="0 0 32 32">
            <path d="M.924 3.715h3.101c.641.042 1.199.249 1.654.686.414.457.641.998.682 1.663v15.588c.041.478.289.748.786.79h23.261c.476.041.744.291.786.79-.041.478-.289.748-.786.79h-2.771c.289.457.434.977.434 1.559-.041.873-.331 1.6-.93 2.182s-1.303.894-2.171.935c-.868-.042-1.592-.333-2.171-.935s-.889-1.309-.93-2.182c0-.582.145-1.102.434-1.559h-8.622c.289.457.434.977.434 1.559-.041.873-.331 1.6-.93 2.182s-1.303.894-2.171.935c-.868-.042-1.592-.333-2.171-.935s-.889-1.309-.93-2.182c0-.582.145-1.102.434-1.559h-1.22c-.641-.042-1.199-.249-1.654-.686-.414-.457-.641-.998-.682-1.663V6.085c-.041-.478-.289-.748-.786-.79H.904c-.476-.042-.744-.291-.786-.79.041-.478.289-.748.786-.79h.021zm8.518 3.118c0-.457.145-.831.434-1.122s.662-.436 1.117-.436h6.203c.455 0 .827.146 1.117.436s.434.665.434 1.122v10.912c0 .457-.145.831-.434 1.122s-.662.436-1.117.436h-6.203c-.455 0-.827-.145-1.117-.436s-.434-.665-.434-1.122V6.833zm1.551 20.264c.455 0 .827-.145 1.116-.436s.434-.665.434-1.122-.145-.831-.434-1.122c-.289-.291-.662-.436-1.116-.436s-.827.145-1.117.436c-.289.291-.434.665-.434 1.122s.145.831.434 1.122c.289.291.662.436 1.117.436zm0-20.264v10.912h6.203V6.833h-6.203zm10.855-1.559h3.101c.455 0 .827.146 1.117.436s.434.665.434 1.122V9.95c0 .457-.145.831-.434 1.122s-.662.436-1.117.436h-3.101c-.455 0-.827-.146-1.116-.436s-.434-.665-.434-1.122V6.832c0-.457.145-.831.434-1.122s.662-.436 1.116-.436zm-1.551 9.353c0-.457.145-.831.434-1.122s.662-.436 1.116-.436h6.203c.455 0 .827.145 1.117.436s.434.665.434 1.122v3.118c0 .457-.145.831-.434 1.122s-.662.436-1.117.436h-6.203c-.455 0-.827-.145-1.116-.436s-.434-.665-.434-1.122v-3.118zm4.652-7.794h-3.101v3.118h3.101V6.833zm-3.101 7.794v3.118h6.203v-3.118h-6.203zM26.5 25.538c0-.457-.145-.831-.434-1.122s-.662-.436-1.117-.436c-.455 0-.827.145-1.116.436s-.434.665-.434 1.122.145.831.434 1.122c.289.291.662.436 1.116.436s.827-.145 1.117-.436c.289-.291.434-.665.434-1.122z"/>
        </symbol>
        <symbol id="icon-packet" viewBox="0 0 32 32">
            <path d="m28.311 3.46 2.876 6.456c.235.558.352 1.144.352 1.79v15.553c-.059 1.232-.47 2.26-1.321 3.081s-1.849 1.262-3.081 1.321H5.128c-1.232-.059-2.26-.47-3.081-1.321S.785 28.491.726 27.259V11.706c0-.646.147-1.233.411-1.79L3.954 3.46C4.776 1.817 6.126.936 8.004.848h16.228c1.878.088 3.228.968 4.05 2.612h.029zm-11.063 8.393H2.928v15.406c0 .646.205 1.174.616 1.585s.939.616 1.585.616h22.009c.646 0 1.174-.205 1.585-.616s.616-.939.616-1.585V11.853h-12.09zm-2.201-2.201V3.049H8.034c-.968.059-1.643.47-2.054 1.321L3.632 9.652h11.415zm8.452 6.251-8.803 8.804c-.499.469-.998.469-1.526 0l-4.402-4.402c-.47-.499-.47-.998 0-1.526.499-.47.998-.47 1.526 0l3.639 3.58 8.041-7.982c.499-.469.998-.469 1.526 0 .47.499.47.998 0 1.526zM17.248 3.05v6.603h11.415l-2.348-5.282c-.411-.822-1.115-1.262-2.054-1.321h-7.013z"/>
        </symbol>
    </defs>
</svg>

