<svg width="40" height="39" viewBox="0 0 40 39" fill="none" xmlns="http://www.w3.org/2000/svg">
<path d="M9.7687 16.4188L2.81726 27.8927C2.60888 28.2615 2.50052 28.6554 2.50052 29.0745C2.50052 29.7534 2.73391 30.3065 3.20067 30.7255C3.61742 31.1949 4.1342 31.4296 4.76766 31.4296H11.2523C12.0358 31.4799 12.4526 31.8989 12.5026 32.6868C12.4526 33.4746 12.0358 33.8937 11.2523 33.944H4.76766C3.40904 33.8937 2.29215 33.4243 1.40863 32.5275C0.475101 31.5888 0 30.4322 0 29.0745C0 28.1861 0.233385 27.3731 0.700149 26.6356L7.88498 14.6923L3.50906 16.1841C2.77558 16.3434 2.25881 16.0501 1.94207 15.3209C1.7337 14.5834 1.99208 14.0637 2.72557 13.7452L9.83538 11.3901C10.2021 11.2895 10.5355 11.3146 10.8523 11.4655C11.169 11.675 11.369 11.96 11.4774 12.3288L12.961 19.7127C13.0611 20.5005 12.7527 20.995 12.0275 21.2045C11.294 21.3134 10.8022 20.995 10.5439 20.2658L9.76037 16.4188H9.7687ZM20.0042 0C22.0879 0.0502874 23.7049 0.972247 24.8468 2.74907L30.9398 12.8065L31.7983 8.56559C32.0067 7.82804 32.4984 7.49282 33.2819 7.5431C34.0071 7.80292 34.3238 8.30582 34.2155 9.03499L32.7318 16.5026C32.6818 16.8714 32.4734 17.1312 32.1067 17.2905C31.79 17.5 31.4566 17.5503 31.0898 17.4497L23.98 15.0108C23.3049 14.6923 23.0465 14.1727 23.1965 13.4351C23.5132 12.7562 24.03 12.4964 24.7635 12.6473L28.7477 13.9799L22.7297 4.08165C22.1046 3.08429 21.1961 2.56465 19.9958 2.50598C18.7956 2.55627 17.8871 3.08429 17.2619 4.08165L14.8364 8.0879C14.3697 8.71649 13.7945 8.85057 13.1194 8.4818C12.4943 8.01245 12.3609 7.43414 12.7277 6.75527L15.1532 2.74907C16.2951 0.972247 17.9121 0.0502874 19.9958 0H20.0042ZM35.7074 20.6681L39.2998 26.6356C39.7666 27.3731 40 28.1777 40 29.0745C40 30.4406 39.5332 31.5888 38.5914 32.5275C37.7079 33.4159 36.5826 33.8937 35.2323 33.944H20.7793L23.98 36.7768C24.4968 37.3551 24.5301 37.9586 24.055 38.5871C23.4799 39.1068 22.8798 39.1403 22.2546 38.6626L16.6285 33.6339C16.3701 33.374 16.2367 33.0556 16.2367 32.6952C16.2367 32.3348 16.3617 32.0163 16.6285 31.7565L22.2546 26.7277C22.8798 26.2584 23.4799 26.2835 24.055 26.8031C24.5218 27.4317 24.4968 28.0352 23.98 28.6135L20.7793 31.4464H35.2323C35.8575 31.4464 36.4076 31.2117 36.8743 30.7423C37.2911 30.3233 37.4995 29.7701 37.4995 29.0913C37.4995 28.6722 37.3911 28.2782 37.1827 27.9095L33.5903 22.0175C33.2236 21.2799 33.3569 20.71 33.9821 20.291C34.6572 19.9222 35.2323 20.0563 35.6991 20.6849L35.7074 20.6681Z" fill="#5E6A8A"/>
</svg>
