<svg width="23" height="19" viewBox="0 0 23 19" fill="none" xmlns="http://www.w3.org/2000/svg">
<path d="M17.7627 18.7826C17.4698 18.4747 17.4698 18.1668 17.7627 17.8408L19.9956 15.5949H15.1454C14.2302 15.5586 13.4981 15.1964 12.949 14.49L5.73773 4.98093C5.59131 4.81792 5.40828 4.72736 5.18864 4.72736H1.07051C0.649543 4.69113 0.411606 4.47378 0.375 4.03908C0.411606 3.6225 0.63124 3.38704 1.07051 3.35081H5.18864C5.88415 3.38704 6.41493 3.64061 6.8176 4.16587L14.0289 13.6749C14.3218 14.0372 14.6878 14.2183 15.1454 14.2183H19.9956L17.7627 11.9724C17.4698 11.6644 17.4698 11.3565 17.7627 11.0305C18.0738 10.7407 18.385 10.7407 18.7144 11.0305L22.1554 14.4357C22.4482 14.7436 22.4482 15.0515 22.1554 15.3775L18.7144 18.7826C18.4033 19.0725 18.0921 19.0725 17.7627 18.7826ZM5.75603 13.9466L8.28182 10.632L9.14206 11.7369L6.8176 14.7979C6.41493 15.3051 5.86585 15.5767 5.18864 15.613H1.07051C0.649543 15.5767 0.411606 15.3594 0.375 14.9247C0.411606 14.5081 0.63124 14.2726 1.07051 14.2364H5.18864C5.40828 14.2364 5.60961 14.1459 5.73773 13.9828V13.9466H5.75603ZM18.7144 0.199239L22.1554 3.60438C22.4482 3.9123 22.4482 4.22021 22.1554 4.54623L18.7144 7.95138C18.4033 8.24118 18.0921 8.24118 17.7627 7.95138C17.4698 7.64347 17.4698 7.33556 17.7627 7.00953L19.9956 4.76359H15.1454C14.6878 4.76359 14.3218 4.94471 14.0289 5.30696L11.7045 8.36797L10.8442 7.26311L12.949 4.51001C13.4981 3.80362 14.2302 3.44137 15.1454 3.40515H19.9956L17.7627 1.1592C17.4698 0.851288 17.4698 0.543375 17.7627 0.21735C18.0738 -0.0724499 18.385 -0.0724499 18.7144 0.21735V0.199239Z" fill="white"/>
</svg>
