<svg width="62" height="72" viewBox="0 0 62 72" fill="none" xmlns="http://www.w3.org/2000/svg">
<path d="M41.4497 2.12167C41.6562 3.42205 41.2431 4.38023 40.1415 4.99619C35.8726 7.46007 32.3611 10.8137 29.6758 15.1255C27.0594 19.3688 25.82 24.2281 25.82 29.5665C26.0265 37.5741 28.7807 44.2129 34.0824 49.4829C39.3841 54.7529 46.1317 57.6274 54.1187 57.8327C55.8401 57.8327 57.4237 57.6958 58.9384 57.3536C60.2466 57.2167 61.1417 57.6958 61.6926 58.7909C62.2434 59.8859 62.0368 60.8441 61.2106 61.8707C54.5318 68.3726 46.2006 71.7947 36.2169 72C29.4692 71.8631 23.3413 70.2205 17.9707 67.0038C12.4625 63.924 8.19357 59.6122 5.02631 54.1369C1.79021 48.7985 0.137707 42.7757 0 36C0.137707 29.2928 1.72134 23.2015 4.81974 17.8631C8.05584 12.3878 12.3936 8.14448 17.9019 4.99619C23.2724 1.77946 29.3315 0.136882 35.9414 0C37.0431 0 38.007 -3.39101e-06 39.0398 0.136879C40.348 0.273761 41.1054 0.889729 41.4497 2.05323V2.12167ZM30.7774 5.68061C23.3413 7.04943 17.2822 10.5399 12.5313 16.0836C7.71159 21.5589 5.23286 28.1977 5.09516 36C5.30172 44.7605 8.33127 52.0152 14.1149 57.8327C19.8986 63.6502 27.2659 66.5932 36.0791 66.7985C41.5874 66.6616 46.6137 65.3612 51.2268 62.7605C42.4136 61.9392 35.1152 58.3802 29.4692 52.1521C23.7544 46.0608 20.7937 38.5323 20.5871 29.5665C20.5871 24.8441 21.4823 20.4639 23.3413 16.4259C25.0626 12.251 27.5413 8.69201 30.7774 5.68061Z" fill="white"/>
</svg>
