<svg width="37" height="21" viewBox="0 0 37 21" fill="none" xmlns="http://www.w3.org/2000/svg">
<path d="M2.08296 15.764C2.02814 16.408 1.69925 16.772 1.04147 16.828C0.411104 16.772 0.0548148 16.436 0 15.764V14.7C0.0548148 13.524 0.43851 12.544 1.23333 11.76C2.02814 10.976 2.96 10.556 4.11111 10.5H9.75703C10.3874 10.556 10.7437 10.892 10.7985 11.564C10.7437 12.208 10.4148 12.572 9.75703 12.628H4.11111C3.50815 12.628 3.01481 12.824 2.63111 13.216C2.24741 13.608 2.05556 14.112 2.05556 14.728V15.792L2.08296 15.764ZM11.0178 2.1C11.7578 3.5 11.7578 4.9 11.0178 6.3C10.1681 7.644 8.96222 8.344 7.42741 8.4C5.89259 8.344 4.71407 7.644 3.89185 6.3C3.15185 4.9 3.15185 3.5 3.89185 2.1C4.71407 0.756 5.89259 0.056 7.42741 0C8.96222 0.056 10.1681 0.756 11.0178 2.1ZM8.90741 5.712C9.29111 5.32 9.48296 4.816 9.48296 4.2C9.48296 3.584 9.29111 3.08 8.90741 2.688C8.52371 2.296 8.03037 2.1 7.42741 2.1C6.87926 2.1 6.38592 2.296 6.00222 2.688C5.61852 3.08 5.39926 3.584 5.37185 4.2C5.42667 4.816 5.61852 5.32 6.00222 5.712C6.38592 6.104 6.85185 6.3 7.42741 6.3C8.03037 6.3 8.52371 6.104 8.90741 5.712ZM11.2096 14.448C12.3607 13.272 13.8133 12.656 15.5674 12.6H21.7341C23.4333 12.656 24.8859 13.244 26.037 14.448C27.243 15.624 27.8459 17.108 27.9007 18.9C27.8459 19.516 27.6541 20.02 27.2704 20.412C26.8867 20.804 26.4207 21 25.8452 21H11.4563C10.8533 21 10.36 20.804 9.9763 20.412C9.59259 20.02 9.40073 19.516 9.40073 18.9C9.45555 17.108 10.0311 15.624 11.2096 14.448ZM15.5674 14.7C14.3615 14.756 13.3748 15.148 12.6074 15.96C11.84 16.772 11.4563 17.724 11.4563 18.9H25.8452C25.7904 17.724 25.4067 16.744 24.6119 15.96C23.817 15.176 22.8852 14.756 21.7341 14.7H15.5674ZM23.077 2.632C23.9815 4.368 23.9815 6.132 23.077 7.896C22.0356 9.604 20.583 10.472 18.637 10.528C16.6637 10.472 15.1563 9.604 14.1422 7.896C13.2378 6.16 13.2378 4.396 14.1422 2.632C15.1837 0.924 16.6637 0.056 18.637 0C20.5556 0.056 22.0356 0.924 23.077 2.632ZM21.2682 6.832C21.8163 5.768 21.8163 4.732 21.2682 3.696C20.6652 2.688 19.7882 2.156 18.637 2.128C17.4311 2.184 16.5267 2.688 15.9511 3.696C15.403 4.76 15.403 5.796 15.9511 6.832C16.5541 7.84 17.4585 8.372 18.637 8.4C19.7882 8.344 20.6652 7.84 21.2682 6.832ZM33.6015 2.1C34.3415 3.5 34.3415 4.9 33.6015 6.3C32.7519 7.644 31.5459 8.344 30.0111 8.4C28.4763 8.344 27.2978 7.644 26.4756 6.3C25.7356 4.9 25.7356 3.5 26.4756 2.1C27.2978 0.756 28.4763 0.056 30.0111 0C31.5459 0.056 32.7519 0.756 33.6015 2.1ZM27.243 12.6C26.6126 12.544 26.2563 12.208 26.2015 11.536C26.2563 10.892 26.5852 10.528 27.243 10.472H32.8889C34.04 10.528 34.9993 10.92 35.7667 11.732C36.5341 12.544 36.9452 13.496 37 14.672V15.736C36.9452 16.38 36.6163 16.744 35.9585 16.8C35.3282 16.744 34.9719 16.408 34.917 15.736V14.672C34.917 14.056 34.7252 13.552 34.3415 13.16C33.9578 12.768 33.4645 12.572 32.8615 12.572H27.2156L27.243 12.6ZM31.4911 5.712C31.8748 5.32 32.0667 4.816 32.0667 4.2C32.0667 3.584 31.8748 3.08 31.4911 2.688C31.1074 2.296 30.6141 2.1 30.0111 2.1C29.463 2.1 28.9696 2.296 28.5859 2.688C28.2022 3.08 27.983 3.584 27.9556 4.2C28.0104 4.816 28.2022 5.32 28.5859 5.712C28.9696 6.104 29.4356 6.3 30.0111 6.3C30.6141 6.3 31.1074 6.104 31.4911 5.712Z" fill="white"/>
</svg>
