<svg width="38" height="61" viewBox="0 0 38 61" fill="none" xmlns="http://www.w3.org/2000/svg">
<path d="M35.4124 34.3225C36.1321 34.3225 36.7405 34.5966 37.246 35.1542C37.7515 35.7117 38 36.3827 38 37.1765V46.7115C38 47.5053 37.7515 48.1857 37.246 48.7339C36.7405 49.282 36.1321 49.5655 35.4124 49.5655H31.094L23.2113 59.9889C22.9971 60.3102 22.7057 60.5558 22.3459 60.7354C21.986 60.915 21.6262 61 21.2663 61H16.7851C16.391 61 16.014 60.915 15.6541 60.7354C15.2943 60.5558 15.0029 60.3102 14.7887 59.9889L6.90599 49.5655H2.5876C1.86787 49.5655 1.25096 49.2914 0.754006 48.7339C0.248482 48.1763 0 47.5053 0 46.7115V37.1765C0 36.3827 0.248482 35.7117 0.754006 35.1542C1.25953 34.5966 1.86787 34.3225 2.5876 34.3225H10.3675V30.3346L8.25975 30.7504C8.01127 30.7882 7.77994 30.7315 7.58287 30.5709C7.3858 30.4102 7.26584 30.2118 7.23157 29.9755L6.95739 28.0666C6.88885 27.8304 6.92311 27.6036 7.06877 27.3862C7.21443 27.1689 7.4115 27.0366 7.65998 26.9988L10.359 26.4601V21.754L8.25119 22.1698C8.00271 22.2076 7.77137 22.1509 7.5743 21.9902C7.37724 21.8296 7.25728 21.6311 7.223 21.3949L6.94882 19.486C6.88027 19.2497 6.91455 19.0229 7.06021 18.8056C7.20587 18.5882 7.40294 18.4559 7.65142 18.4181L10.3504 17.8795V13.1734L8.24262 13.5892C7.99415 13.627 7.7628 13.5703 7.56573 13.4096C7.36866 13.249 7.24871 13.0505 7.21444 12.8143L6.94025 10.9053C6.87171 10.6691 6.90598 10.4423 7.05164 10.2155C7.1973 9.99814 7.39437 9.86584 7.64285 9.82804L10.3418 9.28939V2.85392C10.3418 2.06011 10.5903 1.38915 11.0958 0.831601C11.6014 0.274049 12.2097 0 12.9294 0H25.0277C25.7475 0 26.3558 0.274049 26.8613 0.831601C27.3669 1.38915 27.6153 2.06011 27.6153 2.85392V5.89682L29.7231 5.48103C29.9716 5.44323 30.2029 5.49992 30.4 5.66057C30.5971 5.82122 30.717 6.01968 30.7513 6.25593L31.0169 8.16483C31.0855 8.40108 31.0512 8.62789 30.9055 8.85469C30.7599 9.07204 30.5628 9.20434 30.3143 9.24214L27.6153 9.78079V14.4869L29.7231 14.0711C29.9716 14.0333 30.2029 14.09 30.4 14.2507C30.5971 14.4113 30.717 14.6098 30.7513 14.846L31.0169 16.7549C31.0855 16.9912 31.0512 17.218 30.9055 17.4448C30.7599 17.6621 30.5628 17.7944 30.3143 17.8322L27.6153 18.3709V23.077L29.7231 22.6612C29.9716 22.6234 30.2029 22.6801 30.4 22.8407C30.5971 23.0014 30.717 23.1999 30.7513 23.4361L31.0169 25.345C31.0855 25.5813 31.0512 25.8081 30.9055 26.0349C30.7599 26.2522 30.5628 26.3845 30.3143 26.4223L27.6153 26.961V34.3509H35.3953L35.4124 34.3225ZM8.61963 45.7571V38.1309H3.43586V45.7571H8.61963ZM26.5015 49.5655H11.4814L17.2649 57.1916H20.7179L26.5015 49.5655ZM12.0812 45.7571H25.9103V38.1309H12.0812V45.7571ZM13.812 8.58064L24.1795 6.61503V3.81782H13.812V8.58064ZM13.812 17.1613L24.1795 15.1957V10.4895L13.812 12.4552V17.1613ZM13.812 25.7419L24.1795 23.7763V19.0702L13.812 21.0358V25.7419ZM13.812 29.6164V34.3225H24.1795V27.6508L13.812 29.6164ZM34.5556 38.1404H29.3718V45.7665H34.5556V38.1404Z" fill="white"/>
</svg>
