<svg width="30" height="33" viewBox="0 0 30 33" fill="none" xmlns="http://www.w3.org/2000/svg">
<path id="settings icon" d="M14.9867 0C15.8133 0 16.6133 0.054956 17.36 0.192341C17.4933 0.192341 17.6 0.247296 17.68 0.329728C18.2933 0.631976 18.72 1.15404 18.9333 1.86844L19.8133 4.94588C19.8133 4.94588 19.9733 5.19317 20.1867 5.33056C20.72 5.57785 21.28 5.90758 21.8133 6.29226C21.9733 6.37469 22.1333 6.42964 22.32 6.42964L25.3067 5.66028C26.0267 5.49542 26.6667 5.60533 27.2533 5.99001C27.3333 6.04496 27.4133 6.09992 27.4933 6.18235C27.9467 6.73189 28.3733 7.33639 28.7467 7.99584L28.9867 8.5179C29.3067 9.14988 29.6 9.8368 29.8667 10.5237C29.92 10.6062 29.9467 10.7161 30 10.8535C30 11.5953 29.76 12.2273 29.2533 12.7769L27.12 15.03C27.12 15.03 26.9333 15.3322 26.9333 15.552C26.9867 15.8543 26.9867 16.184 26.9867 16.5137C26.9867 16.8435 26.9867 17.1732 26.9333 17.4754C26.9333 17.6953 26.9867 17.8601 27.12 17.9975L29.2533 20.3056C29.76 20.8276 30 21.4321 30 22.174C29.9467 22.3114 29.92 22.4213 29.8667 22.5037C29.6267 23.1907 29.3333 23.8501 28.9867 24.5096L28.7467 25.0316H28.6933C28.3733 25.6636 27.9733 26.2681 27.4933 26.8451C27.4133 26.9276 27.3333 26.9825 27.2533 27.0375C26.6667 27.4221 26.0267 27.5595 25.3067 27.4221L22.32 26.6528C22.16 26.5978 22 26.6528 21.8133 26.7077C21.28 27.0924 20.72 27.4221 20.1867 27.6694C19.9733 27.8068 19.8667 27.9167 19.8133 28.0541L18.9333 31.1316C18.72 31.8734 18.32 32.3955 17.68 32.7527C17.6 32.8077 17.4933 32.8077 17.36 32.8077C16.6133 32.945 15.8133 33 14.9867 33C14.16 33 13.36 32.945 12.6133 32.8077C12.48 32.8077 12.3733 32.8077 12.2933 32.7527C11.68 32.423 11.2533 31.8734 11.04 31.1316L10.16 28.0541C10.16 28.0541 10 27.8068 9.78667 27.6694C9.25334 27.4221 8.69334 27.0924 8.16 26.7077C8 26.6253 7.84 26.5978 7.65333 26.6528L4.66667 27.4221C3.94667 27.5595 3.30667 27.4221 2.72 27.0924L2.48 26.8451C2.02667 26.2956 1.62667 25.6911 1.28 25.0316H1.22666L0.986664 24.5096C0.666664 23.8776 0.373336 23.1907 0.106669 22.5037C0.0533358 22.4213 0.0533346 22.3114 0.0533346 22.174C1.2219e-06 21.4871 0.239997 20.8551 0.746663 20.3056L2.88 17.9975C2.88 17.9975 3.06667 17.6953 3.06667 17.4754C3.01334 17.1732 3.01334 16.8435 3.01334 16.5137V16.0741C3.01334 15.9092 3.01334 15.7444 3.06667 15.552C3.06667 15.3322 3.01334 15.1674 2.88 15.03L0.746663 12.7769C0.239997 12.2273 0 11.5679 0 10.8535C0.0533333 10.7161 0.079998 10.6062 0.133331 10.5237C0.373331 9.8368 0.66667 9.17735 1.01334 8.5179L1.25334 7.99584H1.30667C1.62667 7.36386 2.02667 6.75937 2.50667 6.18235C2.58667 6.09992 2.66666 6.04496 2.74666 5.99001C3.33333 5.60533 3.97334 5.49542 4.69334 5.66028L7.68 6.42964C7.84 6.42964 8 6.37469 8.18667 6.29226C8.72 5.90758 9.28 5.57785 9.81333 5.33056C10.0267 5.19317 10.1333 5.08327 10.1867 4.94588L11.0667 1.86844C11.28 1.12656 11.68 0.631976 12.32 0.329728C12.4 0.247296 12.5067 0.192341 12.64 0.192341C13.3867 0.054956 14.1867 0 15.0133 0H14.9867ZM12.9333 2.44546L12.1333 5.46794C11.8933 6.29226 11.4133 6.86928 10.6933 7.199C10.24 7.41882 9.78667 7.66611 9.38667 7.96836C8.77333 8.40799 8.05334 8.54538 7.25334 8.40799L4.18667 7.63864C4.18667 7.63864 4.02667 7.58368 3.94667 7.63864C3.62667 8.07827 3.30667 8.54538 3.01334 9.06745L2.77334 9.50708C2.53334 9.97419 2.29333 10.4688 2.08 10.9908C2.08 11.0733 2.13334 11.1557 2.21334 11.2381L4.34667 13.5462C4.88 14.1507 5.14667 14.8651 5.09333 15.662C5.04 15.9092 5.04 16.184 5.04 16.4313C5.04 16.6786 5.04 16.9809 5.09333 17.2556C5.14667 18.025 4.88 18.7119 4.34667 19.3164L2.21334 21.6245C2.21334 21.6245 2.08001 21.7619 2.02667 21.8718C2.24001 22.3938 2.48 22.8884 2.77334 23.3555L3.01334 23.7952C3.30667 24.3172 3.62667 24.7843 3.94667 25.224C4.02667 25.2789 4.10667 25.2789 4.18667 25.224L7.17334 24.4546C8.00001 24.3172 8.72001 24.4546 9.30667 24.8943C9.76 25.1965 10.2133 25.4438 10.6933 25.6636C11.36 25.9933 11.84 26.5978 12.1333 27.3947L12.9333 30.4172C12.9333 30.4172 13.04 30.582 13.12 30.6644C13.7333 30.7469 14.3733 30.8018 14.9867 30.8018C15.6 30.8018 16.24 30.7469 16.8533 30.6644C16.9333 30.582 16.9867 30.4996 17.04 30.4172L17.84 27.3947C18.08 26.5704 18.56 25.9933 19.28 25.6636C19.7333 25.4438 20.1867 25.1965 20.6667 24.8943C21.28 24.4546 21.9733 24.3172 22.72 24.4546L25.7867 25.224C25.7867 25.224 25.9467 25.2789 26.0267 25.224C26.3467 24.7843 26.6667 24.3172 26.96 23.7952L27.2 23.3555C27.44 22.8884 27.68 22.3938 27.8933 21.8718C27.8933 21.7344 27.84 21.652 27.76 21.6245L25.6267 19.3164C25.0933 18.7119 24.8533 18.025 24.9333 17.2556V15.6345C24.8533 14.8102 25.0667 14.1232 25.6267 13.5187L27.76 11.2107C27.76 11.2107 27.8933 11.0733 27.9467 10.9634C27.7333 10.4413 27.4933 9.94671 27.2 9.4796L26.96 9.03997C26.6667 8.5179 26.3467 8.05079 26.0267 7.61116C25.9467 7.5562 25.8667 7.5562 25.7867 7.61116L22.8 8.38052C21.9733 8.51791 21.2533 8.38052 20.6667 7.94089C20.2133 7.63864 19.76 7.39134 19.28 7.17153C18.6133 6.8418 18.1333 6.26478 17.84 5.49542L17.04 2.41799C17.04 2.41799 16.9333 2.25312 16.8533 2.17069C16.24 2.08826 15.6 2.03331 14.9867 2.03331C14.3733 2.03331 13.7333 2.08826 13.12 2.17069C13.04 2.25312 12.9867 2.33555 12.9333 2.41799V2.44546ZM20.5067 16.4863C20.4267 18.6295 19.4933 20.2781 17.76 21.3772C15.92 22.4213 14.08 22.4213 12.2667 21.3772C10.5067 20.2506 9.6 18.6295 9.52 16.4863C9.6 14.343 10.5333 12.6944 12.2667 11.5953C14.1067 10.5512 15.9467 10.5512 17.76 11.5953C19.52 12.7219 20.4267 14.343 20.5067 16.4863ZM11.4933 16.4863C11.5467 17.8601 12.1067 18.9042 13.2533 19.5637C14.4267 20.2506 15.6 20.2506 16.7467 19.5637C17.8667 18.8768 18.4533 17.8601 18.5067 16.4863C18.4533 15.1124 17.8933 14.0683 16.7467 13.4088C15.5733 12.7219 14.4 12.7219 13.2533 13.4088C12.1333 14.0958 11.5467 15.1124 11.4933 16.4863Z" fill="#5E6A8A"/>
</svg>
