<svg width="82" height="82" viewBox="0 0 82 82" fill="none" xmlns="http://www.w3.org/2000/svg">
<path d="M59.4277 2.16532L62.6355 19.4328L79.9029 22.6406C80.7219 22.8453 81.4044 23.3913 81.814 24.2103C82.1552 24.9611 82.0187 25.7801 81.4727 26.5991L71.5763 41L81.4727 55.4009C82.0187 56.2199 82.087 57.1072 81.814 57.9944C81.4044 58.7452 80.7219 59.223 79.9029 59.4277L62.6355 62.6355L59.4277 79.9029C59.2229 80.7219 58.7452 81.4044 57.9944 81.814C57.1754 82.1552 56.2882 82.0187 55.4009 81.4727L41 71.5763L26.5991 81.4727C25.7801 82.0187 24.8928 82.087 24.0056 81.814C23.2548 81.4044 22.7771 80.7219 22.5723 79.9029L19.3645 62.6355L2.09711 59.4277C1.2781 59.223 0.595547 58.7452 0.186043 57.9944C-0.155211 57.1754 -0.0186887 56.2882 0.527317 55.4009L10.4237 41L0.527317 26.5991C-0.0186887 25.7801 -0.0869603 24.8928 0.186043 24.0056C0.595547 23.2548 1.2781 22.7771 2.09711 22.5723L19.3645 19.3645L22.5723 2.09707C22.7771 1.27806 23.3231 0.595553 24.1421 0.186049C24.8928 -0.155205 25.7118 -0.0187023 26.5308 0.527304L40.9317 10.4237L55.3326 0.527304C56.1516 -0.0187023 57.0389 -0.0869544 57.9262 0.186049C58.677 0.595553 59.1547 1.27806 59.3595 2.09707L59.4277 2.16532ZM42.5015 15.7472C41.546 16.2932 40.5905 16.2932 39.635 15.7472L27.0086 6.94287L24.2786 22.1628C23.9373 23.2548 23.2548 23.8691 22.231 24.0738L7.01112 26.9403L15.8155 39.5667C16.3615 40.5222 16.3615 41.4778 15.8155 42.4333L7.01112 55.0597L22.231 57.9262C23.3231 58.1309 23.9373 58.8134 24.1421 59.9737L27.0086 74.9889L39.635 66.321C40.5905 65.7068 41.546 65.7068 42.5015 66.321L55.1279 74.9889L57.9944 59.9737C58.1992 58.8134 58.8134 58.1309 59.9054 57.9262L75.1254 55.0597L66.321 42.4333C65.775 41.4778 65.775 40.5222 66.321 39.5667L75.1254 26.9403L59.9054 24.2103C58.8134 23.8691 58.1992 23.1865 57.9944 22.1628L55.1279 6.94287L42.5015 15.7472ZM41.0683 61.4752C37.3145 61.4752 33.9019 60.588 30.8307 58.7452C27.7594 56.9024 25.2341 54.4454 23.3231 51.2376C21.4803 48.0298 20.593 44.6173 20.593 41C20.593 37.3827 21.4803 33.9702 23.3231 30.7624C25.2341 27.5546 27.7594 25.0293 30.8307 23.2548C33.9019 21.4803 37.3145 20.5248 41.0683 20.5248C44.8221 20.5248 48.2346 21.412 51.3059 23.2548C54.3772 25.0976 56.9024 27.5546 58.8134 30.7624C60.6562 33.9702 61.5435 37.3827 61.5435 41C61.5435 44.6173 60.6562 48.0298 58.8134 51.2376C56.9024 54.4454 54.3772 56.9707 51.3059 58.7452C48.2346 60.5197 44.8221 61.4752 41.0683 61.4752ZM25.7118 41C25.7118 43.7983 26.3943 46.3236 27.7593 48.6441C29.1244 50.9646 31.0354 52.8756 33.3559 54.2406C35.8129 55.6057 38.3382 56.2882 41 56.2882C43.6618 56.2882 46.2553 55.6057 48.6441 54.2406C50.9646 52.8756 52.8756 50.9646 54.2407 48.6441C55.6057 46.3236 56.2881 43.73 56.2881 41C56.2881 38.27 55.6057 35.6764 54.2407 33.3559C52.8756 31.0354 50.9646 29.1244 48.6441 27.7594C46.1871 26.3943 43.6618 25.7118 41 25.7118C38.3382 25.7118 35.7447 26.3943 33.3559 27.7594C31.0354 29.1244 29.1244 31.0354 27.7593 33.3559C26.3943 35.6764 25.7118 38.27 25.7118 41Z" fill="white"/>
</svg>
