<svg width="59" height="47" viewBox="0 0 59 47" fill="none" xmlns="http://www.w3.org/2000/svg">
<path d="M16.3845 27.9258H24.8918C29.5 28.0433 33.3992 29.6492 36.5107 32.7042C39.5828 35.8375 41.1976 39.6758 41.3158 44.2583C41.3158 45.0417 41.0401 45.7075 40.4887 46.1775C40.016 46.7258 39.3465 47 38.5587 47H2.75703C1.96931 47 1.29976 46.7258 0.827129 46.1775C0.275727 45.7075 0 45.0417 0 44.2583C0.118158 39.6758 1.73298 35.7983 4.80508 32.7042C7.95594 29.6492 11.8158 28.0433 16.4239 27.9258H16.3845ZM24.8918 30.8633H16.3845C12.6429 30.9808 9.492 32.2733 6.97131 34.7017C4.37184 37.2083 3.03273 40.3417 2.91457 44.0625H38.3618C38.2437 40.3417 36.8652 37.2083 34.3051 34.7017C31.7844 32.2733 28.6335 30.9808 24.8918 30.8633ZM20.6382 23.5C18.472 23.5 16.5027 22.9908 14.7303 21.9333C12.958 20.8758 11.5007 19.4658 10.3979 17.625C9.33447 15.7842 8.82245 13.8258 8.82245 11.75C8.82245 9.67417 9.33447 7.71583 10.3979 5.875C11.5007 4.03417 12.958 2.585 14.7303 1.56667C16.5027 0.548332 18.472 0 20.6382 0C22.8044 0 24.7737 0.509165 26.5461 1.56667C28.3184 2.62417 29.7757 4.03417 30.8785 5.875C31.9419 7.71583 32.454 9.67417 32.454 11.75C32.454 13.8258 31.9419 15.7842 30.8785 17.625C29.7757 19.4658 28.3184 20.915 26.5461 21.9333C24.7737 22.9517 22.8044 23.5 20.6382 23.5ZM11.7764 11.75C11.7764 13.3558 12.1702 14.805 12.9579 16.1367C13.7457 17.4683 14.8485 18.565 16.1876 19.3483C17.6055 20.1317 19.0628 20.5233 20.5988 20.5233C22.1349 20.5233 23.6315 20.1317 25.01 19.3483C26.3491 18.565 27.452 17.4683 28.2397 16.1367C29.0274 14.805 29.4212 13.3167 29.4212 11.75C29.4212 10.1833 29.0274 8.695 28.2397 7.36333C27.452 6.03166 26.3491 4.935 25.01 4.15166C23.5921 3.36833 22.1349 2.97666 20.5988 2.97666C19.0628 2.97666 17.5661 3.36833 16.1876 4.15166C14.8485 4.935 13.7457 6.03166 12.9579 7.36333C12.1702 8.695 11.7764 10.1833 11.7764 11.75ZM39.8191 23.5C36.8651 23.4217 34.4232 22.4425 32.5327 20.4842C33.1629 19.7008 33.6749 18.8 34.1082 17.8208C35.526 19.5833 37.4165 20.5233 39.8191 20.5625C41.9065 20.4842 43.6789 19.7792 45.0968 18.4475C46.4359 17.0375 47.1449 15.3142 47.2236 13.1992C47.1449 11.1233 46.4359 9.36083 45.0968 7.95083C43.6789 6.61916 41.9459 5.91417 39.8191 5.83583C37.8498 5.91417 36.1956 6.54083 34.8171 7.755C34.502 6.6975 34.1475 5.7575 33.7143 4.89583C35.4473 3.60333 37.4559 2.9375 39.8191 2.85916C42.773 2.9375 45.215 3.91667 47.1055 5.875C49.0748 7.755 50.0988 10.1833 50.1382 13.1208C50.0594 16.0583 49.0748 18.4867 47.1055 20.3667C45.215 22.325 42.773 23.3433 39.8191 23.3825V23.5ZM56.1642 47H43.5214C43.994 46.2167 44.2697 45.2767 44.2697 44.2583V44.0625H56.0855C55.9673 40.7725 54.7857 37.9917 52.5801 35.72C50.2957 33.5267 47.4993 32.3908 44.1909 32.3125H40.1342C39.2677 31.255 38.3224 30.315 37.259 29.4533C37.6923 29.375 38.0861 29.375 38.4406 29.375H44.1516C48.3265 29.4925 51.8318 30.9417 54.6676 33.6833C57.4246 36.5033 58.8818 39.9892 59 44.1408C59 44.9242 58.7243 45.6292 58.1729 46.1775C57.6215 46.7258 56.9519 47 56.1248 47H56.1642Z" fill="white"/>
</svg>
